<svg width="18" height="19" viewBox="0 0 18 19" fill="none" xmlns="http://www.w3.org/2000/svg">
<g clip-path="url(#clip0_336_268)">
<path fill-rule="evenodd" clip-rule="evenodd" d="M12.6984 5.11986C12.6268 5.11986 12.5583 5.08328 12.519 5.01999C11.9133 4.04196 10.703 3.54596 8.92098 3.54596C7.13905 3.54596 5.92872 4.04179 5.32298 5.01999C5.27332 5.10047 5.17607 5.13821 5.08509 5.11155C4.99428 5.08535 4.932 5.00172 4.93275 4.90722L4.94794 3.03377C5.08194 1.28867 7.1013 0.500305 8.92115 0.500305C10.741 0.500305 12.7604 1.2885 12.8935 3.01932L12.9094 4.90718C12.9101 5.00181 12.8477 5.08527 12.7569 5.11151C12.7377 5.1172 12.7179 5.11986 12.6984 5.11986Z" fill="#00B2B1"/>
<path fill-rule="evenodd" clip-rule="evenodd" d="M9.00004 13.5537C8.06194 13.5537 7.27553 12.9112 7.12348 12.0576L6.13929 12.4366C6.09694 12.4532 6.05018 12.4551 6.00629 12.4428C5.3452 12.2568 4.20476 11.7873 3.99399 10.7332C3.98137 10.6704 3.99806 10.6052 4.03938 10.5561C4.08069 10.5069 4.1409 10.4802 4.20609 10.481C4.22744 10.481 4.67742 10.4776 4.88338 10.1857C5.041 9.96256 5.03602 9.61057 4.8686 9.13994C4.6347 8.48222 3.95766 6.21429 5.06342 4.64737C5.77675 3.63648 7.07456 3.12396 8.92081 3.12396C10.767 3.12396 12.0648 3.63648 12.7784 4.64737C13.8841 6.21425 13.207 8.48221 12.973 9.13994C12.8057 9.61057 12.8007 9.9624 12.9583 10.1857C13.1643 10.4775 13.6141 10.481 13.633 10.481C13.6963 10.481 13.7599 10.5093 13.8002 10.558C13.8402 10.607 13.8601 10.6712 13.8476 10.7331C13.6443 11.7498 12.5615 12.2225 11.9341 12.4138C11.8893 12.4273 11.8407 12.4258 11.7967 12.4088L10.8764 12.0542C10.725 12.9112 9.93909 13.5537 9.00004 13.5537Z" fill="#414042"/>
<path fill-rule="evenodd" clip-rule="evenodd" d="M9.51454 2.0555H8.32788C8.21145 2.0555 8.11694 1.96104 8.11694 1.84461C8.11694 1.72817 8.21145 1.63367 8.32788 1.63367H9.51454C9.63093 1.63367 9.72543 1.72817 9.72543 1.84461C9.72543 1.96104 9.63101 2.0555 9.51454 2.0555Z" fill="white"/>
<path fill-rule="evenodd" clip-rule="evenodd" d="M8.9211 2.64892C8.80467 2.64892 8.71021 2.55442 8.71021 2.43798V1.25116C8.71021 1.13473 8.80467 1.04022 8.9211 1.04022C9.03753 1.04022 9.13204 1.13473 9.13204 1.25116V2.43798C9.13204 2.55458 9.03753 2.64892 8.9211 2.64892Z" fill="white"/>
<path fill-rule="evenodd" clip-rule="evenodd" d="M13.4045 18.4998H4.59563V17.2953H2.8717V14.1256C2.8717 13.2512 3.76437 12.9031 4.48152 12.6233L7.2321 11.5637C7.23721 11.5617 7.24236 11.5599 7.24755 11.5583C7.30788 12.4737 8.0693 13.1974 8.99992 13.1974C9.93166 13.1974 10.6938 12.4719 10.7525 11.5549C10.7576 11.5565 10.7627 11.5582 10.7676 11.5602L13.5249 12.623C14.2393 12.8985 15.1281 13.2413 15.1281 14.1192V17.2953H13.4045L13.4045 18.4998Z" fill="#00B2B1"/>
<path fill-rule="evenodd" clip-rule="evenodd" d="M5.01746 18.4998H4.59558V16.715C4.59558 16.5985 4.69009 16.504 4.80652 16.504C4.92295 16.504 5.01746 16.5987 5.01746 16.715V18.4998Z" fill="#46C7C6"/>
<path fill-rule="evenodd" clip-rule="evenodd" d="M2.8717 17.2952V16.8734H4.80657C4.923 16.8734 5.01751 16.968 5.01751 17.0843C5.01751 17.2006 4.92304 17.2952 4.80657 17.2952H2.8717Z" fill="#46C7C6"/>
<path fill-rule="evenodd" clip-rule="evenodd" d="M13.4045 18.4998H12.9827V16.715C12.9827 16.5985 13.0773 16.504 13.1936 16.504C13.3099 16.504 13.4045 16.5987 13.4045 16.715V18.4998Z" fill="#46C7C6"/>
<path fill-rule="evenodd" clip-rule="evenodd" d="M15.1282 16.8734V17.2952H13.1934C13.0771 17.2952 12.9825 17.2006 12.9825 17.0843C12.9825 16.968 13.0771 16.8734 13.1934 16.8734H15.1282Z" fill="#46C7C6"/>
<path fill-rule="evenodd" clip-rule="evenodd" d="M7.64217 18.4998H7.22046V15.8068C7.22046 15.7309 7.26107 15.661 7.32701 15.6235L12.9802 12.413L13.489 12.6091L7.64217 15.9294L7.64217 18.4998Z" fill="#46C7C6"/>
<path fill-rule="evenodd" clip-rule="evenodd" d="M5.16639 12.3594L5.60907 12.1888L8.63711 14.8847C8.72443 14.9617 8.73245 15.0951 8.65542 15.1823C8.61373 15.2293 8.55572 15.2535 8.49742 15.2535C8.44776 15.2535 8.39781 15.236 8.3577 15.2004L5.16639 12.3594Z" fill="#46C7C6"/>
<path fill-rule="evenodd" clip-rule="evenodd" d="M8.63943 16.7782H8.30994C8.19351 16.7782 8.099 16.6836 8.099 16.5673C8.099 16.451 8.19351 16.3564 8.30994 16.3564H8.63943C8.75586 16.3564 8.85032 16.451 8.85032 16.5673C8.85032 16.6836 8.75586 16.7782 8.63943 16.7782Z" fill="#46C7C6"/>
<path fill-rule="evenodd" clip-rule="evenodd" d="M8.63943 17.7393H8.30994C8.19351 17.7393 8.099 17.6448 8.099 17.5284C8.099 17.4121 8.19351 17.3175 8.30994 17.3175H8.63943C8.75586 17.3175 8.85032 17.4121 8.85032 17.5284C8.85032 17.6448 8.75586 17.7393 8.63943 17.7393Z" fill="#46C7C6"/>
<path fill-rule="evenodd" clip-rule="evenodd" d="M6.26276 15.1723H4.72473C4.6083 15.1723 4.51379 15.0777 4.51379 14.9614C4.51379 14.8451 4.6083 14.7505 4.72473 14.7505H6.26276C6.37919 14.7505 6.4737 14.8451 6.4737 14.9614C6.4737 15.0777 6.37923 15.1723 6.26276 15.1723Z" fill="#46C7C6"/>
<path fill-rule="evenodd" clip-rule="evenodd" d="M13.2753 15.1723H11.7373C11.6208 15.1723 11.5264 15.0777 11.5264 14.9614C11.5264 14.8451 11.621 14.7505 11.7373 14.7505H13.2753C13.3917 14.7505 13.4862 14.8451 13.4862 14.9614C13.4862 15.0777 13.3916 15.1723 13.2753 15.1723Z" fill="#46C7C6"/>
<path fill-rule="evenodd" clip-rule="evenodd" d="M4.59563 17.2952H2.8717V18.2888C2.8717 18.4051 2.96621 18.4997 3.08264 18.4997H4.59563V17.2952Z" fill="#FFCFBF"/>
<path fill-rule="evenodd" clip-rule="evenodd" d="M13.4045 17.2952V18.4997H14.9174C15.0338 18.4997 15.1284 18.4052 15.1282 18.2888V17.2952L13.4045 17.2952Z" fill="#FFCFBF"/>
<path fill-rule="evenodd" clip-rule="evenodd" d="M10.7523 11.5577L10.419 10.3143C9.96672 10.723 9.43722 10.7233 8.85642 10.7233C8.36869 10.7233 7.93224 10.8047 7.52988 10.5039L7.24756 11.5584C7.30789 12.4737 8.06931 13.1975 8.99993 13.1975C9.93051 13.1975 10.6918 12.4731 10.7523 11.5577C10.7523 11.5579 10.7521 11.5575 10.7523 11.5577Z" fill="#FFBAAC"/>
<path fill-rule="evenodd" clip-rule="evenodd" d="M8.86331 11.046C7.26039 11.046 5.96973 9.06941 5.96973 7.43293C5.96973 7.35677 5.97267 7.28145 5.97853 7.20687C5.98177 7.16498 5.99742 7.12503 6.02367 7.09206C6.87867 6.01499 7.6405 5.75646 8.31239 5.5285C8.78937 5.36664 9.23977 5.21388 9.70267 4.78179C9.76213 4.72627 9.84842 4.70987 9.92383 4.73977C9.94886 4.74957 9.97378 4.75999 9.99853 4.77054C10.0791 4.80454 10.1302 4.88464 10.1273 4.97213C10.1098 5.47822 11.0331 6.32928 11.6192 6.74671C11.6633 6.77806 11.6936 6.82523 11.704 6.87843C11.7394 7.06063 11.7573 7.24724 11.7573 7.43301C11.757 9.06941 10.4663 11.046 8.86331 11.046Z" fill="#FFCFBF"/>
</g>
<defs>
<clipPath id="clip0_336_268">
<rect width="18" height="18" fill="white" transform="translate(0 0.5)"/>
</clipPath>
</defs>
</svg>
