<svg width="18" height="19" viewBox="0 0 18 19" fill="none" xmlns="http://www.w3.org/2000/svg">
<g clip-path="url(#clip0_336_297)">
<path d="M15.8907 5.6928C15.7789 6.13624 15.4871 6.4867 15.113 6.68541L13.6418 5.57895L13.4838 5.46003L14.1004 3.78489C14.3139 3.7452 14.5389 3.7496 14.7634 3.80618C15.125 3.89736 15.4246 4.1083 15.631 4.38625C15.8995 4.74757 16.0094 5.2219 15.8907 5.6928Z" fill="#E6E6E6"/>
<path d="M15.6309 4.38625C15.1044 3.94309 14.6317 4.51603 14.1578 5.88163L13.4838 5.46003L14.1004 3.78489C14.3139 3.7452 14.5389 3.7496 14.7634 3.80618C15.125 3.89723 15.4246 4.1083 15.6309 4.38625Z" fill="#CCCCCC"/>
<path d="M10.4544 5.05971C9.80059 4.89492 9.13715 5.29139 8.97249 5.94521C8.8077 6.59903 9.20417 7.26247 9.85799 7.42726C10.5118 7.59192 11.1752 7.19545 11.3399 6.54163C11.5047 5.88794 11.1082 5.22437 10.4544 5.05971Z" fill="#CCCCCC"/>
<path d="M13.4239 4.51548C12.2271 4.21404 11.0125 4.93983 10.7111 6.13651C10.4095 7.33319 11.1353 8.54787 12.332 8.8493C13.5288 9.15074 14.7433 8.42509 15.0448 7.22827C15.3463 6.03159 14.6206 4.81705 13.4239 4.51548Z" fill="#FFC48F"/>
<path d="M12.9196 8.91719C12.726 8.92062 12.5289 8.89906 12.3321 8.84935C11.1355 8.54791 10.4096 7.33324 10.7112 6.13655C11.0126 4.94001 12.2273 4.21423 13.424 4.51566C13.6208 4.56524 13.8047 4.63967 13.9734 4.73443C12.9891 4.75173 12.0996 5.42286 11.8476 6.42289C11.5957 7.42319 12.0609 8.43558 12.9196 8.91719Z" fill="#E59A5C"/>
<path d="M13.4552 7.40253C13.4365 7.40253 13.4174 7.4002 13.3985 7.39539C13.2742 7.36422 13.1989 7.23815 13.2302 7.11387L13.2767 6.9293C13.308 6.80515 13.4339 6.7299 13.5582 6.76107C13.6825 6.79238 13.7577 6.91845 13.7264 7.04273L13.68 7.22716C13.6535 7.33236 13.559 7.40253 13.4552 7.40253Z" fill="#3B3D4C"/>
<path d="M14.244 7.6013C14.2253 7.6013 14.2062 7.59897 14.1873 7.5943C14.063 7.56299 13.9877 7.43692 14.0191 7.31277L14.0655 7.1282C14.0968 7.00392 14.2227 6.92866 14.347 6.95997C14.4713 6.99115 14.5465 7.11722 14.5152 7.2415L14.4688 7.42607C14.4423 7.53126 14.3478 7.6013 14.244 7.6013Z" fill="#3B3D4C"/>
<path d="M13.3666 6.37906C12.8844 6.73749 12.3053 6.87276 11.7527 6.80244C11.369 6.75383 10.9985 6.60634 10.6821 6.36588C10.342 5.45758 10.6244 4.3985 11.4415 3.79055C12.128 3.27996 13.0107 3.22269 13.7338 3.56533C13.871 3.63056 14.0027 3.71035 14.1263 3.80387C14.466 4.71203 14.1835 5.77152 13.3666 6.37906Z" fill="#E6E6E6"/>
<path d="M13.7336 3.56533L13.7332 3.5656C13.7332 3.5656 11.3374 4.42295 11.7527 6.80244C11.369 6.75383 10.9985 6.60634 10.6821 6.36588C10.342 5.45758 10.6244 4.3985 11.4415 3.79055C12.128 3.27996 13.0107 3.22269 13.7336 3.56533Z" fill="#CCCCCC"/>
<path d="M13.145 12.1529L14.881 12.4553C15.1509 12.5021 15.3769 12.686 15.478 12.9409L16.5097 15.5463C16.6697 15.9506 16.472 16.4082 16.0677 16.5682C15.9725 16.6061 15.8746 16.6236 15.7779 16.6236C15.4645 16.6236 15.1682 16.4354 15.0457 16.1261L14.1764 13.931H12.3219" fill="#4BC999"/>
<path d="M15.9759 16.5978C15.9102 16.6154 15.8437 16.6237 15.7779 16.6237C15.4645 16.6237 15.1682 16.4352 15.0457 16.126L14.1764 13.9309C14.4166 13.9309 14.6323 14.0776 14.7206 14.3007L15.4434 16.126C15.5395 16.3682 15.7419 16.5363 15.9759 16.5978Z" fill="#3AAF80"/>
<path d="M17.0658 16.8554H13.5632C13.4353 16.8554 13.3313 16.7516 13.3313 16.6236C13.3313 16.4955 13.4353 16.3917 13.5632 16.3917H17.0658C17.1939 16.3917 17.2978 16.4955 17.2978 16.6236C17.2978 16.7516 17.1939 16.8554 17.0658 16.8554Z" fill="#3B3D4C"/>
<path d="M8.97852 12.0008V10.7763C8.97852 9.57333 9.95382 8.59802 11.1568 8.59802C11.7583 8.59802 12.3028 8.84178 12.6971 9.23605C13.0914 9.63032 13.3353 10.1748 13.3353 10.7763V12.793" fill="#E3F4FC"/>
<path d="M11.6544 8.65501C10.691 8.8801 9.76514 9.74431 9.76514 10.7763V12.0779L8.97852 12.0008V10.7763C8.97852 9.57333 9.95382 8.59802 11.1568 8.59802C11.3281 8.59802 11.4948 8.6178 11.6544 8.65501Z" fill="#BDD9E5"/>
<path d="M14.3071 14.9105C14.3071 16.893 12.7 18.5 10.7176 18.5C8.73507 18.5 7.12805 16.893 7.12805 14.9105C7.12805 12.928 8.73507 11.321 10.7176 11.321C12.7 11.321 14.3071 12.928 14.3071 14.9105Z" fill="#3B3D4C"/>
<path d="M13.3971 14.9104C13.3971 16.3903 12.1975 17.5899 10.7176 17.5899C9.23778 17.5899 8.03821 16.3903 8.03821 14.9104C8.03821 13.4306 9.23778 12.231 10.7176 12.231C12.1975 12.231 13.3971 13.4306 13.3971 14.9104Z" fill="#E6E6E6"/>
<path d="M11.2312 14.9105C11.2312 15.194 11.0013 15.4241 10.7176 15.4241C10.434 15.4241 10.204 15.194 10.204 14.9105C10.204 14.6267 10.434 14.3969 10.7176 14.3969C11.0013 14.3969 11.2312 14.6267 11.2312 14.9105Z" fill="#5C5E70"/>
<path d="M10.5531 10.7763V12.3982L11.3751 13.2199C11.6825 13.5274 11.6825 14.0259 11.3751 14.3334C11.2212 14.4872 11.0198 14.564 10.8183 14.564C10.6169 14.564 10.4153 14.4872 10.2616 14.3334L9.20911 13.2809C9.06134 13.1333 8.97839 12.9331 8.97839 12.7242V10.7763" fill="#E3F4FC"/>
<path d="M11.2116 14.4588C11.0904 14.529 10.9543 14.564 10.8182 14.564C10.6167 14.564 10.4151 14.4871 10.2615 14.3334L9.20897 13.2809C9.06134 13.1333 8.97839 12.9329 8.97839 12.7242V10.7763H9.76515V12.7242C9.76515 12.9329 9.84796 13.1333 9.99573 13.2809L11.0482 14.3334C11.0982 14.3835 11.1534 14.4254 11.2116 14.4588Z" fill="#BDD9E5"/>
<path d="M16.0178 17.5618C16.0178 18.08 15.5977 18.5 15.0796 18.5C14.5614 18.5 14.1414 18.08 14.1414 17.5618C14.1414 17.0436 14.5614 16.6237 15.0796 16.6237C15.5977 16.6237 16.0178 17.0436 16.0178 17.5618Z" fill="#5C5E70"/>
<path d="M15.0795 17.7937C14.8797 17.7937 14.7733 17.5457 14.9123 17.4009C14.986 17.3242 15.1073 17.3082 15.1986 17.3629C15.2821 17.4129 15.3267 17.5141 15.3064 17.6094C15.284 17.7151 15.188 17.7937 15.0795 17.7937Z" fill="#3B3D4C"/>
<path d="M3.41905 12.2137L2.67899 14.8425L1.07663 16.0228C0.668493 16.324 0.581427 16.8986 0.88204 17.3064C1.06194 17.5506 1.33989 17.6798 1.62197 17.6798C1.81093 17.6798 2.00154 17.6217 2.16565 17.501L3.92648 16.2031L5.08842 13.3923L4.45355 11.976L3.41905 12.2137Z" fill="#3B3D4C"/>
<path d="M6.74879 8.134V10.9503H2.9397V8.134C2.9397 7.0822 3.79251 6.22925 4.84445 6.22925C5.89625 6.22925 6.74879 7.0822 6.74879 8.134Z" fill="#34ABE0"/>
<path d="M6.53342 2.21947C7.06599 2.62802 7.40917 3.27072 7.40917 3.99375C7.40917 5.22834 6.40859 6.22905 5.17387 6.22905C3.93956 6.22905 2.93884 5.22848 2.93884 3.99375V2.40486L4.3845 1.27203L6.53342 2.21947Z" fill="#FFC48F"/>
<path d="M5.67306 6.17344C5.51252 6.20997 5.34553 6.22919 5.17387 6.22919C3.93956 6.22919 2.93884 5.22861 2.93884 3.99389V2.40486L4.38464 1.27203L5.02349 1.55356L3.93722 2.40486V3.99389C3.93736 5.05695 4.67894 5.94643 5.67306 6.17344Z" fill="#E59A5C"/>
<path d="M2.93884 2.40487V3.9939C3.56808 3.9939 4.07812 3.48373 4.07812 2.85462V2.27949H6.99238C7.03344 2.27949 7.07395 2.27812 7.11433 2.27537C8.24839 2.19874 8.17601 0.500122 7.03934 0.500122H4.84359C3.79165 0.500122 2.93884 1.3528 2.93884 2.40487Z" fill="#F78E39"/>
<path d="M6.08354 0.5C5.07376 0.5 4.24731 1.28607 4.1829 2.27951H4.07826V2.8545C4.07826 3.1694 3.95068 3.45381 3.74441 3.66007C3.53828 3.86634 3.25374 3.99378 2.93884 3.99378V2.40489C2.93884 1.35295 3.79179 0.5 4.84373 0.5H6.08354Z" fill="#E27727"/>
<path d="M5.55379 3.90024C5.40176 3.90024 5.27844 3.77705 5.27844 3.62489V3.10414C5.27844 2.95212 5.40176 2.8288 5.55379 2.8288C5.70595 2.8288 5.82927 2.95212 5.82927 3.10414V3.62489C5.82927 3.77705 5.70595 3.90024 5.55379 3.90024Z" fill="#3B3D4C"/>
<path d="M6.46516 3.90024C6.31314 3.90024 6.18982 3.77705 6.18982 3.62489V3.10414C6.18982 2.95212 6.31314 2.8288 6.46516 2.8288C6.61719 2.8288 6.74051 2.95212 6.74051 3.10414V3.62489C6.74051 3.77705 6.61719 3.90024 6.46516 3.90024Z" fill="#3B3D4C"/>
<path d="M6.74879 10.9503C6.74879 11.4761 6.53551 11.9527 6.19109 12.2971C6.06448 12.4237 5.92014 12.5323 5.76222 12.6194V17.5796C5.76222 18.0866 5.35147 18.4975 4.84445 18.4975C4.33743 18.4975 3.92654 18.0866 3.92654 17.5796V12.6198C3.33836 12.2956 2.9397 11.6696 2.9397 10.9503H6.74879Z" fill="#5C5E70"/>
<path d="M5.17074 6.25713C4.27426 6.41176 3.59201 7.19343 3.59201 8.134V10.9503H2.9397V8.134C2.9397 7.0822 3.79251 6.22925 4.84445 6.22925C4.95568 6.22925 5.065 6.23886 5.17074 6.25713Z" fill="#1895B7"/>
<path d="M5.17074 18.4376C5.06953 18.4761 4.95939 18.4975 4.84445 18.4975C4.33743 18.4975 3.92654 18.0866 3.92654 17.5796V12.6198C3.33836 12.2956 2.9397 11.6696 2.9397 10.9503H3.59201C3.59201 11.6696 3.99081 12.2956 4.57899 12.6198V17.5796C4.57899 17.9717 4.82495 18.3065 5.17074 18.4376Z" fill="#3B3D4C"/>
<path d="M4.80847 10.3319L4.05261 9.3242L4.33482 9.1123L4.80847 9.74415" fill="#1895B7"/>
<path d="M5.99472 8.85455L6.42346 9.42612L7.88587 9.21202C8.38753 9.13869 8.85363 9.48572 8.92696 9.98738C9.0003 10.4889 8.65327 10.955 8.1516 11.0285L6.14935 11.3215C6.10499 11.328 6.0605 11.3311 6.01628 11.3311C5.73008 11.3311 5.45694 11.1971 5.28212 10.9641L4.52612 9.95607" fill="#FFC48F"/>
<path d="M8.15174 11.0284L6.14935 11.3214C6.10486 11.3277 6.0605 11.331 6.01642 11.331C5.73008 11.331 5.45721 11.1969 5.28212 10.9638L4.52612 9.95604L4.80847 9.74414L5.28212 10.376C5.45721 10.6092 5.73008 10.7432 6.01642 10.7432C6.0605 10.7432 6.10486 10.7398 6.14935 10.7332L8.15174 10.4403C8.50454 10.3885 8.78139 10.1421 8.88865 9.82599C8.90581 9.87776 8.91913 9.93132 8.9271 9.98721C9.00057 10.4887 8.65327 10.955 8.15174 11.0284Z" fill="#E59A5C"/>
</g>
<defs>
<clipPath id="clip0_336_297">
<rect width="18" height="18" fill="white" transform="translate(0 0.5)"/>
</clipPath>
</defs>
</svg>
