<svg width="18" height="19" viewBox="0 0 18 19" fill="none" xmlns="http://www.w3.org/2000/svg">
<g clip-path="url(#clip0_336_336)">
<path d="M1.04246 14.1896C0.913925 14.1896 0.808594 14.294 0.808594 14.4214V18.2683C0.808594 18.3957 0.913925 18.5 1.04246 18.5H4.92489C5.05357 18.5 5.15876 18.3957 5.15876 18.2683V14.1896H1.04246Z" fill="#FB8276"/>
<path d="M8.62651 12.6147C8.62651 11.9922 8.80778 11.4257 9.14753 10.9588C8.57542 11.2273 7.93602 11.3102 7.32202 11.2081V12.7711C7.75612 12.8185 8.19557 12.8051 8.62651 12.7313V12.6147Z" fill="#A2F9F9"/>
<path d="M13.9412 10.224C13.4604 10.4524 12.9254 10.5791 12.367 10.5791H11.2776C10.7341 10.5791 10.2199 10.4842 9.75956 10.3053C9.04532 10.8182 8.59131 11.6153 8.59131 12.6148V13.1094L8.73647 13.124L8.7182 13.0711L8.69128 12.9998C8.66629 12.9339 8.66862 12.8621 8.6976 12.798C8.72658 12.7337 8.77904 12.6845 8.84495 12.6595L8.92117 12.6308C8.95125 12.6194 8.9827 12.6137 9.01442 12.6137C9.1236 12.6137 9.22288 12.6823 9.26147 12.7845L9.5522 13.5446L9.55481 13.5482C9.58667 13.5936 9.61482 13.6421 9.63844 13.6922L9.64558 13.7073L9.66165 13.7113C9.89456 13.7702 10.1347 13.8 10.3756 13.8C11.4861 13.8 12.5188 13.1623 13.0067 12.1753C13.1258 11.9343 13.3677 11.7847 13.6381 11.7847C13.7446 11.7847 13.8473 11.8082 13.9437 11.8548C14.1117 11.9361 14.2373 12.0774 14.2976 12.2529C14.3576 12.4277 14.3454 12.6156 14.2633 12.7819C13.9002 13.5166 13.3367 14.1298 12.6339 14.5551C11.9497 14.9691 11.1659 15.188 10.3675 15.188C10.3675 15.188 10.3675 15.188 10.3674 15.188C10.0659 15.188 9.76657 15.1559 9.47337 15.0938V16.5161H10.0944L10.0979 16.485C10.1401 16.1168 10.4543 15.8392 10.8285 15.8392C11.104 15.8392 11.3544 15.9899 11.4817 16.2324L11.5127 16.2917L11.5439 16.2324C11.6712 15.9899 11.9214 15.8392 12.197 15.8392C12.5712 15.8392 12.8853 16.1169 12.9276 16.485L12.9313 16.5161H15.2067V12.5785C15.2067 11.5343 14.7114 10.7229 13.9412 10.224Z" fill="#48E5E1"/>
<path d="M8.73647 13.124L8.7182 13.0711L8.69128 12.9998C8.66629 12.9339 8.66862 12.8621 8.6976 12.798C8.72658 12.7337 8.77904 12.6845 8.84495 12.6595L8.92117 12.6308C8.95125 12.6194 8.9827 12.6137 9.01442 12.6137C9.1236 12.6137 9.22288 12.6823 9.26147 12.7845L9.5522 13.5446L9.55481 13.5482C9.58667 13.5936 9.61482 13.6421 9.63844 13.6922L9.64558 13.7073L9.66165 13.7113C9.67579 13.715 9.69021 13.7181 9.70436 13.7215V12.6148C9.70436 11.7497 10.0447 11.0363 10.5992 10.5275C10.3046 10.4825 10.0232 10.4077 9.75956 10.3053C9.04532 10.8182 8.59131 11.6154 8.59131 12.6148V13.1094L8.73647 13.124Z" fill="#41CECA"/>
<path d="M11.4612 16.5679C11.4612 16.4565 11.4873 16.3513 11.5326 16.2569C11.4123 15.99 11.1425 15.8041 10.8285 15.8041C10.4325 15.8041 10.1067 16.1002 10.0631 16.4808H9.47337V18.2682C9.47337 18.3957 9.36804 18.5 9.2395 18.5H10.8811V18.4974C11.1725 18.4779 11.419 18.2978 11.5323 18.046C11.4872 17.9516 11.4612 17.8467 11.4612 17.7362V16.5679Z" fill="#A2F9F9"/>
<path d="M12.1444 18.4974V18.5H15.269C15.8317 18.5 16.2879 18.048 16.2879 17.4903C16.2879 16.9329 15.8317 16.4808 15.269 16.4808H12.9626C12.9188 16.1002 12.593 15.8041 12.197 15.8041C11.7713 15.8041 11.426 16.146 11.426 16.5679V17.7362C11.426 18.1405 11.7433 18.4705 12.1444 18.4974Z" fill="#A2F9F9"/>
<path d="M12.5293 17.7362V16.5679C12.5293 16.3607 12.6131 16.1728 12.7484 16.0352C12.6084 15.8929 12.4134 15.8041 12.197 15.8041C11.7713 15.8041 11.426 16.1462 11.426 16.5679V17.7362C11.426 18.1405 11.7433 18.4706 12.1444 18.4974V18.5H13.2478V18.4974C12.8467 18.4705 12.5293 18.1405 12.5293 17.7362Z" fill="#91E0E0"/>
<path d="M12.3671 10.5791H11.2776C11.1076 10.5791 10.9409 10.5691 10.7773 10.551V10.5817C10.7773 11.0639 11.1719 11.4549 11.6584 11.4549C12.1451 11.4549 12.5397 11.0639 12.5397 10.5817V10.5747C12.4823 10.5775 12.4249 10.5791 12.3671 10.5791Z" fill="#FFC987"/>
<path d="M16.0779 4.96646C16.073 4.96646 16.068 4.96687 16.0631 4.96687V4.45175C16.0631 4.41247 16.0623 4.37333 16.061 4.33433C15.9825 4.39668 15.8934 4.44626 15.7938 4.48155C15.5737 4.55942 15.3586 4.59883 15.1548 4.59883C15.1548 4.59883 15.1548 4.59883 15.1547 4.59883C14.0478 4.59883 13.547 3.43414 13.542 3.42233L13.5088 3.34296L13.4769 3.42288C13.4709 3.43799 12.8637 4.93309 11.8498 4.93309C11.7386 4.93309 11.6246 4.91482 11.5113 4.87912C11.0305 4.72764 10.8717 4.36194 11.0389 3.7923L10.9749 3.76428C10.6633 4.28435 10.1853 4.90439 9.67785 4.90439C9.61853 4.90439 9.55934 4.89587 9.50166 4.87898C9.31283 4.82377 9.17756 4.71364 9.09984 4.55159C8.97308 4.2875 9.00371 3.88568 9.18388 3.44925L9.11975 3.42068C8.6998 4.30137 8.25279 4.72943 7.75333 4.72943C7.69702 4.72943 7.63962 4.72366 7.58167 4.71226V6.93163C7.58167 9.32308 9.23634 10.6142 11.2775 10.6142H12.3669C14.0809 10.6142 15.5216 9.45189 15.94 7.87549C15.9852 7.88236 16.0312 7.88634 16.0779 7.88634C16.7109 7.88634 17.2239 7.23266 17.2239 6.4264C17.2239 5.62014 16.7109 4.96646 16.0779 4.96646Z" fill="#FFD5B3"/>
<path d="M8.69032 6.93163V4.45175C8.69032 4.34395 8.69526 4.23724 8.70433 4.13177C8.40619 4.5325 8.09184 4.72943 7.75333 4.72943C7.69702 4.72943 7.63962 4.72366 7.58167 4.71226V6.93163C7.58167 9.32308 9.23634 10.6142 11.2776 10.6142H12.367C12.3691 10.6142 12.371 10.6141 12.3731 10.6141C10.338 10.6086 8.69032 9.318 8.69032 6.93163Z" fill="#E5BFA1"/>
<path d="M13.2013 6.88069C13.0556 6.88069 12.9376 6.76272 12.9376 6.61702V6.17139C12.9376 6.02582 13.0556 5.90771 13.2013 5.90771C13.3469 5.90771 13.465 6.02582 13.465 6.17139V6.61702C13.465 6.76272 13.3469 6.88069 13.2013 6.88069Z" fill="#775436"/>
<path d="M9.18774 6.88069C9.04218 6.88069 8.92407 6.76272 8.92407 6.61702V6.17139C8.92407 6.02582 9.04218 5.90771 9.18774 5.90771C9.33345 5.90771 9.45142 6.02582 9.45142 6.17139V6.61702C9.45142 6.76272 9.33345 6.88069 9.18774 6.88069Z" fill="#775436"/>
<path d="M11.3706 7.27167H11.1944C10.952 7.27167 10.7546 7.07213 10.7546 6.82699V6.4845C10.7546 6.33879 10.8726 6.22083 11.0183 6.22083C11.164 6.22083 11.282 6.33879 11.282 6.4845V6.74432H11.3706C11.5161 6.74432 11.6342 6.86243 11.6342 7.00799C11.6342 7.1537 11.5161 7.27167 11.3706 7.27167Z" fill="#775436"/>
<path d="M11.2558 9.44546C10.5699 9.44546 10.012 8.89258 10.012 8.21307C10.012 8.08508 10.1167 7.98126 10.2458 7.98126H12.2657C12.3949 7.98126 12.4995 8.08508 12.4995 8.21307C12.4995 8.89271 11.9416 9.44546 11.2558 9.44546Z" fill="#FB8276"/>
<path d="M11.1283 8.21306C11.1283 8.08507 11.233 7.98138 11.3622 7.98138H10.2458C10.1166 7.98138 10.012 8.08507 10.012 8.21306C10.012 8.8927 10.5699 9.44545 11.2558 9.44545C11.4564 9.44545 11.6459 9.39793 11.8139 9.31402C11.4078 9.11091 11.1283 8.69385 11.1283 8.21306Z" fill="#E1756A"/>
<path d="M12.2949 0.5H11.1165C8.90835 0.5 7.11841 2.28349 7.11841 4.4835V4.5431C7.19202 4.59954 7.27853 4.64898 7.38043 4.68922C8.22761 5.02512 8.80014 4.17272 9.15142 3.43595C8.88981 4.06945 8.89846 4.73948 9.49186 4.91279C10.0642 5.07992 10.6138 4.43529 11.0051 3.78243C10.8711 4.23891 10.9006 4.72355 11.5007 4.91279C12.7634 5.3109 13.5097 3.43595 13.5097 3.43595C13.5097 3.43595 14.1984 5.08335 15.8056 4.51467C16.0136 4.44093 16.1674 4.31458 16.2782 4.15089C16.1084 2.10661 14.3905 0.5 12.2949 0.5Z" fill="#F7931E"/>
<path d="M8.22267 4.5431V4.4835C8.22267 2.28349 10.0126 0.5 12.2207 0.5H11.1165C8.90835 0.5 7.11841 2.28349 7.11841 4.4835V4.5431C7.19202 4.59954 7.27853 4.64898 7.38043 4.68922C7.72925 4.82751 8.03137 4.76406 8.29078 4.59048C8.26716 4.57523 8.24409 4.55958 8.22267 4.5431Z" fill="#DE841B"/>
<path d="M6.44508 9.91446V9.61481C6.44508 9.33328 6.21464 9.10504 5.93051 9.10504H4.43376C4.14949 9.10504 3.91919 9.33328 3.91919 9.61481V9.91446H6.44508Z" fill="#89C947"/>
<path d="M5.04173 9.91446V9.61481C5.04173 9.33328 5.27203 9.10504 5.55616 9.10504H4.43364C4.14951 9.10504 3.91907 9.33328 3.91907 9.61481V9.91446H5.04173Z" fill="#7BB540"/>
<path d="M7.35725 13.9579C7.35725 14.0854 7.25191 14.1896 7.12337 14.1896H3.24095C3.11227 14.1896 3.00708 14.0854 3.00708 13.9579V10.1111C3.00708 9.98364 3.11227 9.87927 3.24095 9.87927H7.12337C7.25191 9.87927 7.35725 9.98364 7.35725 10.1111V13.9579Z" fill="#D5E962"/>
<path d="M5.79579 13.0966C5.77464 13.0966 5.75336 13.0917 5.73386 13.0814L5.18207 12.7956L4.63028 13.0814C4.61078 13.0917 4.5895 13.0966 4.56835 13.0966C4.54075 13.0966 4.51342 13.0882 4.49007 13.0715C4.44901 13.0422 4.42855 12.9924 4.4372 12.9431L4.54253 12.3376L4.09607 11.9087C4.05982 11.874 4.04677 11.8216 4.06243 11.7743C4.07808 11.7267 4.11969 11.692 4.16982 11.6847L4.78684 11.5966L5.06273 11.0456C5.08512 11.0008 5.13153 10.9725 5.18207 10.9725C5.23275 10.9725 5.27902 11.0008 5.30155 11.0456L5.57744 11.5966L6.19432 11.6847C6.24445 11.692 6.28606 11.7267 6.30171 11.7743C6.31751 11.8218 6.30446 11.874 6.26807 11.9087L5.82175 12.3376L5.92708 12.9431C5.93573 12.9924 5.91513 13.0422 5.87421 13.0715C5.851 13.0882 5.8234 13.0966 5.79579 13.0966Z" fill="#89C947"/>
<path d="M1.66868 18.2682V14.4213C1.66868 14.2939 1.77388 14.1896 1.90256 14.1896H1.04246C0.913925 14.1896 0.808594 14.2939 0.808594 14.4213V18.2682C0.808594 18.3957 0.913925 18.5 1.04246 18.5H1.90256C1.77388 18.5 1.66868 18.3957 1.66868 18.2682Z" fill="#E1756A"/>
<path d="M2.98358 17.3404C2.95447 17.3404 2.92659 17.3291 2.90599 17.3089L1.9337 16.3581C1.69804 16.1275 1.69804 15.7527 1.9337 15.5223C2.04782 15.4108 2.19957 15.3492 2.36093 15.3492C2.52229 15.3492 2.67404 15.4108 2.78816 15.5224L2.98358 15.7136L3.17914 15.5224C3.29326 15.4108 3.445 15.3492 3.60637 15.3492C3.76773 15.3492 3.91948 15.4108 4.0336 15.5223C4.26925 15.7527 4.26925 16.1276 4.0336 16.3581L3.06131 17.3088C3.04071 17.329 3.01283 17.3404 2.98358 17.3404Z" fill="#EF5050"/>
<path d="M9.09164 14.9952L9.08079 14.9918L9.06994 14.9955C8.96749 15.03 8.86065 15.0474 8.75243 15.0474C8.71879 15.0474 8.68473 15.0457 8.65122 15.0423L7.75117 14.9518C7.61837 14.9384 7.52114 14.8194 7.53446 14.6866L7.54202 14.6115C7.55451 14.4872 7.65792 14.3936 7.78262 14.3936C7.79072 14.3936 7.79896 14.394 7.8072 14.3948L8.49233 14.4637L8.50428 14.3454L7.67578 14.262C7.61837 14.2562 7.56605 14.2307 7.52636 14.1896H5.15881V18.2682C5.15881 18.3957 5.26401 18.5 5.39268 18.5H9.27511C9.40365 18.5 9.50884 18.3957 9.50884 18.2682V15.1012C9.36835 15.0727 9.22897 15.0378 9.09164 14.9952Z" fill="#FFC502"/>
<path d="M6.12561 18.2682V14.1896H5.15881V18.2683C5.15881 18.3957 5.26401 18.5 5.39268 18.5H6.35948C6.2308 18.5 6.12561 18.3957 6.12561 18.2682Z" fill="#E5B102"/>
<path d="M6.99484 17.3279C6.86616 17.3279 6.70837 17.2377 6.6441 17.1273L6.30504 16.5455C6.24077 16.4351 6.24077 16.2545 6.30504 16.1441L6.6441 15.5624C6.70837 15.452 6.86616 15.3618 6.99484 15.3618H7.6727C7.80137 15.3618 7.9593 15.452 8.02357 15.5624L8.3625 16.1441C8.42691 16.2545 8.42691 16.4351 8.3625 16.5455L8.02357 17.1273C7.9593 17.2377 7.80137 17.3279 7.6727 17.3279H6.99484Z" fill="#FCDB67"/>
<path d="M3.93597 13.9579V10.1111C3.93597 9.98364 4.04117 9.87927 4.16984 9.87927H3.24095C3.11227 9.87927 3.00708 9.98364 3.00708 10.1111V13.9579C3.00708 14.0854 3.11227 14.1896 3.24095 14.1896H4.16984C4.04117 14.1896 3.93597 14.0854 3.93597 13.9579Z" fill="#BFD158"/>
<path d="M16.0549 7.26947C15.9611 7.26947 15.8703 7.21935 15.8227 7.13104C15.7534 7.00292 15.8011 6.84307 15.9292 6.77371C16.2278 6.61235 16.0541 6.20092 16.0465 6.18347C15.9887 6.04985 16.0502 5.89467 16.1838 5.83686C16.3174 5.77904 16.4728 5.84056 16.5304 5.97419C16.5398 5.99547 16.6209 6.18965 16.628 6.43025C16.6387 6.78909 16.4795 7.07584 16.1798 7.23775C16.1402 7.25931 16.0972 7.26947 16.0549 7.26947Z" fill="#FFB98A"/>
<path d="M13.9589 11.823C13.5945 11.647 13.154 11.7976 12.9751 12.1596C12.356 13.4121 10.9318 14.0189 9.62456 13.666C9.70599 13.8267 9.74142 14.0071 9.72343 14.1867C9.6832 14.5862 9.39934 14.9057 9.02319 15.0106C11.0533 15.6707 13.3263 14.7567 14.2947 12.7974C14.4736 12.4354 14.3233 11.9992 13.9589 11.823Z" fill="#A2F9F9"/>
<path d="M7.49941 14.6832L7.5071 14.608C7.52234 14.4557 7.6583 14.3446 7.81073 14.3598L8.46085 14.4252L8.46579 14.3768L7.67217 14.2969C7.51987 14.2817 7.40877 14.1457 7.42415 13.9934L7.43171 13.9182C7.44695 13.7659 7.5829 13.6548 7.73534 13.67L8.52883 13.7499L8.53377 13.7014L7.88352 13.6361C7.73108 13.6208 7.61998 13.4849 7.63536 13.3324L7.64292 13.2572C7.6583 13.1049 7.79425 12.9938 7.94655 13.009L8.68346 13.0833L8.68524 13.0835L8.65833 13.0122C8.59996 12.8576 8.67796 12.6849 8.83246 12.6266L8.90881 12.5977C9.06345 12.5394 9.23593 12.6174 9.29443 12.772L9.58351 13.5279C9.71521 13.7153 9.78277 13.947 9.75847 14.1902C9.7034 14.7364 9.20613 15.1335 8.64761 15.0772L7.74756 14.9867C7.59526 14.9715 7.48416 14.8355 7.49941 14.6832Z" fill="#FFD5B3"/>
</g>
<defs>
<clipPath id="clip0_336_336">
<rect width="18" height="18" fill="white" transform="translate(0 0.5)"/>
</clipPath>
</defs>
</svg>
