<svg width="18" height="19" viewBox="0 0 18 19" fill="none" xmlns="http://www.w3.org/2000/svg">
<g clip-path="url(#clip0_336_182)">
<path d="M0.0321587 4.66382L1.92241 2.17071C1.97521 2.10103 2.07453 2.08739 2.14417 2.14019L17.9373 14.1144C18.007 14.1672 18.0207 14.2665 17.9679 14.3362L16.0776 16.8293C16.0248 16.899 15.9255 16.9126 15.8558 16.8598L0.0626744 4.88558C-0.00700542 4.83278 -0.0206461 4.7335 0.0321587 4.66382Z" fill="#FBD65F"/>
<path d="M1.1206 3.22827L0.0321587 4.66384C-0.0206461 4.73352 -0.00700542 4.83281 0.0626744 4.88561L15.8558 16.8598C15.9255 16.9126 16.0248 16.8989 16.0776 16.8293L17.1661 15.3937L1.1206 3.22827Z" fill="#EFB533"/>
<path d="M3.52601 4.75326C3.4249 4.67553 3.32273 4.68727 3.22992 4.80786L2.86841 5.27797C2.77563 5.39856 2.7905 5.50037 2.89337 5.57954C3.03529 5.68867 3.1274 5.58728 3.1859 5.5222C3.24173 5.46064 3.31567 5.48926 3.38661 5.54386C3.48241 5.61747 3.50769 5.67643 3.42581 5.78285C3.24437 6.01882 2.94909 6.0063 2.69544 5.81122C2.46306 5.63252 2.35699 5.37029 2.59162 5.06513L2.95317 4.59506C3.18784 4.2899 3.46853 4.32509 3.70087 4.50383C3.95456 4.69891 4.04797 4.97394 3.87465 5.19926C3.79277 5.30567 3.72939 5.29643 3.63534 5.22411C3.56085 5.16681 3.51553 5.10089 3.56109 5.03434C3.59484 4.98684 3.67683 4.86924 3.52601 4.75326Z" fill="#135370"/>
<path d="M4.37277 5.15321C4.40691 5.10891 4.47061 5.09576 4.52204 5.13531L4.88929 5.41769C5.13229 5.60461 5.25611 5.84378 5.03374 6.13294C4.88092 6.33165 4.70313 6.37559 4.54212 6.32796L4.45704 6.88645C4.45595 6.90255 4.44818 6.91633 4.44133 6.92523C4.38813 6.99438 4.23861 6.99796 4.15702 6.93521C4.12151 6.90793 4.09873 6.86778 4.10787 6.81554L4.22772 6.15674L4.11061 6.06674L3.78183 6.49424C3.7382 6.55102 3.64718 6.5262 3.57799 6.47301C3.50877 6.41978 3.46145 6.33822 3.50511 6.28148L4.37277 5.15321ZM4.52809 5.52393L4.27433 5.85387L4.44997 5.98891C4.54929 6.06534 4.64101 6.07093 4.7365 5.94672C4.83198 5.82258 4.80305 5.73536 4.70373 5.65897L4.52809 5.52393Z" fill="#135370"/>
<path d="M5.55922 6.06573C5.60429 6.00716 5.69254 6.03557 5.76172 6.08876C5.83095 6.14199 5.88101 6.22003 5.83601 6.2786L4.96835 7.40684C4.92472 7.46362 4.8337 7.43876 4.76451 7.38557C4.69529 7.33234 4.64797 7.25078 4.69164 7.19404L5.55922 6.06573Z" fill="#135370"/>
<path d="M6.22316 7.77601C6.17011 7.79728 6.12508 7.78244 6.09136 7.75646C6.05944 7.73189 6.03392 7.69536 6.04401 7.6382L6.11288 7.1999L5.58764 7.88288C5.54398 7.93966 5.45296 7.9148 5.38381 7.86165C5.31458 7.80842 5.26723 7.72686 5.31089 7.67008L6.13626 6.59679C6.21399 6.49572 6.31186 6.51168 6.38102 6.56487C6.48037 6.6413 6.51475 6.68465 6.48926 6.86831L6.4264 7.32812L6.85468 7.14935C7.02564 7.07756 7.07641 7.09963 7.17572 7.17603C7.2467 7.23063 7.28545 7.31971 7.20768 7.42082L6.38235 8.49404C6.33869 8.55082 6.24767 8.526 6.17845 8.47281C6.10929 8.41958 6.06194 8.33798 6.10557 8.28124L6.61716 7.61598L6.22316 7.77601Z" fill="#135370"/>
<path d="M11.3733 11.2652L11.6394 11.4699C11.6927 11.5108 11.6832 11.5854 11.6396 11.6422C11.6027 11.6901 11.5343 11.7278 11.4757 11.6828L11.2096 11.4781L10.9777 11.7797L11.4531 12.1453C11.5063 12.1862 11.4928 12.2662 11.4423 12.3318C11.3987 12.3886 11.3261 12.4316 11.2676 12.3866L10.636 11.9009C10.5757 11.8545 10.5372 11.7798 10.5809 11.723L11.4472 10.5965C11.4908 10.5397 11.573 10.5577 11.6333 10.6041L12.2648 11.0898C12.3234 11.1348 12.3004 11.216 12.2568 11.2728C12.2063 11.3383 12.1325 11.3719 12.0793 11.331L11.6039 10.9654L11.3733 11.2652Z" fill="#135370"/>
<path d="M12.293 13.0566L12.4279 12.1836L11.9641 12.7867C11.9205 12.8435 11.8295 12.8187 11.7602 12.7655C11.691 12.7123 11.6437 12.6307 11.6874 12.5739L12.5536 11.4475C12.5987 11.3889 12.6883 11.4155 12.7575 11.4687C12.8568 11.5451 12.8873 11.5826 12.8551 11.7639L12.721 12.5331L13.1848 11.9299C13.2298 11.8714 13.3181 11.8998 13.3873 11.953C13.4564 12.0062 13.5066 12.0842 13.4615 12.1428L12.5939 13.271C12.5502 13.3278 12.4592 13.303 12.39 13.2498C12.3261 13.2007 12.2789 13.1446 12.293 13.0566Z" fill="#135370"/>
<path d="M13.7289 13.0767L13.995 13.2814C14.0482 13.3223 14.0388 13.3969 13.9952 13.4537C13.9583 13.5016 13.8898 13.5393 13.8313 13.4943L13.5652 13.2896L13.3333 13.5912L13.8087 13.9568C13.8619 13.9977 13.8484 14.0777 13.7979 14.1433C13.7543 14.2001 13.6817 14.2431 13.6231 14.198L12.9916 13.7124C12.9313 13.666 12.8928 13.5913 12.9365 13.5345L13.8027 12.408C13.8464 12.3512 13.9285 12.3693 13.9888 12.4156L14.6204 12.9013C14.6789 12.9463 14.656 13.0275 14.6123 13.0843C14.5618 13.1499 14.488 13.1835 14.4348 13.1426L13.9594 12.7769L13.7289 13.0767Z" fill="#135370"/>
<path d="M0.0626744 14.1144L15.8558 2.14025C15.9255 2.08745 16.0248 2.10109 16.0776 2.17077L17.9679 4.66388C18.0207 4.73356 18.007 4.83284 17.9373 4.88564L2.14417 16.8598C2.0745 16.9126 1.97521 16.8989 1.92241 16.8293L0.0321587 14.3362C-0.0206461 14.2665 -0.00700542 14.1672 0.0626744 14.1144Z" fill="#FBD65F"/>
<path d="M16.8808 3.23004L0.835327 15.3955L1.9224 16.8293C1.9752 16.899 2.07452 16.9126 2.14416 16.8598L17.9373 4.88562C18.007 4.83282 18.0206 4.7335 17.9678 4.66386L16.8808 3.23004Z" fill="#EFB533"/>
<path d="M3.14882 13.2063C3.04648 13.2825 3.02996 13.384 3.12073 13.506L3.47465 13.9819C3.56543 14.104 3.66742 14.1174 3.77162 14.04C3.91527 13.9331 3.84277 13.8169 3.79609 13.7429C3.75207 13.6724 3.79974 13.609 3.8716 13.5557C3.96853 13.4835 4.03213 13.4753 4.11225 13.583C4.28989 13.8218 4.19747 14.1025 3.94069 14.2935C3.70545 14.4685 3.42427 14.4991 3.19453 14.1903L2.84064 13.7144C2.61093 13.4055 2.72118 13.145 2.95645 12.9701C3.21323 12.7791 3.50331 12.7641 3.6729 12.9922C3.75302 13.1 3.72686 13.1585 3.63166 13.2292C3.55625 13.2853 3.48049 13.311 3.42884 13.249C3.39228 13.2037 3.30147 13.0928 3.14882 13.2063Z" fill="#135370"/>
<path d="M3.76422 12.5004C3.73089 12.4555 3.7356 12.3906 3.78767 12.3519L4.15937 12.0754C4.4054 11.8925 4.66925 11.8385 4.88693 12.1312C5.03652 12.3323 5.03041 12.5154 4.94076 12.6573L5.45499 12.8912C5.47018 12.8967 5.48132 12.9079 5.48804 12.9169C5.5401 12.9869 5.5028 13.1318 5.42025 13.1932C5.38436 13.2199 5.3395 13.2309 5.29172 13.2079L4.69045 12.9131L4.57197 13.0013L4.89379 13.4341C4.93654 13.4915 4.88788 13.5723 4.81785 13.6244C4.74782 13.6765 4.65645 13.6999 4.6137 13.6424L3.76422 12.5004ZM4.16324 12.4519L4.41166 12.7858L4.58941 12.6536C4.69002 12.5789 4.72033 12.4922 4.62681 12.3664C4.53337 12.2407 4.44157 12.2449 4.34103 12.3196L4.16324 12.4519Z" fill="#135370"/>
<path d="M4.96523 11.6072C4.92115 11.5479 4.97251 11.4707 5.04251 11.4187C5.11254 11.3666 5.20131 11.3396 5.24539 11.3989L6.09477 12.541C6.13752 12.5984 6.08883 12.6792 6.0188 12.7313C5.94873 12.7834 5.8574 12.8067 5.81465 12.7493L4.96523 11.6072Z" fill="#135370"/>
<path d="M6.79177 11.4341C6.79778 11.4909 6.77124 11.5302 6.73711 11.5556C6.70476 11.5796 6.66268 11.5942 6.6104 11.5689L6.20741 11.3833L6.72157 12.0747C6.76428 12.1322 6.71562 12.213 6.64563 12.2651C6.57556 12.3172 6.48419 12.3405 6.44148 12.2831L5.63344 11.1967C5.55733 11.0943 5.59934 11.0045 5.66934 10.9524C5.76992 10.8777 5.821 10.8564 5.99077 10.9309L6.41609 11.1165L6.36069 10.6558C6.33815 10.4717 6.37324 10.4289 6.47378 10.3541C6.54564 10.3007 6.6419 10.2877 6.71805 10.39L7.52601 11.4764C7.56873 11.5338 7.52007 11.6147 7.45008 11.6668C7.38001 11.7189 7.28864 11.7422 7.24589 11.6848L6.74505 11.0114L6.79177 11.4341Z" fill="#135370"/>
<path d="M7.64841 10.3312L7.91777 10.1309C7.97167 10.0909 8.04089 10.1202 8.08364 10.1777C8.11971 10.2261 8.13732 10.3023 8.07809 10.3464L7.80872 10.5467L8.03572 10.852L8.51701 10.4941C8.57087 10.454 8.64414 10.4888 8.6935 10.5552C8.73621 10.6127 8.75783 10.6942 8.6986 10.7383L8.05931 11.2137C7.99832 11.2591 7.91587 11.2758 7.87316 11.2184L7.02508 10.0781C6.98233 10.0206 7.02203 9.94647 7.08309 9.90104L7.72237 9.42562C7.78165 9.38157 7.85351 9.4257 7.89626 9.48318C7.94565 9.54959 7.95785 9.62978 7.90399 9.66982L7.42274 10.0277L7.64841 10.3312Z" fill="#135370"/>
<path d="M9.84563 9.3386C9.68405 9.12129 9.14282 9.58237 8.83031 9.16222C8.62996 8.89285 8.78911 8.61554 9.01355 8.44858C9.10871 8.37781 9.38424 8.20076 9.4884 8.34082C9.52444 8.38927 9.56561 8.51211 9.48661 8.57085C9.42196 8.61891 9.33709 8.57613 9.18982 8.68557C9.06234 8.78038 9.04898 8.87119 9.0904 8.92684C9.22396 9.10646 9.76779 8.64897 10.1043 9.10147C10.2967 9.36008 10.2123 9.64031 9.95194 9.83402C9.71671 10.009 9.4337 10.0409 9.34553 9.9224C9.30011 9.86137 9.28724 9.7315 9.35548 9.68074C9.43985 9.61795 9.59257 9.7108 9.7596 9.58659C9.84218 9.52521 9.90972 9.4248 9.84563 9.3386Z" fill="#135370"/>
<path d="M10.3109 7.87966C10.2086 7.95581 10.1921 8.05738 10.2828 8.17941L10.6368 8.65532C10.7276 8.77738 10.8295 8.79081 10.9338 8.71336C11.0774 8.60652 11.0049 8.49029 10.9582 8.41625C10.9142 8.3458 10.9618 8.28245 11.0337 8.22901C11.1307 8.15691 11.1943 8.14868 11.2744 8.2564C11.452 8.49522 11.3596 8.7759 11.1028 8.96691C10.8676 9.14185 10.5864 9.1725 10.3566 8.86362L10.0027 8.38774C9.77303 8.07889 9.88332 7.81842 10.1185 7.64345C10.3753 7.45248 10.6654 7.43754 10.8351 7.6656C10.9152 7.77328 10.889 7.83182 10.7938 7.90262C10.7184 7.95869 10.6426 7.98439 10.5909 7.92241C10.5545 7.8771 10.4636 7.76614 10.3109 7.87966Z" fill="#135370"/>
<path d="M11.5514 7.4284L11.8208 7.22808C11.8747 7.18804 11.9439 7.2174 11.9866 7.27484C12.0227 7.32332 12.0403 7.39947 11.9811 7.44356L11.7117 7.64388L11.9387 7.94914L12.42 7.59128C12.4739 7.55121 12.5471 7.58598 12.5965 7.65239C12.6392 7.70987 12.6608 7.79139 12.6016 7.83548L11.9623 8.3109C11.9013 8.35632 11.8189 8.37302 11.7761 8.31557L10.928 7.17528C10.8853 7.11783 10.925 7.04369 10.986 6.99827L11.6253 6.52285C11.6846 6.4788 11.7565 6.52295 11.7992 6.5804C11.8486 6.64681 11.8608 6.727 11.8069 6.76704L11.3257 7.12497L11.5514 7.4284Z" fill="#135370"/>
<path d="M13.5255 7.03128L12.7222 6.66372L13.1763 7.27421C13.219 7.33165 13.1704 7.41251 13.1004 7.46461C13.0303 7.51668 12.9389 7.54006 12.8962 7.48258L12.0481 6.34228C12.004 6.28301 12.054 6.20401 12.124 6.15191C12.2246 6.0771 12.269 6.05805 12.4347 6.13838L13.1383 6.4769L12.6842 5.86637C12.6401 5.8071 12.6915 5.7299 12.7615 5.67779C12.8316 5.62573 12.9203 5.59876 12.9643 5.65804L13.8138 6.80009C13.8565 6.85757 13.8078 6.93839 13.7378 6.9905C13.6731 7.03852 13.6063 7.06872 13.5255 7.03128Z" fill="#135370"/>
<path d="M13.9357 5.65513L14.2051 5.45481C14.259 5.41473 14.3282 5.44409 14.3709 5.50157C14.407 5.55009 14.4247 5.62623 14.3654 5.67029L14.096 5.87061L14.3231 6.17587L14.8043 5.81794C14.8582 5.77786 14.9315 5.81263 14.9809 5.87908C15.0236 5.93652 15.0452 6.01809 14.9859 6.06217L14.3467 6.53763C14.2857 6.58305 14.2032 6.59968 14.1605 6.5422L13.3124 5.40194C13.2697 5.34449 13.3094 5.27031 13.3704 5.22496L14.0097 4.74947C14.0689 4.70542 14.1408 4.74958 14.1836 4.80702C14.2329 4.87347 14.2451 4.95366 14.1913 4.9937L13.71 5.35166L13.9357 5.65513Z" fill="#135370"/>
<path d="M2.11572 4.53221C2.2548 4.53221 2.36754 4.41947 2.36754 4.28039C2.36754 4.14131 2.2548 4.02856 2.11572 4.02856C1.97664 4.02856 1.86389 4.14131 1.86389 4.28039C1.86389 4.41947 1.97664 4.53221 2.11572 4.53221Z" fill="#135370"/>
<path d="M15.7823 14.8942C15.9214 14.8942 16.0342 14.7815 16.0342 14.6424C16.0342 14.5033 15.9214 14.3906 15.7823 14.3906C15.6433 14.3906 15.5305 14.5033 15.5305 14.6424C15.5305 14.7815 15.6433 14.8942 15.7823 14.8942Z" fill="#135370"/>
<path d="M2.10461 14.8794C2.24369 14.8794 2.35643 14.7667 2.35643 14.6276C2.35643 14.4885 2.24369 14.3758 2.10461 14.3758C1.96553 14.3758 1.85278 14.4885 1.85278 14.6276C1.85278 14.7667 1.96553 14.8794 2.10461 14.8794Z" fill="#135370"/>
<path d="M15.7937 4.54735C15.9328 4.54735 16.0455 4.4346 16.0455 4.29553C16.0455 4.15645 15.9328 4.0437 15.7937 4.0437C15.6546 4.0437 15.5419 4.15645 15.5419 4.29553C15.5419 4.4346 15.6546 4.54735 15.7937 4.54735Z" fill="#135370"/>
<path d="M6.78034 8.93564L6.83634 8.9787L7.21846 8.68898L7.35388 8.51288L7.40194 8.54987L7.62377 8.38168L7.51756 8.30001L7.74812 8.0002L7.93617 8.1448L8.18757 7.95418L7.77758 7.63883C7.71725 7.59246 7.63513 7.57446 7.59146 7.63123L6.72514 8.75775C6.68151 8.81456 6.72001 8.88934 6.78034 8.93564Z" fill="#135370"/>
<path d="M10.4621 10.9851C10.3911 10.9305 10.3172 10.9019 10.2614 10.9635C10.2028 11.0285 10.1107 11.13 9.96885 11.0208C9.94709 11.004 9.92951 10.9862 9.9158 10.9675L9.6665 11.1565C9.6972 11.1906 9.73225 11.2227 9.77092 11.2525C10.0246 11.4475 10.3199 11.4601 10.5013 11.2241C10.5831 11.1178 10.5579 11.0588 10.4621 10.9851Z" fill="#135370"/>
<path d="M10.683 10.3858C10.6725 10.4243 10.6505 10.456 10.6365 10.4756C10.591 10.5422 10.6363 10.6081 10.7108 10.6654C10.8048 10.7377 10.8683 10.747 10.9501 10.6406C11.0648 10.4914 11.0621 10.3205 10.9739 10.1653L10.683 10.3858Z" fill="#135370"/>
</g>
<defs>
<clipPath id="clip0_336_182">
<rect width="18" height="18" fill="white" transform="translate(0 0.5)"/>
</clipPath>
</defs>
</svg>
