<svg width="18" height="17" viewBox="0 0 18 17" fill="none" xmlns="http://www.w3.org/2000/svg">
<path d="M15.4688 9.625H14.9062V7.65625C14.9062 6.98492 14.6396 6.34109 14.1649 5.86639C13.6902 5.39168 13.0463 5.125 12.375 5.125C11.7037 5.125 11.0598 5.39168 10.5851 5.86639C10.1104 6.34109 9.84375 6.98492 9.84375 7.65625V9.34375H9.28125V7.65625C9.28125 6.83574 9.6072 6.04883 10.1874 5.46864C10.7676 4.88845 11.5545 4.5625 12.375 4.5625C13.1955 4.5625 13.9824 4.88845 14.5626 5.46864C15.1428 6.04883 15.4688 6.83574 15.4688 7.65625V9.625Z" fill="#428DC5"/>
<path d="M8.15625 9.0625H16.0312V10.1875H8.15625V9.0625Z" fill="#6CBAE5"/>
<path d="M15.1875 15.5312H9L8.4375 10.1875H15.75L15.1875 15.5312Z" fill="#4799CF"/>
<path d="M16.0312 8.99219V11.0154C16.0312 11.3181 15.7985 11.579 15.4958 11.593C15.4198 11.5967 15.3438 11.5848 15.2725 11.5582C15.2011 11.5316 15.1359 11.4908 15.0808 11.4383C15.0257 11.3858 14.9818 11.3226 14.9518 11.2527C14.9218 11.1827 14.9063 11.1074 14.9062 11.0312C14.9062 11.1804 14.847 11.3235 14.7415 11.429C14.636 11.5345 14.4929 11.5938 14.3438 11.5938C14.1946 11.5938 14.0515 11.5345 13.946 11.429C13.8405 11.3235 13.7812 11.1804 13.7812 11.0312C13.7812 11.1804 13.722 11.3235 13.6165 11.429C13.511 11.5345 13.3679 11.5938 13.2188 11.5938C13.0696 11.5938 12.9265 11.5345 12.821 11.429C12.7155 11.3235 12.6562 11.1804 12.6562 11.0312C12.6564 11.13 12.6304 11.227 12.581 11.3125C12.5314 11.3979 12.4604 11.4689 12.375 11.5185C12.2922 11.5667 12.1983 11.5926 12.1025 11.5938C11.7882 11.5983 11.5312 11.3301 11.5312 11.0158V8.99219C11.5312 8.78706 11.6127 8.59033 11.7578 8.44528C11.9028 8.30024 12.0996 8.21875 12.3047 8.21875H15.2578C15.4629 8.21875 15.6597 8.30024 15.8047 8.44528C15.9498 8.59033 16.0312 8.78706 16.0312 8.99219Z" fill="#FD9226"/>
<path d="M9 15.5312H15.1875V16.6562H9V15.5312Z" fill="#6CBAE5"/>
<path d="M13.7812 13.2812H14.3438V14.6875H13.7812V13.2812Z" fill="#6CBAE5"/>
<path d="M13.7812 12.1562H14.3438V12.7188H13.7812V12.1562Z" fill="#6CBAE5"/>
<path d="M12.6562 11.0312C12.6564 11.13 12.6304 11.227 12.581 11.3125C12.5314 11.3979 12.4604 11.4689 12.375 11.5185V9.90625H12.6562V11.0312Z" fill="#E08122"/>
<path d="M13.7812 11.0312C13.7813 11.13 13.7553 11.227 13.7059 11.3126C13.6566 11.3981 13.5855 11.4692 13.5 11.5185V9.90625H13.7812V11.0312Z" fill="#E08122"/>
<path d="M14.9062 11.0312C14.9063 11.13 14.8803 11.227 14.8309 11.3126C14.7816 11.3981 14.7105 11.4692 14.625 11.5185V9.90625H14.9062V11.0312Z" fill="#E08122"/>
<path d="M10.9688 16.6562H1.96875L2.53125 14.4062H10.4062L10.9688 16.6562Z" fill="#FBB540"/>
<path d="M2.8125 13.2812H10.125C10.1996 13.2812 10.2711 13.3109 10.3239 13.3636C10.3766 13.4164 10.4062 13.4879 10.4062 13.5625V14.4062H2.53125V13.5625C2.53125 13.4879 2.56088 13.4164 2.61363 13.3636C2.66637 13.3109 2.73791 13.2812 2.8125 13.2812Z" fill="#C17450"/>
<path d="M5.90625 14.4062H7.03125L7.3125 16.6562H5.625L5.90625 14.4062Z" fill="#EA9D2D"/>
<path d="M3.09375 16.6562L3.65625 14.4062H4.78125L4.21875 16.6562H3.09375Z" fill="#EA9D2D"/>
<path d="M6.46875 0.34375C6.61793 0.34375 6.76101 0.403013 6.8665 0.508502C6.97199 0.613992 7.03125 0.757066 7.03125 0.90625V13.2812H5.90625V0.90625C5.90625 0.757066 5.96551 0.613992 6.071 0.508502C6.17649 0.403013 6.31957 0.34375 6.46875 0.34375Z" fill="#8F563B"/>
<path d="M3.65625 6.8125C3.56892 7.07447 3.42179 7.31251 3.22653 7.50778C3.03126 7.70304 2.79322 7.85017 2.53125 7.9375C2.79322 8.02483 3.03126 8.17196 3.22653 8.36722C3.42179 8.56249 3.56892 8.80053 3.65625 9.0625C3.74358 8.80053 3.89071 8.56249 4.08597 8.36722C4.28124 8.17196 4.51928 8.02483 4.78125 7.9375C4.51928 7.85017 4.28124 7.70304 4.08597 7.50778C3.89071 7.31251 3.74358 7.07447 3.65625 6.8125Z" fill="#FBB540"/>
<path d="M16.0312 3.4375C15.9439 3.69947 15.7968 3.93751 15.6015 4.13278C15.4063 4.32804 15.1682 4.47517 14.9062 4.5625C15.1682 4.64983 15.4063 4.79696 15.6015 4.99222C15.7968 5.18749 15.9439 5.42553 16.0312 5.6875C16.1186 5.42553 16.2657 5.18749 16.461 4.99222C16.6562 4.79696 16.8943 4.64983 17.1562 4.5625C16.8943 4.47517 16.6562 4.32804 16.461 4.13278C16.2657 3.93751 16.1186 3.69947 16.0312 3.4375Z" fill="#FBB540"/>
<path d="M1.96875 10.1875C1.88142 10.4495 1.73429 10.6875 1.53903 10.8828C1.34376 11.078 1.10572 11.2252 0.84375 11.3125C1.10572 11.3998 1.34376 11.547 1.53903 11.7422C1.73429 11.9375 1.88142 12.1755 1.96875 12.4375C2.05608 12.1755 2.20321 11.9375 2.39847 11.7422C2.59374 11.547 2.83178 11.3998 3.09375 11.3125C2.83178 11.2252 2.59374 11.078 2.39847 10.8828C2.20321 10.6875 2.05608 10.4495 1.96875 10.1875Z" fill="#FBB540"/>
<path d="M8.15625 14.4062H9.28125L9.84375 16.6562H8.71875L8.15625 14.4062Z" fill="#EA9D2D"/>
</svg>
