<svg width="18" height="19" viewBox="0 0 18 19" fill="none" xmlns="http://www.w3.org/2000/svg">
<g clip-path="url(#clip0_336_61)">
<path d="M8.50095 12.1722C6.33319 12.1722 4.56958 10.4052 4.56958 8.23314V4.447C4.56958 2.27499 6.33319 0.507935 8.50095 0.507935C10.6687 0.507935 12.4324 2.27499 12.4324 4.447V8.23314C12.4324 10.4052 10.6687 12.1722 8.50095 12.1722Z" fill="#DADA3B"/>
<path d="M8.50098 0.507935V12.1722C10.6688 12.1722 12.4324 10.4052 12.4324 8.23314V4.447C12.4323 2.27499 10.6687 0.507935 8.50098 0.507935Z" fill="#9DBC29"/>
<path d="M8.47443 4.29425C8.18376 4.29425 7.94811 4.53036 7.94811 4.82159V6.42886L7.59735 6.07392C7.39285 5.86696 7.05964 5.86531 6.85303 6.07023C6.64649 6.27516 6.6448 6.60903 6.84934 6.816L7.94807 7.92792V17.9659C7.94807 18.2572 8.18372 18.4933 8.47439 18.4933C8.76506 18.4933 9.00072 18.2572 9.00072 17.9659V4.82159C9.00075 4.53036 8.7651 4.29425 8.47443 4.29425Z" fill="#A34F3E"/>
<path d="M8.50098 4.2962V18.4925C8.77924 18.4786 9.00079 18.2488 9.00079 17.9665V4.82217C9.00076 4.53991 8.77924 4.31013 8.50098 4.2962Z" fill="#873F2E"/>
<path d="M2.96651 18.4635C2.67584 18.4635 2.44019 18.2273 2.44019 17.9361V14.6898C2.44019 14.3986 2.67584 14.1625 2.96651 14.1625C3.25718 14.1625 3.49283 14.3986 3.49283 14.6898V17.9361C3.49283 18.2273 3.25718 18.4635 2.96651 18.4635Z" fill="#C86E59"/>
<path d="M2.96655 14.1625V18.4635C3.25722 18.4635 3.49288 18.2273 3.49288 17.9361V14.6898C3.49288 14.3985 3.25722 14.1625 2.96655 14.1625Z" fill="#A34F3E"/>
<path d="M2.96659 15.2172C2.11486 15.2172 1.34368 14.6168 0.795065 13.5267C0.304251 12.5513 0.0339355 11.2662 0.0339355 9.90808C0.0339355 7.1255 2.44083 3.82937 2.54331 3.69044C2.64255 3.55586 2.79963 3.47644 2.96662 3.47644C3.13362 3.47644 3.29069 3.55586 3.38994 3.69044C3.49238 3.82941 5.89928 7.1255 5.89928 9.90808C5.89928 11.2662 5.62896 12.5513 5.13811 13.5267C4.58953 14.6168 3.81832 15.2172 2.96659 15.2172Z" fill="#DADA3B"/>
<path d="M3.38987 3.69044C3.29062 3.55586 3.13354 3.47644 2.96655 3.47644V15.2172C3.81828 15.2172 4.58946 14.6168 5.13808 13.5267C5.62892 12.5513 5.89924 11.2662 5.89924 9.90808C5.8992 7.1255 3.49231 3.82937 3.38987 3.69044Z" fill="#9DBC29"/>
<path d="M15.9928 5.12123C14.3655 5.34616 13.0005 3.86517 13.4262 2.20942C13.6311 1.41253 14.2583 0.784078 15.0536 0.578836C16.7061 0.15232 18.1843 1.51993 17.9598 3.15048C17.819 4.17282 17.0132 4.98019 15.9928 5.12123Z" fill="#FFDD54"/>
<path d="M15.6649 0.500061V5.14367C15.7727 5.14367 15.8821 5.13654 15.9928 5.12124C17.0131 4.98023 17.8189 4.17283 17.9597 3.15049C18.156 1.72473 17.0505 0.500061 15.6649 0.500061Z" fill="#FFB454"/>
<path d="M15.7186 11.3088C15.4279 11.3088 15.1923 11.0727 15.1923 10.7814V7.83203C15.1923 7.5408 15.4279 7.30469 15.7186 7.30469C16.0093 7.30469 16.2449 7.5408 16.2449 7.83203V10.7814C16.2449 11.0727 16.0093 11.3088 15.7186 11.3088Z" fill="#FF405C"/>
<path d="M5.19153 18.5V11.56C5.19153 11.5098 5.21304 11.4619 5.25056 11.4285L10.8527 6.4492C10.8848 6.42066 10.9262 6.40491 10.9691 6.40491C11.0121 6.40491 11.0534 6.42066 11.0856 6.4492L16.6877 11.4285C16.7252 11.4619 16.7467 11.5098 16.7467 11.56V18.5H5.19153V18.5Z" fill="#FFF2DE"/>
<path d="M16.6877 11.4285L11.0856 6.4492C11.0534 6.42066 11.0121 6.40491 10.9691 6.40491V18.5H16.7467V11.56C16.7467 11.5098 16.7252 11.4619 16.6877 11.4285Z" fill="#FDE4C3"/>
<path d="M9.75288 18.5H6.59497V12.9939C6.59497 12.7027 6.83062 12.4666 7.1213 12.4666H9.22656C9.51723 12.4666 9.75288 12.7027 9.75288 12.9939V18.5Z" fill="#A34F3E"/>
<path d="M14.2799 15.5423H12.4809C12.2753 15.5423 12.1086 15.3753 12.1086 15.1693V13.3669C12.1086 13.1609 12.2753 12.9939 12.4809 12.9939H14.2799C14.4855 12.9939 14.6521 13.1609 14.6521 13.3669V15.1693C14.6521 15.3753 14.4855 15.5423 14.2799 15.5423Z" fill="#C8FFFF"/>
<path d="M14.6522 16.0696H12.1087C11.8181 16.0696 11.5824 15.8335 11.5824 15.5423V12.9939C11.5824 12.7027 11.8181 12.4666 12.1087 12.4666H14.6522C14.9428 12.4666 15.1785 12.7027 15.1785 12.9939V15.5423C15.1785 15.8335 14.9428 16.0696 14.6522 16.0696ZM12.635 15.015H14.1258V13.5212H12.635V15.015Z" fill="#A34F3E"/>
<path d="M17.4384 12.8582C17.3142 12.8582 17.1895 12.8144 17.0893 12.7254L10.9691 7.28562L4.84898 12.7254C4.63157 12.9186 4.29889 12.8987 4.10599 12.6808C3.91309 12.463 3.93299 12.1296 4.15046 11.9364L10.6199 6.18618C10.8192 6.00907 11.1191 6.00907 11.3184 6.18618L17.7878 11.9364C18.0053 12.1297 18.0252 12.463 17.8323 12.6808C17.7283 12.7983 17.5836 12.8582 17.4384 12.8582Z" fill="#FF405C"/>
<path d="M17.7878 11.9364L11.3184 6.1862C11.2188 6.09764 11.094 6.05334 10.9691 6.05334V7.28561L17.0893 12.7254C17.1895 12.8145 17.3142 12.8582 17.4384 12.8582C17.5837 12.8582 17.7283 12.7983 17.8323 12.6808C18.0252 12.463 18.0053 12.1297 17.7878 11.9364Z" fill="#E20059"/>
<path d="M17.4736 18.5H0.526322C0.235651 18.4932 0 18.2571 0 17.9659C0 17.6746 0.235651 17.4385 0.526322 17.4385H17.4736C17.7643 17.4385 17.9999 17.6746 17.9999 17.9659C17.9999 18.2571 17.7643 18.4932 17.4736 18.5Z" fill="#DADA3B"/>
<path d="M17.4737 17.4385H9.00085V18.5H17.4737C17.7644 18.4932 18 18.2571 18 17.9659C18 17.6746 17.7644 17.4385 17.4737 17.4385Z" fill="#9DBC29"/>
</g>
<defs>
<clipPath id="clip0_336_61">
<rect width="18" height="18" fill="white" transform="translate(0 0.5)"/>
</clipPath>
</defs>
</svg>
