<svg width="18" height="19" viewBox="0 0 18 19" fill="none" xmlns="http://www.w3.org/2000/svg">
<g clip-path="url(#clip0_336_153)">
<path d="M11.8953 8.09967L9.30513 9.65255V8.36204C9.30511 8.25242 9.24629 8.15124 9.15103 8.09699C9.05578 8.04274 8.93874 8.04376 8.84445 8.09967L6.25428 9.65255V8.36204C6.25426 8.25242 6.19544 8.15124 6.10018 8.09699C6.00493 8.04274 5.8879 8.04376 5.79361 8.09967L3.20344 9.65255V8.36204C3.20342 8.25242 3.14459 8.15124 3.04934 8.09699C2.95408 8.04274 2.83705 8.04376 2.74276 8.09967L0.152588 9.65255V10.2627H12.356V8.36204C12.356 8.25242 12.2971 8.15124 12.2019 8.09699C12.1066 8.04274 11.9896 8.04376 11.8953 8.09967Z" fill="#C03A2B"/>
<path d="M15.4069 2.63561L13.6069 5.56229C13.2093 6.2086 12.5047 6.60215 11.7459 6.60171C10.9435 6.60171 10.492 6.30883 10.2387 5.97934L10.2204 5.99154C7.77976 5.99154 7.77976 4.46612 7.77976 4.46612L7.78892 4.41425C7.2601 4.33511 6.81667 3.97359 6.63264 3.47154C6.41755 2.75871 6.69066 1.9888 7.30688 1.57087C7.8026 1.28993 8.39575 1.23763 8.93298 1.42748C8.93908 1.43053 8.94824 1.43358 8.95434 1.43663L9.0001 1.30849C9.25502 1.19829 9.52092 1.11545 9.79332 1.06137C10.5408 0.914933 11.3737 0.954594 11.9808 1.41222L12.0509 1.34815C12.3005 1.21806 12.5662 1.12163 12.8411 1.06137C13.5121 0.8685 14.2346 0.998123 14.7967 1.41222C15.1626 1.71642 15.384 2.1603 15.4069 2.63561Z" fill="#B0D3F0"/>
<path d="M15.4069 2.94068C15.2413 2.94073 15.1059 2.80873 15.1018 2.64322C15.082 2.25522 14.8998 1.89346 14.5999 1.64651C14.0627 1.19224 13.3088 1.27156 12.9076 1.35943C12.659 1.41299 12.4188 1.50023 12.1937 1.61875C12.0454 1.69354 11.8645 1.63593 11.7868 1.48914C11.709 1.34236 11.763 1.16035 11.9082 1.07966C12.1822 0.935189 12.4746 0.828751 12.7773 0.76329C13.5406 0.546781 14.3613 0.701082 14.9938 1.18004C15.4259 1.54038 15.6866 2.06587 15.712 2.62797C15.714 2.70894 15.6838 2.7874 15.6279 2.84606C15.5721 2.90472 15.4952 2.93876 15.4142 2.94068H15.4069Z" fill="#90BAE1"/>
<path d="M12.661 2.94066C12.4959 2.94073 12.3607 2.80946 12.3559 2.64443C12.3258 2.24772 12.1202 1.88517 11.7952 1.65565C11.1762 1.18887 10.3119 1.27063 9.85424 1.36063C9.60272 1.41004 9.35724 1.48634 9.12203 1.58822C8.96752 1.65562 8.78763 1.585 8.72024 1.43049C8.65284 1.27599 8.72346 1.0961 8.87797 1.0287C9.15324 0.909642 9.44042 0.820256 9.73464 0.762054C10.7015 0.572597 11.5627 0.716902 12.1628 1.16873C12.6352 1.51006 12.93 2.04502 12.9661 2.62673C12.9685 2.70766 12.9386 2.78621 12.883 2.84509C12.8275 2.90397 12.7508 2.93835 12.6699 2.94066H12.661Z" fill="#90BAE1"/>
<path d="M8.29836 4.77122C7.56616 4.77122 6.61521 4.45454 6.33972 3.56217C6.08036 2.71722 6.40771 1.80232 7.14423 1.31369C7.71543 0.984123 8.4018 0.919528 9.02447 1.13674C9.27636 1.21937 9.5203 1.32455 9.75331 1.45098C9.89867 1.53171 9.95262 1.71396 9.87462 1.8608C9.79663 2.00764 9.61542 2.06499 9.46714 1.98976C9.26608 1.88049 9.05565 1.78941 8.83836 1.71763C8.38776 1.55461 7.88857 1.59536 7.47036 1.82929C6.96852 2.17198 6.74637 2.80018 6.92121 3.38217C7.1003 3.95725 7.77484 4.16105 8.29836 4.16105C8.46686 4.16105 8.60345 4.29764 8.60345 4.46613C8.60345 4.63463 8.46686 4.77122 8.29836 4.77122Z" fill="#90BAE1"/>
<path d="M10.2204 6.29661C7.50512 6.29661 7.47461 4.4844 7.47461 4.4661C7.47377 4.29761 7.60968 4.16033 7.77817 4.15949C7.94667 4.15865 8.08394 4.29455 8.08478 4.46305C8.08478 4.51979 8.1458 5.68644 10.2204 5.68644C10.3889 5.68644 10.5255 5.82303 10.5255 5.99152C10.5255 6.16002 10.3889 6.29661 10.2204 6.29661Z" fill="#90BAE1"/>
<path d="M11.7458 6.90677C10.0566 6.90677 9.61023 5.70931 9.61023 5.07626C9.61023 4.90777 9.74682 4.77118 9.91531 4.77118C10.0838 4.77118 10.2204 4.90777 10.2204 5.07626C10.2222 5.20318 10.2814 6.29813 11.7458 6.29813C11.9143 6.29813 12.0509 6.43472 12.0509 6.60321C12.0509 6.77171 11.9143 6.9083 11.7458 6.9083V6.90677Z" fill="#90BAE1"/>
<path d="M14.5603 3.85596H15.6436C15.8499 3.85613 16.017 4.0234 16.017 4.22969V5.68647H14.1865V4.22969C14.1865 4.02328 14.3538 3.85596 14.5603 3.85596Z" fill="#E4C05C"/>
<path d="M16.9323 12.0932L16.017 5.07629H14.1865L13.2712 12.0932H16.9323Z" fill="#B19046"/>
<path d="M11.7458 11.7881H17.5342C17.7073 11.7881 17.8475 11.9284 17.8475 12.1015V17.5848H11.7458V11.7881Z" fill="#F0C419"/>
<path d="M13.8814 13.6187H12.356C12.1875 13.6187 12.0509 13.4821 12.0509 13.3136C12.0509 13.1451 12.1875 13.0085 12.356 13.0085H13.8814C14.0499 13.0085 14.1865 13.1451 14.1865 13.3136C14.1865 13.4821 14.0499 13.6187 13.8814 13.6187Z" fill="#F3D55B"/>
<path d="M16.6271 13.6187H15.1017C14.9332 13.6187 14.7966 13.4821 14.7966 13.3136C14.7966 13.1451 14.9332 13.0085 15.1017 13.0085H16.6271C16.7956 13.0085 16.9322 13.1451 16.9322 13.3136C16.9322 13.4821 16.7956 13.6187 16.6271 13.6187Z" fill="#F3D55B"/>
<path d="M12.356 9.65253H0.152588V17.5847H12.356V9.65253Z" fill="#D25627"/>
<path d="M2.89835 11.1779C2.89835 11.3464 2.76176 11.483 2.59327 11.483H0.152588V10.8729H2.59327C2.76176 10.8729 2.89835 11.0095 2.89835 11.1779Z" fill="#F18D46"/>
<path d="M7.16956 11.483H3.81363C3.64514 11.483 3.50854 11.3464 3.50854 11.1779C3.50854 11.0095 3.64514 10.8729 3.81363 10.8729H7.16956C7.33806 10.8729 7.47465 11.0095 7.47465 11.1779C7.47465 11.3464 7.33806 11.483 7.16956 11.483Z" fill="#F18D46"/>
<path d="M3.20343 13.3135H1.67801C1.50952 13.3135 1.37292 13.4501 1.37292 13.6186V14.839C1.37292 15.0075 1.50952 15.144 1.67801 15.144H3.20343C3.37193 15.144 3.50852 15.0075 3.50852 14.839V13.6186C3.50852 13.4501 3.37193 13.3135 3.20343 13.3135Z" fill="#B0D3F0"/>
<path d="M6.55939 13.3135H5.03397C4.86547 13.3135 4.72888 13.4501 4.72888 13.6186V14.839C4.72888 15.0075 4.86547 15.144 5.03397 15.144H6.55939C6.72788 15.144 6.86448 15.0075 6.86448 14.839V13.6186C6.86448 13.4501 6.72788 13.3135 6.55939 13.3135Z" fill="#B0D3F0"/>
<path d="M11.1357 12.7226V17.5848H8.08483V12.7226C8.0802 12.5491 8.21641 12.4043 8.38992 12.3983H10.8306C11.0041 12.4043 11.1403 12.5491 11.1357 12.7226Z" fill="#59474E"/>
<path d="M10.2204 13.6186C10.2204 13.7871 10.0838 13.9237 9.91535 13.9237H8.08484V13.3135H9.91535C10.0838 13.3135 10.2204 13.4501 10.2204 13.6186Z" fill="#7F5B53"/>
<path d="M10.2204 14.839C10.2204 15.0075 10.0838 15.144 9.91535 15.144H8.08484V14.5339H9.91535C10.0838 14.5339 10.2204 14.6705 10.2204 14.839Z" fill="#7F5B53"/>
<path d="M10.2204 16.0593C10.2204 16.2278 10.0838 16.3644 9.91535 16.3644H8.08484V15.7542H9.91535C10.0838 15.7542 10.2204 15.8908 10.2204 16.0593Z" fill="#7F5B53"/>
<path d="M14.4916 15.144H15.7119C15.8804 15.144 16.017 15.2806 16.017 15.4491V17.2796H14.1865V15.4491C14.1865 15.2806 14.3231 15.144 14.4916 15.144Z" fill="#E57E25"/>
<path d="M17.8475 17.2797H0.152588V18.1949C0.152588 18.3634 0.289179 18.5 0.457673 18.5H17.5424C17.7109 18.5 17.8475 18.3634 17.8475 18.1949V17.2797Z" fill="#7F5B53"/>
</g>
<defs>
<clipPath id="clip0_336_153">
<rect width="18" height="18" fill="white" transform="translate(0 0.5)"/>
</clipPath>
</defs>
</svg>
