<svg width="18" height="19" viewBox="0 0 18 19" fill="none" xmlns="http://www.w3.org/2000/svg">
<g clip-path="url(#clip0_336_85)">
<path d="M4.74512 18.491H1.06177V8.40289L4.74512 8.42768V18.491Z" fill="#62739A"/>
<path d="M16.9383 18.491H13.255L13.2108 8.40289H16.9383V18.491Z" fill="#48578A"/>
<path d="M4.78923 7.87555H0V8.93024H4.78923V7.87555Z" fill="#D8D9FB"/>
<path d="M4.7118 9.98505H3.19885V11.0397H4.7118V9.98505Z" fill="#FFF261"/>
<path d="M4.7118 12.0945H3.19885V13.1492H4.7118V12.0945Z" fill="#FFF261"/>
<path d="M4.7118 14.2041H3.19885V15.2588H4.7118V14.2041Z" fill="#FFF261"/>
<path d="M18 7.87555H13.2108V8.93024H18V7.87555Z" fill="#A3A4CE"/>
<path d="M14.8012 9.98505H13.2882V11.0397H14.8012V9.98505Z" fill="#FFDA2D"/>
<path d="M14.8012 12.0945H13.2882V13.1492H14.8012V12.0945Z" fill="#FFDA2D"/>
<path d="M14.8012 14.2041H13.2882V15.2588H14.8012V14.2041Z" fill="#FFDA2D"/>
<path d="M9.73938 0.5H8.68469V2.0564H9.73938V0.5Z" fill="#FFDA2D"/>
<path d="M9.73938 0.5H9.21204V2.0564H9.73938V0.5Z" fill="#FDBF00"/>
<path d="M13.7823 18.491H4.21777V5.8111H13.7823V18.491H13.7823Z" fill="#48578A"/>
<path d="M13.7823 18.491H9.07031V5.8111H13.7823V18.491Z" fill="#2D3C71"/>
<path d="M16.1626 6.86577H1.83752V1.52905H16.1626V6.86577Z" fill="#F2F2FC"/>
<path d="M16.1626 6.86577H9.27795V1.52905H16.1626V6.86577Z" fill="#D8D9FB"/>
<path d="M3.98853 4.18393C3.98853 3.70591 4.36505 3.3587 4.87914 3.3587C5.39319 3.3587 5.76975 3.70591 5.76975 4.18393C5.76975 4.66191 5.39323 5.00915 4.87914 5.00915C4.36505 5.00915 3.98853 4.66191 3.98853 4.18393ZM5.23313 4.18393C5.23313 3.93818 5.07531 3.78933 4.87914 3.78933C4.68297 3.78933 4.52515 3.93815 4.52515 4.18393C4.52515 4.4297 4.68297 4.57848 4.87914 4.57848C5.07531 4.57848 5.23313 4.42967 5.23313 4.18393Z" fill="#FC652C"/>
<path d="M6.72146 3.79615V4.06671H7.37983V4.46805H6.72146V4.97307H6.18933V3.39484H7.47222V3.79615H6.72146Z" fill="#FC652C"/>
<path d="M8.39903 3.79615V4.06671H9.0574V4.46805H8.39903V4.97307H7.86694V3.39484H9.14983V3.79615H8.39903Z" fill="#FC652C"/>
<path d="M9.54468 3.39484H10.0768V4.97311H9.54468V3.39484Z" fill="#FC652C"/>
<path d="M10.4962 4.18393C10.4962 3.69916 10.8682 3.3587 11.3755 3.3587C11.6844 3.3587 11.9279 3.47145 12.0835 3.67437L11.7476 3.97422C11.6551 3.85697 11.5446 3.78933 11.4026 3.78933C11.1816 3.78933 11.0328 3.94265 11.0328 4.18393C11.0328 4.4252 11.1816 4.57848 11.4026 4.57848C11.5446 4.57848 11.6551 4.51084 11.7476 4.3936L12.0835 4.69348C11.928 4.89637 11.6844 5.00915 11.3755 5.00915C10.8682 5.00915 10.4962 4.66866 10.4962 4.18393Z" fill="#FC652C"/>
<path d="M13.7746 4.57173V4.97307H12.4624V3.39484H13.7453V3.79615H12.9855V3.98103H13.6528V4.36434H12.9855V4.57173H13.7746Z" fill="#FC652C"/>
<path d="M9.58032 16.3443H8.52563V18.5H9.58032V16.3443Z" fill="#FFF261"/>
<path d="M7.4709 12.046H6.41614V13.1007H7.4709V12.046Z" fill="#FFF261"/>
<path d="M9.58039 12.046H8.52563V13.1007H9.58039V12.046Z" fill="#FFF261"/>
<path d="M7.4709 14.1555H6.41614V15.2102H7.4709V14.1555Z" fill="#FFF261"/>
<path d="M9.58039 14.1555H8.52563V15.2102H9.58039V14.1555Z" fill="#FFF261"/>
<path d="M7.4709 9.98505H6.41614V11.0397H7.4709V9.98505Z" fill="#FFF261"/>
<path d="M9.58039 9.98505H8.52563V11.0397H9.58039V9.98505Z" fill="#FFF261"/>
<path d="M11.6899 12.046H10.6351V13.1007H11.6899V12.046Z" fill="#FFDA2D"/>
<path d="M11.6899 14.1555H10.6351V15.2102H11.6899V14.1555Z" fill="#FFDA2D"/>
<path d="M11.6899 9.98505H10.6351V11.0397H11.6899V9.98505Z" fill="#FFDA2D"/>
<path d="M7.4709 7.87555H6.41614V8.93024H7.4709V7.87555Z" fill="#FFF261"/>
<path d="M9.58039 7.87555H8.52563V8.93024H9.58039V7.87555Z" fill="#FFF261"/>
<path d="M9.58032 16.3443H9.07031V18.5H9.58032V16.3443Z" fill="#FFDA2D"/>
<path d="M9.58036 12.046H9.07031V13.1007H9.58036V12.046Z" fill="#FFDA2D"/>
<path d="M9.58036 14.1555H9.07031V15.2102H9.58036V14.1555Z" fill="#FFDA2D"/>
<path d="M9.58036 9.98505H9.07031V11.0397H9.58036V9.98505Z" fill="#FFDA2D"/>
<path d="M9.58036 7.87555H9.07031V8.93024H9.58036V7.87555Z" fill="#FFDA2D"/>
<path d="M11.6899 7.87555H10.6351V8.93024H11.6899V7.87555Z" fill="#FFDA2D"/>
<path d="M9.54456 3.39484H10.0766V4.97311H9.54456V3.39484Z" fill="#ED3A1B"/>
<path d="M10.4961 4.18393C10.4961 3.69916 10.8681 3.3587 11.3754 3.3587C11.6843 3.3587 11.9278 3.47145 12.0834 3.67437L11.7474 3.97422C11.655 3.85697 11.5445 3.78933 11.4025 3.78933C11.1815 3.78933 11.0327 3.94265 11.0327 4.18393C11.0327 4.4252 11.1815 4.57848 11.4025 4.57848C11.5445 4.57848 11.655 4.51084 11.7474 4.3936L12.0834 4.69348C11.9278 4.89637 11.6843 5.00915 11.3754 5.00915C10.8681 5.00915 10.4961 4.66866 10.4961 4.18393Z" fill="#ED3A1B"/>
<path d="M13.7746 4.57173V4.97307H12.4624V3.39484H13.7453V3.79615H12.9855V3.98103H13.6528V4.36434H12.9855V4.57173H13.7746Z" fill="#ED3A1B"/>
</g>
<defs>
<clipPath id="clip0_336_85">
<rect width="18" height="18" fill="white" transform="translate(0 0.5)"/>
</clipPath>
</defs>
</svg>
