<svg width="18" height="19" viewBox="0 0 18 19" fill="none" xmlns="http://www.w3.org/2000/svg">
<path d="M17.4375 10.625H0.5625V6.96875L4.5 5.84375L6.92887 2.09019C7.34344 1.4495 8.05472 1.0625 8.81775 1.0625H13.3993C14.3111 1.0625 15.1327 1.61263 15.4797 2.45581L16.875 5.84375H17.4375" fill="#2B74CA"/>
<path d="M5.34375 8.9375C10.159 8.9375 14.0625 6.29319 14.0625 3.03125C14.0625 2.34556 13.8881 1.68772 13.5709 1.07544C13.5138 1.07094 13.4575 1.0625 13.3993 1.0625H8.81775C8.05444 1.0625 7.34344 1.4495 6.92859 2.09019L4.5 5.84375L0.5625 6.96875V7.96944C1.93556 8.58088 3.57778 8.9375 5.34375 8.9375Z" fill="#3D98F7"/>
<path d="M14.9062 17.3938C15.0173 17.4554 15.1262 17.5215 15.2325 17.5924L15.4237 17.7198C15.6364 17.8618 15.8864 17.9375 16.1421 17.9375C16.8576 17.9375 17.4375 17.3576 17.4375 16.6421C17.4375 16.3864 17.3618 16.1364 17.2201 15.9235L17.0148 15.6152C16.5569 14.929 16.3125 14.1221 16.3125 13.2969C16.3125 12.4717 16.5569 11.6648 17.0145 10.9783L17.2198 10.67C17.3618 10.4574 17.4375 10.2073 17.4375 9.95169C17.4375 9.23619 16.8576 8.65625 16.1421 8.65625C15.8864 8.65625 15.6364 8.73191 15.4235 8.87394L15.2322 9.00134C14.4697 9.50984 13.5731 9.78125 12.6562 9.78125C11.7394 9.78125 10.8428 9.50984 10.08 9.00134L9.88875 8.87394C9.67612 8.73191 9.42609 8.65625 9.17044 8.65625C8.45494 8.65625 7.875 9.23619 7.875 9.95169C7.875 10.2073 7.95066 10.4574 8.09269 10.6703L8.298 10.9785C8.75559 11.6648 9 12.4717 9 13.2969C9 14.1221 8.75559 14.929 8.298 15.6155L8.09269 15.9237C7.95066 16.1364 7.875 16.3864 7.875 16.6421C7.875 17.3576 8.45494 17.9375 9.17044 17.9375C9.42609 17.9375 9.67612 17.8618 9.88903 17.7201L10.0803 17.5927C10.4816 17.3252 10.9198 17.1233 11.3788 16.9919" fill="#F5CF88"/>
<path d="M10.08 9.00134L9.88875 8.87394C9.67612 8.73191 9.42609 8.65625 9.17044 8.65625C8.45494 8.65625 7.875 9.23619 7.875 9.95169C7.875 10.2073 7.95066 10.4574 8.09241 10.6703L8.29772 10.9785C8.75559 11.6648 9 12.4717 9 13.2969C9 14.1221 8.75559 14.929 8.298 15.6155L8.25328 15.6827C11.9486 15.5857 14.9062 13.2333 14.9062 10.3438C14.9062 9.97616 14.8582 9.61728 14.767 9.2705C14.1154 9.60322 13.3931 9.78125 12.6562 9.78125C11.7394 9.78125 10.8428 9.50984 10.08 9.00134Z" fill="#FADFB2"/>
<path d="M14.9062 17.9375V16.8125L15.4688 16.25V13.1562C15.4688 12.8455 15.217 12.5938 14.9062 12.5938C14.5955 12.5938 14.3438 12.8455 14.3438 13.1562V12.0312C14.3438 11.7205 14.092 11.4688 13.7812 11.4688C13.4705 11.4688 13.2188 11.7205 13.2188 12.0312V11.4688C13.2188 11.158 12.967 10.9062 12.6562 10.9062C12.3455 10.9062 12.0938 11.158 12.0938 11.4688V12.0312C12.0938 11.7205 11.842 11.4688 11.5312 11.4688C11.2205 11.4688 10.9688 11.7205 10.9688 12.0312V14.8438C10.9688 14.533 10.717 14.2812 10.4062 14.2812C10.0955 14.2812 9.84375 14.533 9.84375 14.8438V15.9688L11.5312 17.0938V17.9375" fill="#EFBE9A"/>
<path d="M14.3398 2.90863L15.4688 5.84375H6.1875L8.10816 2.723C8.31291 2.39028 8.67544 2.1875 9.06609 2.1875H13.2899C13.7554 2.1875 14.1727 2.47409 14.3398 2.90863Z" fill="#C7E2FC"/>
<path d="M8.01565 5C11.0391 5 13.5144 3.8075 13.7571 2.291C13.6134 2.22519 13.455 2.1875 13.2899 2.1875H9.06612C8.67546 2.1875 8.31265 2.39028 8.1079 2.723L6.75171 4.92659C7.15924 4.97328 7.58083 5 8.01565 5Z" fill="#EBF7FE"/>
<path d="M1.6875 8.375V6.64728L0.5625 6.96875V8.375H1.6875Z" fill="#F9D18B"/>
<path d="M4.5 12.875C5.74264 12.875 6.75 11.8676 6.75 10.625C6.75 9.38236 5.74264 8.375 4.5 8.375C3.25736 8.375 2.25 9.38236 2.25 10.625C2.25 11.8676 3.25736 12.875 4.5 12.875Z" fill="#4D5D7A"/>
<path d="M4.5 11.75C5.12132 11.75 5.625 11.2463 5.625 10.625C5.625 10.0037 5.12132 9.5 4.5 9.5C3.87868 9.5 3.375 10.0037 3.375 10.625C3.375 11.2463 3.87868 11.75 4.5 11.75Z" fill="#8892A0"/>
<path d="M3.9375 16.5312C4.71403 16.5312 5.34375 17.161 5.34375 17.9375C5.34375 17.161 5.97347 16.5312 6.75 16.5312C5.97347 16.5312 5.34375 15.9015 5.34375 15.125C5.34375 15.9015 4.71403 16.5312 3.9375 16.5312Z" fill="#8BD2F5"/>
<path d="M0.5625 14.5625C1.33903 14.5625 1.96875 15.1922 1.96875 15.9688C1.96875 15.1922 2.59847 14.5625 3.375 14.5625C2.59847 14.5625 1.96875 13.9328 1.96875 13.1562C1.96875 13.9328 1.33903 14.5625 0.5625 14.5625Z" fill="#8BD2F5"/>
<path d="M0.5625 2.46875C1.33903 2.46875 1.96875 3.09847 1.96875 3.875C1.96875 3.09847 2.59847 2.46875 3.375 2.46875C2.59847 2.46875 1.96875 1.83903 1.96875 1.0625C1.96875 1.83903 1.33903 2.46875 0.5625 2.46875Z" fill="#8BD2F5"/>
<path d="M10.6875 2.1875H11.25V5.84375H10.6875V2.1875Z" fill="#8892A0"/>
<path d="M10.125 6.6875H11.25V7.25H10.125V6.6875Z" fill="white"/>
<path d="M14.625 6.6875H15.75V7.25H14.625V6.6875Z" fill="white"/>
<path d="M10.6875 14.8438H11.25V15.4062H10.6875V14.8438Z" fill="#DB9B7C"/>
<path d="M11.8125 12.0312H12.375V14H11.8125V12.0312Z" fill="#DB9B7C"/>
<path d="M12.9375 12.0312H13.5V14H12.9375V12.0312Z" fill="#DB9B7C"/>
<path d="M14.0625 13.1562H14.625V14H14.0625V13.1562Z" fill="#DB9B7C"/>
</svg>
