<svg width="18" height="19" viewBox="0 0 18 19" fill="none" xmlns="http://www.w3.org/2000/svg">
<path d="M17.1562 13.3735V17.9375H8.15625V14.2812L7.59375 15.6875L5.625 14.5625L6.43535 12.7396C6.53403 12.5174 6.6796 12.3192 6.86207 12.1585C7.04454 11.9978 7.2596 11.8785 7.4925 11.8087L9.5625 11.1875L10.125 10.9062V8.9375H12.9375V10.9062L13.5 11.1875L15.8481 11.7293C16.2199 11.8151 16.5517 12.0244 16.7893 12.323C17.0268 12.6216 17.1562 12.9919 17.1562 13.3735Z" fill="#FDC8A2"/>
<path d="M12.9375 8.9375V9.96723C12.5099 10.2139 12.0249 10.3437 11.5312 10.3437C11.0376 10.3437 10.5526 10.2139 10.125 9.96723V8.9375H12.9375Z" fill="#FDBF92"/>
<path d="M8.15625 17.9375V14.2812L7.59375 15.6875L5.625 14.5625L6.43521 12.7395C6.53395 12.5173 6.67954 12.3191 6.862 12.1584C7.04446 11.9978 7.25949 11.8784 7.49236 11.8085L9.5625 11.1875L10.125 10.9062L11.5312 13.1562L12.9375 10.9062L13.5 11.1875L15.8482 11.7294C16.22 11.8152 16.5518 12.0245 16.7894 12.3231C17.0269 12.6218 17.1563 12.9921 17.1562 13.3737V15.125H14.9062V17.9375" fill="#D65246"/>
<path d="M10.125 10.9062L9.5625 11.1875V13.1562L10.6875 12.5938L11.5312 13.1562L10.125 10.9062Z" fill="#DF6257"/>
<path d="M12.9375 10.9062L13.5 11.1875V13.1562L12.375 12.5938L11.5312 13.1562L12.9375 10.9062Z" fill="#DF6257"/>
<path d="M5.62511 14.5625L4.95412 16.0387C4.8749 16.213 4.84068 16.4043 4.85459 16.5953C4.8685 16.7862 4.93009 16.9706 5.03374 17.1315C5.13738 17.2925 5.27975 17.4249 5.44781 17.5165C5.61587 17.6082 5.80425 17.6563 5.99569 17.6562C6.2196 17.6563 6.43858 17.5906 6.62551 17.4673C6.81244 17.344 6.95909 17.1686 7.04729 16.9628L7.59386 15.6875L5.62511 14.5625Z" fill="#FDBF92"/>
<path d="M7.07695 16.3017L6.1875 11.1875H2.53125C2.53125 11.4859 2.64978 11.772 2.86075 11.983C3.07173 12.194 3.35788 12.3125 3.65625 12.3125H4.78125V16.4999C4.78125 16.8066 4.90308 17.1007 5.11995 17.3176C5.33682 17.5344 5.63095 17.6562 5.93764 17.6562C6.10628 17.6563 6.27288 17.6194 6.42576 17.5482C6.57864 17.477 6.7141 17.3733 6.82265 17.2442C6.9312 17.1152 7.01021 16.9639 7.05414 16.8011C7.09807 16.6383 7.10585 16.4679 7.07695 16.3017Z" fill="#FDC8A2"/>
<path d="M8.71875 4.15625V6.96875C8.71875 7.71467 9.01507 8.43004 9.54251 8.95749C10.07 9.48493 10.7853 9.78125 11.5312 9.78125C12.2772 9.78125 12.9925 9.48493 13.52 8.95749C14.0474 8.43004 14.3438 7.71467 14.3438 6.96875V4.15625H8.71875Z" fill="#FDC8A2"/>
<path d="M8.71875 3.875V4.64844C8.71875 4.89086 8.81505 5.12336 8.98647 5.29478C9.15789 5.4662 9.39039 5.5625 9.63281 5.5625C9.95797 5.56249 10.2801 5.50044 10.582 5.37969C11.1914 5.13595 11.8711 5.13595 12.4805 5.37969C12.7824 5.50044 13.1045 5.56249 13.4297 5.5625C13.6721 5.5625 13.9046 5.4662 14.076 5.29478C14.2474 5.12336 14.3438 4.89086 14.3438 4.64844V3.875H8.71875Z" fill="#FDBF92"/>
<path d="M8.71875 5V4.15625H9.84375L8.71875 5Z" fill="#7A432A"/>
<path d="M14.3438 5V4.15625H13.2188L14.3438 5Z" fill="#7A432A"/>
<path d="M12.9375 6.40625C12.8262 6.40625 12.7175 6.37326 12.625 6.31145C12.5325 6.24964 12.4604 6.16179 12.4178 6.05901C12.3752 5.95623 12.3641 5.84313 12.3858 5.73401C12.4075 5.6249 12.4611 5.52467 12.5398 5.446C12.6184 5.36734 12.7186 5.31376 12.8278 5.29206C12.9369 5.27035 13.05 5.28149 13.1528 5.32407C13.2555 5.36664 13.3434 5.43874 13.4052 5.53124C13.467 5.62374 13.5 5.7325 13.5 5.84375C13.4998 5.99288 13.4405 6.13585 13.3351 6.2413C13.2296 6.34675 13.0866 6.40607 12.9375 6.40625Z" fill="#91563A"/>
<path d="M10.125 6.40625C10.0137 6.40625 9.90499 6.37326 9.81249 6.31145C9.71999 6.24964 9.64789 6.16179 9.60532 6.05901C9.56274 5.95623 9.5516 5.84313 9.57331 5.73401C9.59501 5.6249 9.64859 5.52467 9.72725 5.446C9.80592 5.36734 9.90615 5.31376 10.0153 5.29206C10.1244 5.27035 10.2375 5.28149 10.3403 5.32407C10.443 5.36664 10.5309 5.43874 10.5927 5.53124C10.6545 5.62374 10.6875 5.7325 10.6875 5.84375C10.6873 5.99288 10.628 6.13585 10.5226 6.2413C10.4171 6.34675 10.2741 6.40607 10.125 6.40625Z" fill="#91563A"/>
<path d="M10.4062 1.34375H12.6562C13.1038 1.34375 13.533 1.52154 13.8495 1.83801C14.166 2.15447 14.3438 2.5837 14.3438 3.03125V4.15625H8.71875V3.03125C8.71875 2.5837 8.89654 2.15447 9.21301 1.83801C9.52947 1.52154 9.9587 1.34375 10.4062 1.34375Z" fill="#C7483C"/>
<path d="M13.4297 5C13.1045 4.99999 12.7824 4.93794 12.4805 4.81719C11.8711 4.57345 11.1914 4.57345 10.582 4.81719C10.2801 4.93794 9.95797 4.99999 9.63281 5C9.39039 5 9.15789 4.9037 8.98647 4.73228C8.81505 4.56086 8.71875 4.32836 8.71875 4.08594V3.875L9.33898 3.66825C10.0459 3.43262 10.7861 3.3125 11.5312 3.3125C12.2764 3.3125 13.0166 3.43262 13.7235 3.66825L14.3438 3.875V4.08594C14.3438 4.32836 14.2474 4.56086 14.076 4.73228C13.9046 4.9037 13.6721 5 13.4297 5Z" fill="#D65246"/>
<path d="M11.2008 8.09377H10.9688V7.53127H11.2008C11.5593 7.53084 11.9128 7.44739 12.2336 7.28746L12.2491 7.27972L12.5006 7.78281L12.4852 7.79054C12.0862 7.98945 11.6466 8.09324 11.2008 8.09377Z" fill="#FCB079"/>
<path d="M8.4375 5H8.71875V6.6875H8.4375C8.21372 6.6875 7.99911 6.59861 7.84088 6.44037C7.68264 6.28214 7.59375 6.06753 7.59375 5.84375C7.59375 5.61997 7.68264 5.40536 7.84088 5.24713C7.99911 5.08889 8.21372 5 8.4375 5Z" fill="#FDB683"/>
<path d="M14.625 6.6875H14.3438V5H14.625C14.8488 5 15.0634 5.08889 15.2216 5.24713C15.3799 5.40536 15.4688 5.61997 15.4688 5.84375C15.4688 6.06753 15.3799 6.28214 15.2216 6.44037C15.0634 6.59861 14.8488 6.6875 14.625 6.6875Z" fill="#FDB683"/>
<path d="M11.25 12.875H11.8125V15.4062H11.25V12.875Z" fill="#C7483C"/>
<path d="M10.125 13.7188H10.6875V14.2812H10.125V13.7188Z" fill="#DF6257"/>
<path d="M14.625 14H15.1875V15.125H14.625V14Z" fill="#C7483C"/>
<path d="M12.375 15.6875H14.0625V16.25H12.375V15.6875Z" fill="#C7483C"/>
<path d="M0.84375 7.8125H8.71875V9.5H0.84375V7.8125Z" fill="#FFB431"/>
<path d="M5.34375 7.8125H8.71875V9.5H5.34375V7.8125Z" fill="#F99E0C"/>
<path d="M3.09375 8.65625C2.86997 8.65625 2.65536 8.56736 2.49713 8.40912C2.33889 8.25089 2.25 8.03628 2.25 7.8125H3.9375C3.9375 8.03628 3.84861 8.25089 3.69037 8.40912C3.53214 8.56736 3.31753 8.65625 3.09375 8.65625Z" fill="#F99E0C"/>
<path d="M0.84375 9.5H8.71875V11.1875H0.84375V9.5Z" fill="#FFB431"/>
<path d="M5.34375 9.5H8.71875V11.1875H5.34375V9.5Z" fill="#F99E0C"/>
<path d="M3.09375 10.3438C2.86997 10.3438 2.65536 10.2549 2.49713 10.0966C2.33889 9.93839 2.25 9.72378 2.25 9.5H3.9375C3.9375 9.72378 3.84861 9.93839 3.69037 10.0966C3.53214 10.2549 3.31753 10.3438 3.09375 10.3438Z" fill="#F99E0C"/>
<path d="M0.84375 9.21875H5.34375V9.78125H0.84375V9.21875Z" fill="#F99E0C"/>
<path d="M5.34375 9.21875H8.71875V9.78125H5.34375V9.21875Z" fill="#F4970C"/>
</svg>
