<svg width="18" height="19" viewBox="0 0 18 19" fill="none" xmlns="http://www.w3.org/2000/svg">
<path d="M10.9688 4.15625H9.5625L9 5.5625H10.4062L10.9688 4.15625Z" fill="#639AFF"/>
<path d="M10.6875 8.9375H11.9696C12.0967 8.9375 12.2225 8.96254 12.34 9.01118C12.4574 9.05982 12.5641 9.13112 12.654 9.221C12.7439 9.31088 12.8152 9.41758 12.8638 9.53502C12.9125 9.65245 12.9375 9.77832 12.9375 9.90543V10.0625L11.8125 13.7188H10.6875L11.25 10.0625H8.4375C8.13913 10.0625 7.85298 9.94397 7.64201 9.73299C7.43103 9.52202 7.3125 9.23587 7.3125 8.9375C7.3125 8.74857 7.33154 8.56012 7.36932 8.375H10.6875V8.9375Z" fill="#FFCEB6"/>
<path d="M10.6875 8.9375H11.9696C12.0967 8.9375 12.2225 8.96254 12.34 9.01118C12.4574 9.05982 12.5641 9.13112 12.654 9.221C12.7439 9.31088 12.8152 9.41758 12.8638 9.53502C12.9125 9.65245 12.9375 9.77832 12.9375 9.90543V10.0625L11.8125 13.7188H10.6875L11.25 10.0625H8.4375C8.13913 10.0625 7.85298 9.94397 7.64201 9.73299C7.43103 9.52202 7.3125 9.23587 7.3125 8.9375C7.3125 8.74857 7.33154 8.56012 7.36932 8.375H10.6875V8.9375Z" fill="#718799"/>
<path d="M12.9377 8.33984C12.9377 8.41833 12.9222 8.49605 12.8922 8.56856C12.8622 8.64108 12.8181 8.70697 12.7626 8.76247C12.7071 8.81796 12.6413 8.86199 12.5687 8.89202C12.4962 8.92205 12.4185 8.93751 12.34 8.9375H10.3846C10.2159 8.9375 10.0493 8.89955 9.89725 8.82646C9.74518 8.75337 9.61148 8.64702 9.50607 8.51527L9.39392 8.375H7.36963C7.40583 8.19718 7.45916 8.02328 7.52888 7.85574L8.41587 5.72703C8.52089 5.47494 8.71001 5.26702 8.95105 5.13865C9.19209 5.01028 9.47017 4.96939 9.73796 5.02293C10.0057 5.07647 10.2467 5.22114 10.4199 5.43232C10.593 5.64351 10.6877 5.90816 10.6877 6.18125V7.53125L11.5314 7.63672L12.4142 7.74711C12.5588 7.76498 12.6918 7.83512 12.7882 7.9443C12.8847 8.05348 12.9378 8.19417 12.9377 8.33984Z" fill="#FFCEB6"/>
<path d="M11.5314 7.63672V8.9375H10.3846C10.2159 8.9375 10.0493 8.89955 9.89725 8.82646C9.74518 8.75337 9.61148 8.64702 9.50607 8.51527L9.39392 8.375H7.36963C7.40583 8.19718 7.45916 8.02328 7.52888 7.85574L8.41587 5.72703C8.52089 5.47494 8.71001 5.26702 8.95105 5.13865C9.19209 5.01028 9.47017 4.96939 9.73796 5.02293C10.0057 5.07647 10.2467 5.22114 10.4199 5.43232C10.593 5.64351 10.6877 5.90816 10.6877 6.18125V7.53125L11.5314 7.63672Z" fill="#7DAFFF"/>
<path d="M0.84375 6.125H5.90625V11.1875H0.84375V6.125Z" fill="#FFC431"/>
<path d="M3.65625 8.09375H3.09375V7.25C3.09375 7.17541 3.12338 7.10387 3.17613 7.05113C3.22887 6.99838 3.30041 6.96875 3.375 6.96875C3.44959 6.96875 3.52113 6.99838 3.57387 7.05113C3.62662 7.10387 3.65625 7.17541 3.65625 7.25V8.09375Z" fill="#FFA100"/>
<path d="M3.375 12.5938L2.53125 11.75V11.1875H4.78125L3.375 12.5938Z" fill="#EF5E3B"/>
<path d="M3.375 16.8125C4.30698 16.8125 5.0625 16.057 5.0625 15.125C5.0625 14.193 4.30698 13.4375 3.375 13.4375C2.44302 13.4375 1.6875 14.193 1.6875 15.125C1.6875 16.057 2.44302 16.8125 3.375 16.8125Z" fill="#B6CAF0"/>
<path d="M3.375 17.0938C2.98562 17.0938 2.60498 16.9783 2.28122 16.762C1.95746 16.5456 1.70512 16.2382 1.55611 15.8784C1.4071 15.5187 1.36812 15.1228 1.44408 14.7409C1.52004 14.359 1.70755 14.0082 1.98288 13.7329C2.25822 13.4575 2.60902 13.27 2.99092 13.1941C3.37282 13.1181 3.76867 13.1571 4.12841 13.3061C4.48815 13.4551 4.79563 13.7075 5.01196 14.0312C5.22829 14.355 5.34375 14.7356 5.34375 15.125C5.34317 15.647 5.13556 16.1474 4.76647 16.5165C4.39739 16.8856 3.89697 17.0932 3.375 17.0938ZM3.375 13.7188C3.09687 13.7188 2.82499 13.8012 2.59373 13.9557C2.36247 14.1103 2.18223 14.3299 2.0758 14.5869C1.96936 14.8438 1.94151 15.1266 1.99577 15.3993C2.05003 15.6721 2.18396 15.9227 2.38063 16.1194C2.5773 16.316 2.82787 16.45 3.10066 16.5042C3.37344 16.5585 3.65619 16.5306 3.91315 16.4242C4.17011 16.3178 4.38973 16.1375 4.54426 15.9063C4.69878 15.675 4.78125 15.4031 4.78125 15.125C4.78082 14.7522 4.63253 14.3947 4.3689 14.1311C4.10527 13.8675 3.74783 13.7192 3.375 13.7188Z" fill="#718799"/>
<path d="M15.4688 16.8125C16.4007 16.8125 17.1562 16.057 17.1562 15.125C17.1562 14.193 16.4007 13.4375 15.4688 13.4375C14.5368 13.4375 13.7812 14.193 13.7812 15.125C13.7812 16.057 14.5368 16.8125 15.4688 16.8125Z" fill="#B6CAF0"/>
<path d="M15.4688 17.0938C15.0794 17.0938 14.6987 16.9783 14.375 16.762C14.0512 16.5456 13.7989 16.2382 13.6499 15.8784C13.5009 15.5187 13.4619 15.1228 13.5378 14.7409C13.6138 14.359 13.8013 14.0082 14.0766 13.7329C14.352 13.4575 14.7028 13.27 15.0847 13.1941C15.4666 13.1181 15.8624 13.1571 16.2222 13.3061C16.5819 13.4551 16.8894 13.7075 17.1057 14.0312C17.322 14.355 17.4375 14.7356 17.4375 15.125C17.4369 15.647 17.2293 16.1474 16.8602 16.5165C16.4911 16.8856 15.9907 17.0932 15.4688 17.0938ZM15.4688 13.7188C15.1906 13.7188 14.9187 13.8012 14.6875 13.9557C14.4562 14.1103 14.276 14.3299 14.1695 14.5869C14.0631 14.8438 14.0353 15.1266 14.0895 15.3993C14.1438 15.6721 14.2777 15.9227 14.4744 16.1194C14.671 16.316 14.9216 16.45 15.1944 16.5042C15.4672 16.5585 15.7499 16.5306 16.0069 16.4242C16.2639 16.3178 16.4835 16.1375 16.638 15.9063C16.7925 15.675 16.875 15.4031 16.875 15.125C16.8746 14.7522 16.7263 14.3947 16.4626 14.1311C16.199 13.8675 15.8416 13.7192 15.4688 13.7188Z" fill="#718799"/>
<path d="M13.2188 13.7188L15.0128 15.5128C15.0682 15.5682 15.1339 15.6121 15.2063 15.6421C15.2787 15.6721 15.3563 15.6875 15.4346 15.6875C15.513 15.6875 15.5906 15.6721 15.6629 15.6421C15.7353 15.6121 15.8011 15.5682 15.8565 15.5128C15.9119 15.4574 15.9559 15.3916 15.9858 15.3192C16.0158 15.2468 16.0312 15.1692 16.0312 15.0909C16.0312 15.0125 16.0158 14.9349 15.9858 14.8626C15.9559 14.7902 15.9119 14.7244 15.8565 14.669L14.0625 12.875L13.2188 13.7188Z" fill="#D1E4FF"/>
<path d="M13.7812 12.0312H16.3125C16.5363 12.0312 16.7509 12.1201 16.9091 12.2784C17.0674 12.4366 17.1562 12.6512 17.1562 12.875V13.4375H13.7812V12.0312Z" fill="#548AFF"/>
<path d="M16.0312 11.1875V12.0312H14.9062L12.9375 15.9688H7.3125V14.2812H9L10.4143 14.5382L12.0938 14.8438L13.5 12.0312L12.9375 9.21875H13.7812L14.9062 10.9062L16.0312 11.1875Z" fill="#4F7FF7"/>
<path d="M1.6875 9.21875H5.0625C5.0625 9.44253 4.97361 9.65714 4.81537 9.81537C4.65714 9.9736 4.44253 10.0625 4.21875 10.0625H2.53125C2.30747 10.0625 2.09286 9.9736 1.93463 9.81537C1.77639 9.65714 1.6875 9.44253 1.6875 9.21875Z" fill="#FFA100"/>
<path d="M4.5 9.21875V8.9375C4.5 8.63913 4.38147 8.35298 4.1705 8.14201C3.95952 7.93103 3.67337 7.8125 3.375 7.8125C3.07663 7.8125 2.79048 7.93103 2.5795 8.14201C2.36853 8.35298 2.25 8.63913 2.25 8.9375V9.21875H4.5Z" fill="#FFB401"/>
<path d="M3.9375 11.1875H10.4062V12.0312C10.4062 12.7026 10.1396 13.3464 9.66486 13.8211C9.19016 14.2958 8.54633 14.5625 7.875 14.5625H4.5L2.8125 12.875L3.9375 11.1875Z" fill="#548AFF"/>
<path d="M5.90625 10.0625H9.5625C9.78628 10.0625 10.0009 10.1514 10.1591 10.3096C10.3174 10.4679 10.4062 10.6825 10.4062 10.9062V11.1875H5.90625V10.0625Z" fill="#486BE0"/>
<path d="M4.78125 15.6875H2.8125V14.5625H3.9375L4.78125 15.6875Z" fill="#D1E4FF"/>
<path d="M12.9375 9.21875V7.8125H14.0625L14.9062 8.375L14.625 9.21875H12.9375Z" fill="#548AFF"/>
<path d="M11.0227 7.57309L10.3515 7.48942L9.5918 5.96961L10.0952 5.7179L11.0227 7.57309Z" fill="#639AFF"/>
<path d="M11.25 3.875V5H9.84375L8.4375 4.15625V3.3125C8.43754 3.01414 8.55608 2.72802 8.76705 2.51705C8.97802 2.30608 9.26414 2.18754 9.5625 2.1875C9.78414 2.18738 10.0036 2.23095 10.2084 2.31571C10.4132 2.40047 10.5993 2.52477 10.756 2.68149C10.9127 2.83822 11.037 3.02429 11.1218 3.22908C11.2066 3.43387 11.2501 3.65336 11.25 3.875Z" fill="#548AFF"/>
<path d="M11.25 3.875V4.4375L9.5625 3.59375V3.03125H11.0243C11.1727 3.28764 11.2506 3.57876 11.25 3.875Z" fill="#9CE6ED"/>
<path d="M12.3752 14.2812L12.094 14.8438L10.4146 14.5382L10.6877 13.7188H11.8127L12.3752 14.2812Z" fill="#E0EDFF"/>
<path d="M12.375 5.84375H13.2188C13.3679 5.84375 13.511 5.90301 13.6165 6.0085C13.722 6.11399 13.7812 6.25707 13.7812 6.40625V6.96875H12.9375C12.7883 6.96875 12.6452 6.90949 12.5398 6.804C12.4343 6.69851 12.375 6.55543 12.375 6.40625V5.84375Z" fill="#718799"/>
<path d="M13.2188 6.96875H13.7812V7.8125H13.2188V6.96875Z" fill="#62798C"/>
<path d="M14.9062 12.0312V10.9062L16.0312 11.1875V12.0312H14.9062Z" fill="#7DAFFF"/>
<path d="M7.3125 15.9688H4.78125L3.375 14.5625H7.3125V15.9688Z" fill="#E0EDFF"/>
<path d="M11.5311 8.93749H10.3843C10.1734 8.93799 9.965 8.89078 9.77485 8.79938C9.58469 8.70798 9.41766 8.57477 9.28626 8.4097L8.49902 7.4257L8.93827 7.07428L9.72551 8.05831C9.80435 8.15735 9.90456 8.23728 10.0187 8.29212C10.1327 8.34696 10.2578 8.37529 10.3843 8.37499H11.5311V8.93749Z" fill="#639AFF"/>
</svg>
