<svg width="18" height="19" viewBox="0 0 18 19" fill="none" xmlns="http://www.w3.org/2000/svg">
<g clip-path="url(#clip0_1567_1293)">
<path d="M17.4574 14.7727L11.941 9.25635L11.0872 9.39354L10.7826 8.0979L3.34316 0.658469C3.13187 0.447177 2.78614 0.447177 2.57489 0.658469L1.05438 2.17898V2.5631H0.670255L0.158469 3.07492C-0.0528229 3.28622 -0.0528229 3.63195 0.158469 3.8432L7.76917 11.4539L8.85591 11.7016L8.92588 12.6106L14.2727 17.9574C14.484 18.1687 14.8882 18.4723 15.222 18.1385L17.6385 15.722C17.9723 15.3882 17.6687 14.984 17.4574 14.7727Z" fill="#C7865B"/>
<path d="M10.7827 8.0979L7.76929 11.4539L8.92599 12.6106L11.9412 9.25635L10.7827 8.0979Z" fill="#B36D3C"/>
<path d="M17.8416 15.1569L17.4574 14.7727C17.6687 14.984 17.6687 15.3297 17.4574 15.541L15.041 17.9574C14.8297 18.1687 14.484 18.1687 14.2727 17.9574L14.6569 18.3416C14.8682 18.5528 15.2139 18.5528 15.4251 18.3416L15.6172 18.1495V17.7653H16.0014L17.8416 15.9251C18.0528 15.7138 18.0528 15.3681 17.8416 15.1569Z" fill="#B36D3C"/>
<path d="M10.1616 18.1652C10.0115 18.1652 9.88992 18.0436 9.88992 17.8936V17.6819H6.24331C6.0933 17.6819 5.97168 17.5603 5.97168 17.4103C5.97168 17.2603 6.0933 17.1387 6.24331 17.1387H9.88992V16.927C9.88992 16.777 10.0115 16.6553 10.1616 16.6553C10.3116 16.6553 10.4332 16.777 10.4332 16.927V17.8936C10.4332 18.0436 10.3116 18.1652 10.1616 18.1652Z" fill="#87A0AF"/>
<path d="M15.2328 17.7653L14.1904 16.7229C14.0843 16.6168 14.0843 16.4448 14.1904 16.3388C14.2965 16.2327 14.4685 16.2327 14.5746 16.3388L15.617 17.3812V17.7653H15.2328Z" fill="#B36D3C"/>
<path d="M13.9116 13.9781C13.8421 13.9781 13.7726 13.9516 13.7195 13.8985L10.5853 10.7643L10.2407 10.3351L9.81238 9.99136L5.79465 5.97363C5.68857 5.86755 5.68857 5.69555 5.79465 5.58951C5.90073 5.48343 6.07272 5.48343 6.17877 5.58951L10.1761 9.58681L10.5243 10.0196L10.949 10.3598L14.1037 13.5144C14.2098 13.6205 14.2098 13.7925 14.1037 13.8985C14.0506 13.9516 13.9811 13.9781 13.9116 13.9781Z" fill="#B36D3C"/>
<path d="M3.7026 5.48302C3.6331 5.48302 3.56357 5.45651 3.51054 5.40345L0.670166 2.56308L1.05429 2.17896L3.89463 5.01933C4.00071 5.12541 4.00071 5.29741 3.89463 5.40345C3.84161 5.45651 3.77211 5.48302 3.7026 5.48302Z" fill="#B36D3C"/>
<path d="M15.2295 17.7651L15.6136 17.3811L15.9977 17.7651L15.6136 18.1492L15.2295 17.7651Z" fill="#915041"/>
<path d="M9.8125 9.9914L10.5855 10.7644L10.9491 10.3598L10.1762 9.58685L9.8125 9.9914Z" fill="#915041"/>
<path d="M2.87048 18.1053L12.9458 7.32579L11.7008 6.08075L0.718233 15.9531C0.554784 16.1 0.486153 16.3285 0.550583 16.5386C0.649674 16.8618 0.860422 17.2047 1.12886 17.5136C1.51538 17.9001 1.96175 18.1739 2.28496 18.273C2.49509 18.3374 2.72355 18.2687 2.87048 18.1053Z" fill="#D8AB8C"/>
<path d="M12.556 6.93597L2.68944 17.9242C2.5425 18.0877 2.31404 18.1563 2.10391 18.0919C1.78071 17.9928 1.4378 17.7821 1.12891 17.5136C1.51571 17.9587 2.02235 18.3333 2.48807 18.476C2.6982 18.5405 2.92666 18.4718 3.07359 18.3084L12.9459 7.32585L12.556 6.93597Z" fill="#C7865B"/>
<path d="M10.8198 0.748051C10.6247 0.4749 10.231 0.44234 9.99363 0.679709L8.57638 2.09696C8.33901 2.33433 8.37157 2.72801 8.64472 2.92315L10.9413 4.5638L11.9814 3.98284L12.2713 2.77988L10.8198 0.748051Z" fill="#87A0AF"/>
<path d="M13.5342 4.54754L12.2714 2.77985L10.9414 4.56377L12.4443 5.63739L13.5342 4.54754Z" fill="#607882"/>
<path d="M12.7005 3.1036L10.7032 5.78263C10.5419 5.99888 10.5638 6.30072 10.7546 6.49147L12.1683 7.90522C12.3188 8.05574 12.7245 8.28553 12.9239 8.21096L14.539 7.60668C15.1158 7.39089 15.6471 7.73847 15.9776 8.15635C16.5605 8.89344 16.7345 9.68302 16.9134 10.4417C16.928 10.5036 16.948 10.5605 16.9719 10.6134C17.1545 10.796 17.4342 10.9069 17.5753 10.9066C17.7188 10.9062 17.8348 10.7845 17.833 10.641C17.8108 8.7925 17.6297 7.15367 15.6653 5.18924C14.9709 4.49489 14.0559 3.57989 13.5201 3.04409C13.286 2.80991 12.8985 2.83805 12.7005 3.1036Z" fill="#87A0AF"/>
<path d="M14.3581 7.42557L12.7429 8.02986C12.5436 8.10447 12.319 8.05572 12.1685 7.9052L12.5526 8.28932C12.7031 8.43984 12.9277 8.48859 13.1271 8.41398L14.7422 7.80966C15.1855 7.64382 15.6842 7.78503 15.9778 8.15626C15.4484 7.487 15.0372 7.17151 14.3581 7.42557Z" fill="#607882"/>
<path d="M17.358 10.6893C17.2168 10.6896 17.0865 10.6638 16.9718 10.6134C17.1095 10.9188 17.3936 11.0743 17.7422 11.0734C17.8856 11.073 18.0016 10.9513 17.9999 10.8079C17.9799 9.15485 17.9148 7.43884 16.0494 5.57335C15.9333 5.45731 15.8036 5.32758 15.6653 5.18927C17.5307 7.05471 17.5958 8.77073 17.6157 10.4238C17.6174 10.5671 17.5014 10.6889 17.358 10.6893Z" fill="#607882"/>
</g>
<defs>
<clipPath id="clip0_1567_1293">
<rect width="18" height="18" fill="white" transform="translate(0 0.5)"/>
</clipPath>
</defs>
</svg>
