<svg width="18" height="19" viewBox="0 0 18 19" fill="none" xmlns="http://www.w3.org/2000/svg">
<g clip-path="url(#clip0_1567_1139)">
<path d="M8.59404 6.58884L6.60106 6.15009H4.81927L2.8263 6.58884C2.0819 6.808 1.5708 7.4913 1.5708 8.2673V10.0274C1.5708 10.2001 1.71076 10.3401 1.88345 10.3401H9.53693C9.70958 10.3401 9.84957 10.2001 9.84957 10.0274V8.2673C9.84953 7.4913 9.33843 6.808 8.59404 6.58884Z" fill="#FFC265"/>
<path d="M8.5941 6.58884L6.60112 6.15009H4.81934L7.33034 7.00639C8.07473 7.22555 8.58584 7.90885 8.58584 8.68485V10.3401H9.53695C9.70961 10.3401 9.8496 10.2001 9.8496 10.0274V8.2673C9.8496 7.4913 9.3385 6.808 8.5941 6.58884Z" fill="#FFA812"/>
<path d="M6.60112 6.15012V4.92609H4.81934V6.15012C4.81934 6.64213 5.21822 7.04102 5.71023 7.04102C6.20228 7.04102 6.60112 6.64213 6.60112 6.15012Z" fill="#FFF3DE"/>
<path d="M7.95234 2.59897H7.50508V2.37239C7.50508 1.88734 7.30596 1.41734 6.9384 1.10086C6.65022 0.852727 6.24515 0.636165 5.71007 0.630188C5.175 0.636165 4.76993 0.852727 4.48175 1.10086C4.11419 1.41734 3.91507 1.88734 3.91507 2.37239V2.55643H3.46777V3.42166C3.46777 3.66895 3.66823 3.86941 3.91552 3.86941C3.92565 4.34089 4.12379 4.79473 4.48171 5.10294C4.76989 5.35107 5.17496 5.66031 5.71004 5.66629C6.24512 5.66031 6.65019 5.35107 6.93836 5.10294C7.29632 4.79473 7.49443 4.34093 7.50455 3.86941C7.75184 3.86941 7.9523 3.66895 7.9523 3.42166L7.95234 2.59897Z" fill="#FFF3DE"/>
<path d="M7.50521 2.59896V2.37238C7.50521 1.88732 7.30608 1.41732 6.93852 1.10084C6.86202 1.03496 6.77698 0.971469 6.68374 0.913391C6.72808 1.06857 6.75135 1.23064 6.75135 1.39457L6.75086 3.86936C6.74073 4.34084 6.54259 4.79468 6.18467 5.10289C5.96849 5.28901 5.68654 5.50954 5.33325 5.61062C5.45092 5.6443 5.5765 5.66472 5.71016 5.6662C6.24524 5.66022 6.65031 5.35099 6.93849 5.10286C7.29645 4.79464 7.49455 4.34084 7.50468 3.86933C7.75197 3.86933 7.95243 3.66887 7.95243 3.42158V2.59892L7.50521 2.59896Z" fill="#FFE5C2"/>
<path d="M7.9523 2.9384C7.9523 2.9384 7.51461 2.8079 7.18344 2.44066C6.98607 2.22181 6.66692 2.16437 6.41032 2.30932C5.74685 2.68408 4.5323 3.19589 3.46777 2.69853V2.0441C3.46774 1.19131 4.15909 0.5 5.01187 0.5H5.93001C6.13378 0.5 6.33192 0.566762 6.49409 0.690125C6.65047 0.809023 6.84042 0.875469 7.0368 0.880004C7.54579 0.891676 7.9523 1.30764 7.9523 1.81674V2.9384Z" fill="#3E5959"/>
<path d="M7.03694 0.879975C6.89825 0.876775 6.76308 0.842146 6.64038 0.780518C6.71347 0.974721 6.75133 1.1832 6.75133 1.39459L6.75116 2.23113C6.91231 2.24098 7.06862 2.31322 7.18354 2.4407C7.51472 2.80791 7.95241 2.93844 7.95241 2.93844V1.81675C7.95245 1.30762 7.5459 0.891646 7.03694 0.879975Z" fill="#384949"/>
<path d="M2.34352 18.5H1.72136C1.52508 18.5 1.36597 18.3409 1.36597 18.1446V14.6606H2.69895V18.1446C2.69895 18.3409 2.53983 18.5 2.34352 18.5Z" fill="#EFE2DD"/>
<path d="M14.6794 15.7252H1.11392C0.499143 15.7252 0.000732422 15.2269 0.000732422 14.612V9.84707C0.000732422 9.2323 0.499107 8.73389 1.11392 8.73389H14.6794C15.2942 8.73389 15.7926 9.23226 15.7926 9.84707V14.6121C15.7926 15.2269 15.2942 15.7252 14.6794 15.7252Z" fill="#FFF5F5"/>
<path d="M11.4864 11.9262V10.7022H9.70459V11.9262C9.70459 12.4183 11.4864 12.4183 11.4864 11.9262Z" fill="#FFF3DE"/>
<path d="M14.6794 8.73389H14.5915V14.612C14.5915 15.2268 14.0931 15.7252 13.4783 15.7252H14.6794C15.2942 15.7252 15.7926 15.2269 15.7926 14.612V9.84707C15.7926 9.23226 15.2942 8.73389 14.6794 8.73389Z" fill="#EFE2DD"/>
<path d="M13.4793 12.365L11.4863 11.9263H9.70453L7.71155 12.365C6.96716 12.5842 6.45605 13.2675 6.45605 14.0435V17.9013C6.45605 18.232 6.72412 18.5 7.05477 18.5H14.136C14.4667 18.5 14.7348 18.2319 14.7348 17.9013V14.0435C14.7348 13.2675 14.2237 12.5842 13.4793 12.365Z" fill="#6BDAE8"/>
<path d="M13.4794 12.365L11.4864 11.9263H9.70459L12.2782 12.7341C13.0226 12.9532 13.5337 13.6365 13.5337 14.4125V18.2703C13.5337 18.3517 13.5174 18.4292 13.4879 18.5H14.1361C14.4668 18.5 14.7349 18.2319 14.7349 17.9013V14.0435C14.7349 13.2675 14.2238 12.5842 13.4794 12.365Z" fill="#00C8DE"/>
<path d="M12.6047 7.55172C12.6047 7.09547 12.2404 6.72267 11.7842 6.71223C11.3106 6.70136 11.2744 6.3717 10.7923 6.3717H9.96951C9.20525 6.3717 8.58569 6.99126 8.58569 7.75552L8.58706 9.00473C8.58974 10.1142 9.49128 11.1064 10.6007 11.1038C11.7101 11.1011 12.6074 10.1045 12.6047 8.99506L12.6047 7.55172Z" fill="#3E5959"/>
<path d="M11.7842 6.71222C11.3976 6.70336 11.3023 6.48212 11.0182 6.40112C11.2503 6.55075 11.4036 6.81136 11.4036 7.1072V9.20237C11.4055 9.99001 10.9536 10.7203 10.2944 11.0789C10.3943 11.0955 10.4966 11.104 10.6007 11.1038C11.7101 11.1011 12.6073 10.1045 12.6047 8.99506V7.55175C12.6047 7.09546 12.2404 6.7227 11.7842 6.71222Z" fill="#384949"/>
<path d="M17.3991 0.506042H12.781C12.4496 0.506042 12.1809 0.774706 12.1809 1.10612V3.47745C12.1809 3.80887 12.4496 4.07753 12.781 4.07753H14.4208C14.747 4.07753 15.0115 4.34201 15.0115 4.66826V5.49246C15.0115 5.65151 15.2135 5.71968 15.3098 5.59315L16.2869 4.31034C16.3987 4.16366 16.5725 4.07757 16.7569 4.07757H17.3991C17.7305 4.07757 17.9992 3.8089 17.9992 3.47748V1.10612C17.9992 0.774706 17.7305 0.506042 17.3991 0.506042Z" fill="#98DB7C"/>
<path d="M16.7568 4.07751H15.5493C15.369 4.07751 15.199 4.16171 15.0897 4.30519L15.0115 4.40791V4.66825V5.49245C15.0115 5.65149 15.2134 5.71966 15.3098 5.59314L16.2869 4.31032C16.3986 4.16361 16.5724 4.07751 16.7568 4.07751Z" fill="#6ACB44"/>
<path d="M16.7982 0.853562V4.07753H17.3992C17.7307 4.07753 17.9993 3.80887 17.9993 3.47745V1.10612C17.9993 0.774706 17.7307 0.506042 17.3992 0.506042H16.4507C16.6426 0.506042 16.7982 0.661644 16.7982 0.853562Z" fill="#6ACB44"/>
<path d="M6.45605 16.8265V17.9013C6.45605 18.232 6.72412 18.5 7.05477 18.5H14.136C14.4667 18.5 14.7348 18.232 14.7348 17.9013V16.8265C14.7348 15.7069 13.8272 14.7994 12.7077 14.7994H8.48313C7.36361 14.7994 6.45605 15.7069 6.45605 16.8265Z" fill="#FF646F"/>
<path d="M12.7077 14.7994H11.5066C12.6261 14.7994 13.5337 15.7069 13.5337 16.8265V18.5H14.1361C14.4667 18.5 14.7348 18.232 14.7348 17.9013V16.8265C14.7348 15.7069 13.8272 14.7994 12.7077 14.7994Z" fill="#FF4755"/>
</g>
<defs>
<clipPath id="clip0_1567_1139">
<rect width="18" height="18" fill="white" transform="translate(0 0.5)"/>
</clipPath>
</defs>
</svg>
