<svg width="16" height="15" viewBox="0 0 16 15" fill="none" xmlns="http://www.w3.org/2000/svg">
<path d="M15.035 11.8255C14.8227 12.3072 14.799 12.8509 14.9684 13.3493L15.1912 14.0023C15.2108 14.0591 15.2094 14.1211 15.1873 14.177C15.1652 14.2328 15.1239 14.279 15.0708 14.3071C14.3776 14.3028 12.0976 14.3788 12.0976 14.3788L12.1565 14.0894C12.1695 13.7723 12.1025 13.4571 11.9618 13.1726C11.7223 12.4953 11.3979 11.8717 11.4983 11.1904C11.5655 10.7424 11.7432 10.3181 12.0156 9.95605C12.207 9.64567 12.9171 8.49511 13.0963 8.20696C13.1377 8.11719 13.1992 8.03816 13.276 7.97599C13.3528 7.91381 13.443 7.87016 13.5394 7.84842C13.6373 7.82658 13.7393 7.82993 13.8356 7.85815C13.9319 7.88638 14.0196 7.93855 14.0903 8.00981C14.161 8.08107 14.2125 8.16908 14.24 8.26563C14.2674 8.36219 14.27 8.46413 14.2474 8.56194L13.8057 9.88436C13.7244 10.1133 13.6262 10.5326 13.9834 10.5476C14.2626 10.5451 14.2238 10.239 14.2897 10.0483L14.7148 8.77545C14.8016 8.51229 14.7867 8.22616 14.6729 7.97348C14.5591 7.72081 14.3548 7.51994 14.1002 7.41049C14.1686 7.03793 14.2029 6.6599 14.2027 6.28111C14.2155 6.28367 14.5612 6.40915 14.5612 6.40915C14.7369 6.4737 14.895 6.5784 15.0231 6.7149C15.1511 6.8514 15.2455 7.01592 15.2987 7.19536L15.7802 8.79596C15.9344 9.31083 15.8999 9.86386 15.6829 10.3556L15.035 11.8255ZM4.33283 10.5476C4.25063 10.3403 4.13846 10.1462 3.99991 9.97142C3.80414 9.65571 3.08924 8.50166 2.90639 8.20694C2.84707 8.06418 2.73519 7.94965 2.59386 7.887C2.45253 7.82436 2.29254 7.81839 2.14693 7.87032C2.00132 7.92226 1.88121 8.02813 1.81142 8.16607C1.74163 8.30401 1.72748 8.46349 1.77189 8.61156C1.8554 8.90767 2.27501 9.98496 2.27561 10.2779C2.27755 10.3127 2.27234 10.3476 2.26032 10.3803C2.24829 10.413 2.2297 10.4429 2.20569 10.4682C2.18167 10.4934 2.15274 10.5135 2.12068 10.5272C2.08861 10.5408 2.05409 10.5478 2.01924 10.5476C1.74027 10.5451 1.77861 10.2389 1.713 10.0482L1.28788 8.77545C1.21229 8.54929 1.21212 8.30471 1.28739 8.07844C1.36266 7.85217 1.50931 7.65642 1.70531 7.52061C1.76582 7.47736 1.83113 7.44126 1.89994 7.41304C1.86326 7.21564 1.83676 7.01648 1.82055 6.81635C1.80496 6.6371 1.7973 6.46039 1.79751 6.28111C1.78469 6.28368 1.43897 6.40916 1.43897 6.40916C1.2633 6.4737 1.10513 6.5784 0.977074 6.7149C0.849023 6.8514 0.754631 7.01593 0.701424 7.19536L0.219969 8.79596C0.0657156 9.31084 0.100222 9.86386 0.317282 10.3556L0.965206 11.8255C1.17743 12.3072 1.20118 12.851 1.03177 13.3493L0.808977 14.0023C0.796789 14.0403 0.793528 14.0806 0.799449 14.12C0.805369 14.1594 0.820312 14.197 0.843113 14.2297C0.865914 14.2624 0.895958 14.2894 0.930905 14.3086C0.965852 14.3278 1.00476 14.3387 1.0446 14.3404C1.34582 14.3457 3.90258 14.4018 3.90258 14.4018L3.84112 14.0459C3.83904 13.7619 3.90028 13.4811 4.0204 13.2238C4.37637 12.338 4.74699 11.429 4.33283 10.5476ZM11.5982 9.65643C11.2742 10.0897 11.0653 10.5981 10.9912 11.1341C10.0919 11.6866 9.05694 11.9791 8.00137 11.9791C6.9458 11.9791 5.91087 11.6866 5.01148 11.1341C4.94446 10.6084 4.74242 10.109 4.42502 9.68458C4.2498 9.40494 3.44529 8.10149 3.28797 7.85096C3.19437 7.69776 3.06468 7.56981 2.91023 7.4783C2.75577 7.38679 2.58125 7.3345 2.40192 7.32601C2.25013 6.50467 2.28093 5.65998 2.49214 4.85188C2.70334 4.04377 3.08978 3.29203 3.62404 2.64999C4.15829 2.00795 4.82728 1.49134 5.58355 1.13679C6.33982 0.782243 7.16484 0.598451 8.00009 0.59845C8.83535 0.598448 9.66037 0.782238 10.4166 1.13678C11.1729 1.49133 11.8419 2.00794 12.3762 2.64998C12.9104 3.29202 13.2969 4.04375 13.5081 4.85186C13.7193 5.65997 13.7501 6.50465 13.5983 7.32599C13.0344 7.33086 12.7085 7.80914 12.4663 8.25303L11.5982 9.65643ZM4.05091 5.19658C4.09516 5.21927 4.16208 5.25938 4.20734 5.28493C4.52619 5.42193 4.80906 5.37309 5.24196 5.14149C6.12345 4.72405 7.08634 4.50667 8.06167 4.5049C9.03701 4.50313 10.0007 4.71701 10.8837 5.13125C11.0741 5.24797 11.2855 5.32627 11.506 5.36174C11.6681 5.38705 11.8331 5.38705 11.9951 5.36174C11.7892 4.47375 11.2931 3.67974 10.5854 3.10525C9.87765 2.53076 8.99861 2.20858 8.08725 2.18963C7.17589 2.17068 6.28422 2.45605 5.55321 3.00063C4.82221 3.5452 4.29358 4.31792 4.05091 5.19658ZM6.49171 10.103C6.54429 10.1245 6.60168 10.1315 6.65789 10.1233C6.71411 10.1151 6.76708 10.0919 6.8113 10.0562C6.85551 10.0206 6.88934 9.97367 6.90925 9.92047C6.92916 9.86726 6.93443 9.80968 6.9245 9.75374C6.85356 9.46677 6.80633 8.75753 6.5967 8.52962L5.78744 7.47707C5.69351 7.35424 5.56936 7.25783 5.42709 7.19724C5.28482 7.13665 5.12928 7.11395 4.97563 7.13135L4.48394 7.18515C4.4285 7.17766 4.37208 7.18417 4.3198 7.20408C4.26753 7.224 4.22107 7.25668 4.18467 7.29915C4.14827 7.34163 4.12308 7.39254 4.11141 7.44724C4.09973 7.50195 4.10194 7.55871 4.11782 7.61234C4.31034 8.1742 4.62219 8.68773 5.03197 9.11766C5.44175 9.54758 5.93973 9.88371 6.49171 10.103ZM8.00011 5.52821C7.6874 5.53088 7.38841 5.65699 7.16823 5.87906C6.94806 6.10112 6.82452 6.40118 6.82451 6.7139C6.82451 7.02662 6.94804 7.32668 7.16822 7.54875C7.38839 7.77083 7.68738 7.89693 8.00008 7.89962C8.31291 7.89712 8.61207 7.7711 8.8324 7.54901C9.05272 7.32692 9.17635 7.02676 9.17636 6.71392C9.17636 6.40108 9.05274 6.10092 8.83242 5.87883C8.6121 5.65673 8.31294 5.53071 8.00011 5.52821ZM11.8823 7.61233C11.8973 7.5675 11.9021 7.51989 11.8963 7.47299C11.8905 7.42608 11.8743 7.38106 11.8489 7.34121C11.8235 7.30136 11.7895 7.2677 11.7494 7.24267C11.7093 7.21765 11.6641 7.2019 11.6172 7.19658C11.559 7.18947 11.0932 7.13904 11.0245 7.13133C10.8709 7.11393 10.7154 7.13663 10.5731 7.19722C10.4308 7.25781 10.3067 7.35422 10.2127 7.47705L9.4009 8.52961C9.19587 8.76075 9.14687 9.46274 9.07568 9.75372C9.06574 9.80966 9.071 9.86724 9.09091 9.92045C9.11082 9.97366 9.14465 10.0206 9.18886 10.0562C9.23308 10.0919 9.28606 10.1151 9.34227 10.1233C9.39849 10.1315 9.45588 10.1245 9.50846 10.103C10.0604 9.88371 10.5584 9.54758 10.9682 9.11765C11.378 8.68773 11.6898 8.17419 11.8823 7.61233ZM8.00008 6.04038C7.82276 6.04237 7.65337 6.11421 7.52868 6.2403C7.40399 6.3664 7.33406 6.53658 7.33406 6.71392C7.33407 6.89125 7.404 7.06143 7.5287 7.18753C7.65339 7.31362 7.82278 7.38545 8.0001 7.38743C8.17743 7.38545 8.34682 7.31361 8.4715 7.18751C8.59619 7.06142 8.66613 6.89123 8.66612 6.7139C8.66612 6.53656 8.59618 6.36638 8.47149 6.24029C8.3468 6.1142 8.17741 6.04237 8.00008 6.04038Z" fill="url(#paint0_linear_1567_1315)"/>
<defs>
<linearGradient id="paint0_linear_1567_1315" x1="0.125084" y1="7.49999" x2="15.8751" y2="7.49999" gradientUnits="userSpaceOnUse">
<stop stop-color="#FFDE00"/>
<stop offset="1" stop-color="#FD5900"/>
</linearGradient>
</defs>
</svg>
