<svg width="18" height="19" viewBox="0 0 18 19" fill="none" xmlns="http://www.w3.org/2000/svg">
<g clip-path="url(#clip0_1567_1163)">
<path d="M4.88136 1.51062H4.7414C3.34396 1.51062 2.2132 2.64248 2.21492 4.04015L2.23055 16.8793H0.305085C0.136602 16.8793 0 17.0159 0 17.1844C0 17.3528 0.136602 17.4894 0.305085 17.4894H3.16525C3.33374 17.4894 3.47034 17.3528 3.47034 17.1844C3.47034 17.0159 3.33374 16.8793 3.16525 16.8793H2.84072L2.82508 4.03939C2.82379 2.97949 3.6813 2.12079 4.7414 2.12079H4.88136C5.93275 2.12079 6.78814 2.97617 6.78814 4.02757C6.78814 4.19605 6.92474 4.33265 7.09322 4.33265C7.2617 4.33265 7.3983 4.19605 7.3983 4.02757C7.3983 2.6397 6.26922 1.51062 4.88136 1.51062Z" fill="#42434D"/>
<path d="M8.92371 5.85804V6.08685C8.92371 6.25533 8.78711 6.39193 8.61863 6.39193H5.56778C5.3993 6.39193 5.2627 6.25533 5.2627 6.08685V5.88812C5.2627 4.90937 6.01919 4.08019 6.99668 4.03001C8.0514 3.97589 8.92371 4.81465 8.92371 5.85804Z" fill="#FADA86"/>
<path d="M7.2057 4.91265C6.70685 5.10646 6.29438 5.51707 6.11735 6.06679C6.05546 6.25892 5.88057 6.39193 5.67872 6.39193H5.56778C5.3993 6.39193 5.2627 6.25533 5.2627 6.08685V5.88816C5.2627 4.90442 6.0275 4.06845 7.01895 4.02917C7.53104 4.00892 7.68339 4.72709 7.2057 4.91265Z" fill="#FFE6A6"/>
<path d="M18 13.4802V16.1215C18 16.7084 17.524 17.1843 16.9371 17.1843H5.41025C4.82334 17.1843 4.34741 16.7084 4.34741 16.1215V13.4802C4.34741 12.8933 4.82334 12.4174 5.41025 12.4174H5.64402V10.1231C5.64402 9.38941 6.23894 8.79449 6.97267 8.79449H15.3776C16.1113 8.79449 16.7062 9.38941 16.7062 10.1231V12.4174H16.9371C17.524 12.4174 18 12.8933 18 13.4802Z" fill="#E84857"/>
<path d="M18 13.4802V16.1215C18 16.7084 17.524 17.1843 16.9371 17.1843H15.4067C15.4067 16.8131 15.4067 13.9137 15.4067 13.4802C15.4067 12.8933 15.8827 12.4174 16.4696 12.4174H16.9371C17.524 12.4174 18 12.8933 18 13.4802Z" fill="#FE4F60"/>
<path d="M15.4068 14.9343V17.1843H6.94067V14.9343H15.4068Z" fill="#FF6D7A"/>
<path d="M6.94063 17.1843H5.41025C4.82334 17.1843 4.34741 16.7084 4.34741 16.1215V13.4802C4.34741 12.8933 4.82334 12.4174 5.41025 12.4174H5.87779C6.4647 12.4174 6.94063 12.8933 6.94063 13.4802V17.1843Z" fill="#FE4F60"/>
<path d="M16.7062 11.6165H16.0096C15.2256 11.6165 14.5898 12.2522 14.5898 13.0363V14.9343H15.4067V13.4802C15.4067 12.8933 15.8826 12.4174 16.4695 12.4174H16.7062V11.6165Z" fill="#DE3747"/>
<path d="M15.3548 9.93783C14.2467 9.93753 12.1139 9.93855 8.11695 9.93855C7.38314 9.93855 6.78811 10.5334 6.78811 11.2672V12.9311C6.60163 12.6233 6.26375 12.4174 5.87781 12.4174H5.64404V10.1231C5.64404 9.38933 6.23888 8.79449 6.97269 8.79449C7.02756 8.79449 15.3466 8.79384 15.3901 8.79563C16.1284 8.82625 16.0937 9.93802 15.3548 9.93783Z" fill="#F06B78"/>
<path d="M7.75752 13.0363V14.9343H6.94065V13.4802C6.94065 12.8933 6.46472 12.4174 5.87781 12.4174H5.64404V11.6185C5.68348 11.6158 5.66155 11.6165 6.33773 11.6165C7.1218 11.6165 7.75752 12.2523 7.75752 13.0363Z" fill="#DE3747"/>
<path d="M6.17346 13.1801C5.58636 13.1801 5.11012 13.6562 5.11012 14.2433C5.11012 15.1351 5.10894 15.7365 5.10864 16.1468C5.10826 16.635 4.34741 16.6839 4.34741 16.1215V13.4802C4.34741 12.8933 4.82327 12.4174 5.41025 12.4174C5.89324 12.4174 6.07549 12.3927 6.34656 12.5261C6.66457 12.6826 6.57876 13.1801 6.17346 13.1801Z" fill="#FF6D7A"/>
<path d="M10.8687 8.79449H11.4788V14.9343H10.8687V8.79449Z" fill="#DE3747"/>
<path d="M10.8687 8.79449H11.4788V9.93818H10.8687V8.79449Z" fill="#E84857"/>
</g>
<defs>
<clipPath id="clip0_1567_1163">
<rect width="18" height="18" fill="white" transform="translate(0 0.5)"/>
</clipPath>
</defs>
</svg>
