<svg width="18" height="19" viewBox="0 0 18 19" fill="none" xmlns="http://www.w3.org/2000/svg">
<g clip-path="url(#clip0_1567_1258)">
<path d="M16.6501 16.6373H1.34985V3.16271L2.00126 2.41943H15.8782L16.6501 3.16271V16.6373Z" fill="#F9F6F9"/>
<path d="M15.8857 2.80054V16.6373H16.6503V3.16272L15.8857 2.80054Z" fill="#DDDAEC"/>
<path d="M14.509 0.5H3.49101C2.75874 0.5 2.10719 0.96466 1.86865 1.65696L1.34985 3.1627H16.6501L16.1313 1.65699C15.8928 0.96466 15.2412 0.5 14.509 0.5Z" fill="#80B4FB"/>
<path d="M16.1312 1.65696C15.8927 0.96466 15.2412 0.5 14.5089 0.5H13.7444C14.4766 0.5 15.1282 0.96466 15.3667 1.65696L15.8855 3.16266H16.65L16.1312 1.65696Z" fill="#61A2F9"/>
<path d="M16.6501 16.6373H1.34985V17.6156C1.34985 18.104 1.74585 18.5 2.23428 18.5H15.7657C16.2541 18.5 16.6501 18.104 16.6501 17.6156V16.6373H16.6501Z" fill="#407093"/>
<path d="M15.8856 16.6373V17.6155C15.8856 18.104 15.4897 18.5 15.0012 18.5H15.7657C16.2542 18.5 16.6502 18.104 16.6502 17.6155V16.6373H15.8856Z" fill="#365E7D"/>
<path d="M4.15865 2.41941C4.48345 2.41941 4.74674 2.15611 4.74674 1.83132C4.74674 1.50652 4.48345 1.24323 4.15865 1.24323C3.83386 1.24323 3.57056 1.50652 3.57056 1.83132C3.57056 2.15611 3.83386 2.41941 4.15865 2.41941Z" fill="#F9F6F9"/>
<path d="M6.75435 2.41941C7.07915 2.41941 7.34245 2.15611 7.34245 1.83132C7.34245 1.50652 7.07915 1.24323 6.75435 1.24323C6.42956 1.24323 6.16626 1.50652 6.16626 1.83132C6.16626 2.15611 6.42956 2.41941 6.75435 2.41941Z" fill="#F9F6F9"/>
<path d="M9.47252 2.10299H8.54798C8.39797 2.10299 8.27637 1.98138 8.27637 1.83137C8.27637 1.68136 8.39797 1.55975 8.54798 1.55975H9.47252C9.62257 1.55975 9.74414 1.68136 9.74414 1.83137C9.74414 1.98138 9.62257 2.10299 9.47252 2.10299Z" fill="#F9F6F9"/>
<path d="M11.951 2.10299H11.0265C10.8765 2.10299 10.7549 1.98138 10.7549 1.83137C10.7549 1.68136 10.8765 1.55975 11.0265 1.55975H11.951C12.1011 1.55975 12.2227 1.68136 12.2227 1.83137C12.2227 1.98138 12.1011 2.10299 11.951 2.10299Z" fill="#F9F6F9"/>
<path d="M14.4296 2.10299H13.505C13.355 2.10299 13.2334 1.98138 13.2334 1.83137C13.2334 1.68136 13.355 1.55975 13.505 1.55975H14.4296C14.5796 1.55975 14.7012 1.68136 14.7012 1.83137C14.7012 1.98138 14.5796 2.10299 14.4296 2.10299Z" fill="#F9F6F9"/>
<path d="M8.99319 14.8514C11.7278 14.8514 13.9446 12.6346 13.9446 9.89999C13.9446 7.16538 11.7278 4.94855 8.99319 4.94855C6.25858 4.94855 4.04175 7.16538 4.04175 9.89999C4.04175 12.6346 6.25858 14.8514 8.99319 14.8514Z" fill="#407093"/>
<path d="M8.99312 4.94855C8.84409 4.94855 8.69671 4.95551 8.55103 4.96841C11.0785 5.19211 13.0604 7.31442 13.0604 9.89999C13.0604 12.4856 11.0785 14.6079 8.55103 14.8316C8.69671 14.8445 8.84409 14.8514 8.99312 14.8514C11.7277 14.8514 13.9446 12.6346 13.9446 9.89995C13.9446 7.16532 11.7277 4.94855 8.99312 4.94855Z" fill="#365E7D"/>
<path d="M16.6501 5.46408H14.5366C14.2096 5.46408 13.9446 5.19904 13.9446 4.87209C13.9446 4.54513 14.2096 4.28009 14.5366 4.28009H16.6501V5.46408Z" fill="#80B4FB"/>
<path d="M15.8857 4.28009H16.6503V5.46408H15.8857V4.28009Z" fill="#61A2F9"/>
<path d="M1.34985 14.2595H3.46341C3.79037 14.2595 4.05541 14.5245 4.05541 14.8515C4.05541 15.1784 3.79037 15.4435 3.46341 15.4435H1.34985V14.2595Z" fill="#80B4FB"/>
<path d="M12.329 10.3716C12.1789 10.3716 12.0574 10.25 12.0574 10.1V9.70002C12.0574 9.54998 12.179 9.42841 12.329 9.42841C12.479 9.42841 12.6006 9.55001 12.6006 9.70002V10.1C12.6006 10.25 12.479 10.3716 12.329 10.3716Z" fill="#365E7D"/>
<path d="M8.75449 9.84847C9.48441 10.3341 10.3941 10.3422 11.1818 10.2004C11.1761 10.1631 11.1731 10.1251 11.1731 10.0866V9.71341C11.1731 9.40515 11.3614 9.12819 11.648 9.01482C12.0917 8.83928 12.2631 8.29886 11.9986 7.90177C11.3531 6.93279 10.2517 6.29365 9.00069 6.29108C7.03405 6.28704 5.41194 7.88208 5.38452 9.84851C5.38452 9.84847 7.1044 8.75079 8.75449 9.84847Z" fill="#F9F6F9"/>
<path d="M11.9987 7.90171C11.3532 6.93273 10.2518 6.29359 9.00078 6.29102C8.85773 6.29074 8.71657 6.29914 8.57764 6.31532C9.65736 6.43959 10.5921 7.04003 11.1661 7.90174C11.4306 8.29887 11.2593 8.83925 10.8155 9.01479C10.5289 9.1282 10.3407 9.40516 10.3407 9.71338C10.343 10.077 10.3293 10.1412 10.3663 10.2799C10.6442 10.2779 10.9198 10.2475 11.1818 10.2003C11.1674 10.1063 11.1755 10.0679 11.1732 9.71334C11.1732 9.40509 11.3614 9.12813 11.648 9.01475C12.0918 8.83922 12.2632 8.29883 11.9987 7.90171Z" fill="#DDDAEC"/>
<path d="M8.99325 13.5089C10.2489 13.5089 11.3547 12.8676 12.0011 11.8947C12.2642 11.4987 12.0903 10.9601 11.6483 10.7852L11.6481 10.7852C11.3973 10.6859 11.2218 10.4615 11.1819 10.2004C10.3942 10.3422 9.48452 10.334 8.75461 9.84847C7.10452 8.75075 5.38464 9.84847 5.38464 9.84847C5.35651 11.8652 6.98291 13.5089 8.99325 13.5089Z" fill="#80B4FB"/>
<path d="M11.6481 10.7852L11.6479 10.7852C11.3971 10.6859 11.2216 10.4615 11.1817 10.2004C10.9197 10.2476 10.6441 10.278 10.3662 10.2799C10.4266 10.5064 10.5906 10.6962 10.8154 10.7852L10.8156 10.7852C11.2577 10.9601 11.4315 11.4987 11.1684 11.8947C10.5944 12.7587 9.65796 13.3607 8.57617 13.4848C8.713 13.5006 8.85208 13.5089 8.99313 13.5089C10.2488 13.5089 11.3545 12.8676 12.001 11.8947C12.264 11.4987 12.0902 10.9601 11.6481 10.7852Z" fill="#61A2F9"/>
<path d="M3.89088 17.8403H3.02308C2.87307 17.8403 2.75146 17.7187 2.75146 17.5687C2.75146 17.4186 2.87307 17.2971 3.02308 17.2971H3.89091C4.04093 17.2971 4.16253 17.4187 4.16253 17.5687C4.16253 17.7187 4.04089 17.8403 3.89088 17.8403Z" fill="#365E7D"/>
<path d="M14.9631 17.8403H14.0953C13.9453 17.8403 13.8237 17.7187 13.8237 17.5687C13.8237 17.4186 13.9453 17.2971 14.0953 17.2971H14.9631C15.1132 17.2971 15.2348 17.4187 15.2348 17.5687C15.2348 17.7187 15.1132 17.8403 14.9631 17.8403Z" fill="#365E7D"/>
</g>
<defs>
<clipPath id="clip0_1567_1258">
<rect width="18" height="18" fill="white" transform="translate(0 0.5)"/>
</clipPath>
</defs>
</svg>
