<svg width="18" height="19" viewBox="0 0 18 19" fill="none" xmlns="http://www.w3.org/2000/svg">
<path d="M12.6562 17.375C12.6562 17.375 5.34375 17.375 5.34376 17.375C4.9723 17.3679 4.97683 16.8186 5.34375 16.8125H5.90625V16.5313C5.90625 15.9097 6.40968 15.4063 7.03125 15.4063H10.9688C11.5903 15.4063 12.0938 15.9097 12.0938 16.5313V16.8125H12.6562C13.0277 16.8199 13.0234 17.3684 12.6562 17.375ZM16.5938 8.9375C16.5938 10.3325 15.4575 11.4688 14.0625 11.4688C12.6675 11.4688 11.5312 10.3325 11.5312 8.9375C11.5312 8.78282 11.6578 8.65625 11.8125 8.65625H12.18L13.6566 4.71875H12.4706C11.9784 4.71875 11.4961 4.51853 11.1467 4.16944C10.7961 3.81892 10.336 3.6194 9.84375 3.59799V14.8438H8.15625V3.59799C7.66396 3.6194 7.20391 3.81892 6.85327 4.16944C6.50391 4.51853 6.02161 4.71875 5.52942 4.71875H4.34339L5.81996 8.65625H6.1875C6.34218 8.65625 6.46875 8.78282 6.46875 8.9375C6.46875 10.3325 5.33251 11.4688 3.9375 11.4688C2.54249 11.4688 1.40625 10.3325 1.40625 8.9375C1.40625 8.78282 1.53282 8.65625 1.6875 8.65625H2.05504L3.53161 4.71875H2.25C2.09454 4.71875 1.96875 4.59282 1.96875 4.4375C1.96875 4.28218 2.09454 4.15625 2.25 4.15625H5.52942C5.87357 4.15625 6.21112 4.01604 6.45557 3.77173C6.91224 3.31492 7.51371 3.05721 8.15625 3.03549V2.1875C8.15625 1.87811 8.40938 1.625 8.71875 1.625H9.28125C9.59062 1.625 9.84375 1.87811 9.84375 2.1875V3.03549C10.4863 3.05721 11.0878 3.31492 11.5444 3.77173C11.7889 4.01604 12.1264 4.15625 12.4706 4.15625C12.4706 4.15625 15.75 4.15625 15.75 4.15625C16.1238 4.16227 16.1143 4.71497 15.75 4.71875H14.4684L15.945 8.65625H16.3125C16.4672 8.65625 16.5938 8.78282 16.5938 8.9375ZM5.21911 8.65625L3.9375 5.23863L2.65589 8.65625H5.21911ZM15.3441 8.65625L14.0625 5.23854L12.7809 8.65625H15.3441Z" fill="url(#paint0_linear_1567_1134)"/>
<defs>
<linearGradient id="paint0_linear_1567_1134" x1="1.40625" y1="9.5" x2="16.5938" y2="9.5" gradientUnits="userSpaceOnUse">
<stop stop-color="#FFA68D"/>
<stop offset="1" stop-color="#FD3A84"/>
</linearGradient>
</defs>
</svg>
