<svg width="18" height="19" viewBox="0 0 18 19" fill="none" xmlns="http://www.w3.org/2000/svg">
<g clip-path="url(#clip0_1567_1211)">
<path d="M0.28125 16.25C0.28125 16.7721 0.488671 17.2729 0.857884 17.6421C1.2271 18.0113 1.72786 18.2188 2.25 18.2188H17.7188V14.2812H2.25C1.72786 14.2812 1.2271 14.4887 0.857884 14.8579C0.488671 15.2271 0.28125 15.7279 0.28125 16.25Z" fill="#E8F2FC"/>
<path d="M14.625 15.125H16.875V17.375H14.625V15.125Z" fill="#FFAB64"/>
<path d="M11.5312 15.125H13.7812V17.375H11.5312V15.125Z" fill="#FF86DB"/>
<path d="M8.4375 15.125H10.6875V17.375H8.4375V15.125Z" fill="#FF7FB2"/>
<path d="M5.34375 15.125H7.59375V17.375H5.34375V15.125Z" fill="#FF7890"/>
<path d="M0.54544 17.2344C0.806566 17.6864 1.23654 18.0163 1.74081 18.1513C2.24508 18.2864 2.78235 18.2157 3.23447 17.9547L16.631 10.2203L14.6622 6.81042L1.26572 14.5448C1.04182 14.6741 0.845572 14.8462 0.688196 15.0514C0.53082 15.2565 0.415393 15.4907 0.348508 15.7404C0.281623 15.9902 0.264589 16.2507 0.298379 16.507C0.332168 16.7633 0.41612 17.0105 0.54544 17.2344Z" fill="#DCE6F0"/>
<path d="M12.4045 9.08771L14.353 7.96271L15.478 9.91121L13.5295 11.0362L12.4045 9.08771Z" fill="#FFDD64"/>
<path d="M9.72534 10.6346L11.6738 9.50958L12.7988 11.4581L10.8503 12.5831L9.72534 10.6346Z" fill="#D4E76E"/>
<path d="M7.04614 12.1815L8.99464 11.0565L10.1196 13.005L8.17114 14.13L7.04614 12.1815Z" fill="#AAF078"/>
<path d="M4.36719 13.7281L6.31569 12.6031L7.44069 14.5516L5.49219 15.6766L4.36719 13.7281Z" fill="#A0E5A5"/>
<path d="M1.26573 17.9547C1.48962 18.084 1.73679 18.1679 1.99313 18.2017C2.24947 18.2355 2.50995 18.2185 2.75971 18.1516C3.00946 18.0847 3.2436 17.9693 3.44874 17.8119C3.65389 17.6545 3.82602 17.4583 3.95532 17.2344L11.6897 3.83789L8.27982 1.86914L0.545445 15.2656C0.28445 15.7178 0.213711 16.255 0.348784 16.7593C0.483857 17.2636 0.813682 17.6935 1.26573 17.9547Z" fill="#E8F2FC"/>
<path d="M7.46338 4.97052L8.58838 3.02202L10.5369 4.14702L9.41188 6.09552L7.46338 4.97052Z" fill="#B28EE4"/>
<path d="M5.9165 7.64972L7.0415 5.70122L8.99 6.82622L7.865 8.77472L5.9165 7.64972Z" fill="#6496FA"/>
<path d="M4.36938 10.3289L5.49438 8.38036L7.44288 9.50536L6.31788 11.4539L4.36938 10.3289Z" fill="#8CE0F9"/>
<path d="M2.82251 13.0081L3.94751 11.0596L5.89601 12.1846L4.77101 14.1331L2.82251 13.0081Z" fill="#78BBFA"/>
<path d="M4.21875 2.46875V1.34375C4.21875 1.19457 4.15949 1.05149 4.054 0.946002C3.94851 0.840513 3.80543 0.78125 3.65625 0.78125H0.84375C0.694566 0.78125 0.551492 0.840513 0.446002 0.946002C0.340513 1.05149 0.28125 1.19457 0.28125 1.34375V18.2188H4.21875V5.84375L3.375 5.28125V3.03125L4.21875 2.46875Z" fill="#737D87"/>
<path d="M3.65625 1.625H1.40625C1.25707 1.625 1.11399 1.68426 1.0085 1.78975C0.903013 1.89524 0.84375 2.03832 0.84375 2.1875V18.2188H4.21875V5.84375L3.375 5.28125V3.03125L4.21875 2.46875V2.1875C4.21875 2.03832 4.15949 1.89524 4.054 1.78975C3.94851 1.68426 3.80543 1.625 3.65625 1.625Z" fill="#646E78"/>
<path d="M2.25 17.0938C2.71599 17.0938 3.09375 16.716 3.09375 16.25C3.09375 15.784 2.71599 15.4062 2.25 15.4062C1.78401 15.4062 1.40625 15.784 1.40625 16.25C1.40625 16.716 1.78401 17.0938 2.25 17.0938Z" fill="#E8F2FC"/>
</g>
<defs>
<clipPath id="clip0_1567_1211">
<rect width="18" height="18" fill="white" transform="translate(0 0.5)"/>
</clipPath>
</defs>
</svg>
