<svg width="18" height="19" viewBox="0 0 18 19" fill="none" xmlns="http://www.w3.org/2000/svg">
<path d="M7.02939 13.5545C8.24625 14.7487 9.76905 13.7597 9.93959 12.1304C9.95246 12.0075 9.88545 11.8902 9.7733 11.8385C8.64162 11.3168 6.5525 11.5677 7.02563 13.5478C7.02619 13.5504 7.02753 13.5527 7.02939 13.5545Z" fill="#68CA44"/>
<path d="M4.45764 11.0628C4.4561 11.0693 4.45261 11.0755 4.44783 11.0802C2.69491 12.7958 0.503725 11.3749 0.254115 9.03039C0.235096 8.85151 0.330123 8.67717 0.493318 8.60197C1.25146 8.25228 2.30735 8.1434 3.15257 8.41315C3.20664 8.43041 3.23491 8.48972 3.21357 8.54228L3.04422 8.96008C3.01813 9.02438 3.07164 9.09276 3.14034 9.08295L4.0075 8.95906C4.039 8.95456 4.07106 8.96542 4.09244 8.98898C4.49948 9.43736 4.6838 10.1115 4.45764 11.0628Z" fill="#68CA44"/>
<path d="M8.7604 12.4595C8.68045 12.3325 8.51269 12.2944 8.38581 12.3744L6.4668 13.5833C6.34119 13.6624 6.22771 13.755 6.12631 13.8577V13.0708C6.12631 12.2868 5.73172 11.567 5.07078 11.1453L2.46099 9.48031C2.33457 9.39959 2.1666 9.43672 2.08588 9.56318C2.00519 9.68967 2.04232 9.85757 2.16878 9.93826L4.77856 11.6033C5.28228 11.9248 5.58305 12.4733 5.58305 13.0708V17.2106C5.58305 17.3607 5.70465 17.4822 5.85466 17.4822C6.00467 17.4822 6.12631 17.3606 6.12631 17.2106V15.1844C6.12631 14.7182 6.36183 14.2915 6.75631 14.043L8.67532 12.8341C8.80227 12.7541 8.84034 12.5864 8.7604 12.4595Z" fill="#AE6C6C"/>
<path d="M5.85479 16.3107C4.66317 16.3107 3.67682 17.1868 3.50319 18.3299C3.48961 18.4192 3.55803 18.5 3.64842 18.5H8.06119C8.15158 18.5 8.21999 18.4192 8.20642 18.3299C8.03275 17.1868 7.04641 16.3107 5.85479 16.3107Z" fill="#E8AD8C"/>
<path d="M8.20649 18.3299C8.03285 17.1868 7.04651 16.3107 5.85488 16.3107C5.68722 16.3107 5.52382 16.3286 5.36597 16.3616C6.32992 16.5631 7.07941 17.3476 7.22865 18.3299C7.24222 18.4192 7.17381 18.5 7.08342 18.5H8.06129C8.15164 18.5 8.22006 18.4192 8.20649 18.3299Z" fill="#E19974"/>
<path d="M12.2433 0.501257C9.37825 0.562534 7.04623 2.88626 6.97497 5.75114C6.96273 6.24343 7.01701 6.72142 7.12927 7.17683C7.15644 7.28708 7.12417 7.40341 7.04296 7.48276L5.66047 8.8328C5.54414 8.94639 5.63587 9.14301 5.79762 9.12695L7.72372 8.93535C7.83605 8.92417 7.94567 8.97339 8.01239 9.06448C9.02426 10.4457 10.6772 11.3292 12.5293 11.2724C15.3789 11.185 17.6831 8.86053 17.7468 6.01031C17.8155 2.94448 15.3085 0.43569 12.2433 0.501257Z" fill="#FD8087"/>
<path d="M12.2433 0.501257C12.1249 0.503788 12.0074 0.510573 11.8909 0.520698C14.6814 0.763944 16.8693 3.14346 16.8052 6.01024C16.7437 8.75851 14.5991 11.0176 11.8912 11.2541C12.1007 11.2723 12.3136 11.279 12.5292 11.2724C15.3789 11.1849 17.683 8.8605 17.7468 6.01028C17.8154 2.94448 15.3085 0.43569 12.2433 0.501257Z" fill="#FE646F"/>
<path d="M15.2497 8.77911C16.8463 7.18253 16.8463 4.59396 15.2497 2.99738C13.6532 1.4008 11.0646 1.4008 9.46801 2.99738C7.87143 4.59396 7.87143 7.18253 9.46801 8.77911C11.0646 10.3757 13.6532 10.3757 15.2497 8.77911Z" fill="#F2FBFF"/>
<path d="M14.7856 5.10916C14.769 5.10916 14.7524 5.10828 14.7356 5.10652L14.2186 5.05171C14.0694 5.03589 13.9613 4.90212 13.9771 4.75295C13.9929 4.60386 14.1258 4.49593 14.2759 4.5115L14.7566 4.56248L14.9729 4.34613C15.079 4.24009 15.2509 4.24009 15.3571 4.34613C15.4631 4.45223 15.4631 4.62418 15.3571 4.73031L15.1148 4.97254C15.0266 5.06071 14.9087 5.10916 14.7856 5.10916Z" fill="#FE9738"/>
<path d="M13.4664 4.27285C13.3292 4.27285 13.2114 4.16928 13.1966 4.02985L13.1418 3.5127C13.1268 3.37197 13.1757 3.23374 13.2758 3.13358L13.5181 2.89135C13.6242 2.78532 13.7961 2.78532 13.9022 2.89135C14.0083 2.99745 14.0083 3.1694 13.9022 3.27554L13.6859 3.49186L13.7369 3.97258C13.7527 4.12175 13.6446 4.25552 13.4954 4.27134C13.4857 4.27232 13.476 4.27285 13.4664 4.27285Z" fill="#FE9738"/>
<path d="M13.9567 6.96321C13.9132 6.96321 13.8695 6.95759 13.8265 6.94602L12.9744 6.71701C12.8295 6.67806 12.7436 6.52907 12.7826 6.38415C12.8215 6.23927 12.9705 6.15356 13.1154 6.19234L13.9459 6.41558L14.5632 5.79834C14.6692 5.69228 14.8412 5.69231 14.9473 5.79838C15.0534 5.90444 15.0534 6.07643 14.9473 6.18253L14.3143 6.81548C14.2186 6.91118 14.089 6.96321 13.9567 6.96321Z" fill="#678D98"/>
<path d="M11.7933 5.47486C11.6734 5.47486 11.5637 5.39492 11.5311 5.27366L11.3021 4.42165C11.2554 4.24798 11.3054 4.06102 11.4326 3.93379L12.0656 3.30084C12.1717 3.19481 12.3436 3.19481 12.4498 3.30084C12.5558 3.40694 12.5558 3.57889 12.4498 3.68502L11.8326 4.30219L12.0558 5.13272C12.0947 5.2776 12.0088 5.42659 11.8639 5.46555C11.8403 5.47184 11.8166 5.47486 11.7933 5.47486Z" fill="#678D98"/>
<path d="M12.0541 8.96318C11.9846 8.96318 11.9151 8.93664 11.862 8.88359C11.7559 8.77752 11.7559 8.60554 11.8621 8.49944L12.4793 7.88227L12.256 7.0517C12.2171 6.90683 12.303 6.75783 12.4479 6.71888C12.5926 6.68003 12.7417 6.76581 12.7807 6.91073L13.0097 7.76274C13.0564 7.93645 13.0064 8.12344 12.8792 8.25064L12.2462 8.88359C12.1932 8.93668 12.1236 8.96318 12.0541 8.96318Z" fill="#678D98"/>
<path d="M9.55656 6.46563C9.48705 6.46563 9.41751 6.43909 9.36446 6.38607C9.2584 6.27997 9.2584 6.10802 9.36446 6.00188L9.99745 5.3689C10.1246 5.24174 10.3116 5.19167 10.4852 5.2384L11.3373 5.46737C11.4822 5.50632 11.5681 5.65531 11.5292 5.80019C11.4902 5.94511 11.3413 6.03089 11.1963 5.99204L10.3658 5.76883L9.74861 6.38607C9.6956 6.43912 9.62606 6.46563 9.55656 6.46563Z" fill="#678D98"/>
<path d="M14.1664 5.39732C14.5299 5.03378 14.5299 4.44437 14.1664 4.08083C13.8029 3.71729 13.2134 3.71729 12.8499 4.08083C12.4864 4.44437 12.4864 5.03378 12.8499 5.39732C13.2134 5.76086 13.8029 5.76086 14.1664 5.39732Z" fill="#678D98"/>
<path d="M13.2154 7.15425C13.8132 6.55651 13.8226 5.59679 13.2364 5.01064C12.6503 4.4245 11.6905 4.4339 11.0928 5.03165C10.4951 5.62939 10.4857 6.58911 11.0718 7.17526C11.6579 7.7614 12.6177 7.752 13.2154 7.15425Z" fill="#AE6C6C"/>
<path d="M15.3629 9.1614C15.2841 9.1614 15.213 9.12779 15.1634 9.07418L9.16646 3.0773C9.0604 2.9712 9.0604 2.79925 9.16646 2.69311C9.27257 2.58708 9.44451 2.58708 9.55065 2.69311L15.555 8.69748C15.606 8.74846 15.6346 8.8175 15.6346 8.88957C15.6345 9.03959 15.513 9.1614 15.3629 9.1614Z" fill="#FD8087"/>
</svg>
