<svg width="18" height="19" viewBox="0 0 18 19" fill="none" xmlns="http://www.w3.org/2000/svg">
<g clip-path="url(#clip0_1567_1181)">
<path d="M10.623 5.46106H7.52469C7.37187 5.46106 7.24805 5.58491 7.24805 5.7377C7.24805 5.89049 7.37187 6.01435 7.52469 6.01435H8.72345V8.24589C8.72345 8.39868 8.84727 8.52254 9.00009 8.52254C9.15292 8.52254 9.27674 8.39868 9.27674 8.24589V6.01435H10.623C10.7759 6.01435 10.8997 5.89049 10.8997 5.7377C10.8997 5.58491 10.7759 5.46106 10.623 5.46106Z" fill="#666666"/>
<path d="M10.5492 4.72333C9.98994 4.72333 9.53491 5.17836 9.53491 5.73766C9.53491 6.29696 9.98998 6.75198 10.5492 6.75198C11.1085 6.75198 11.5636 6.29696 11.5636 5.73766C11.5636 5.17836 11.1085 4.72333 10.5492 4.72333Z" fill="#EB6836"/>
<path d="M7.45085 4.72333C6.89155 4.72333 6.43652 5.17836 6.43652 5.73766C6.43652 6.29696 6.89159 6.75198 7.45085 6.75198C8.01012 6.75198 8.46518 6.29696 8.46518 5.73766C8.46518 5.17836 8.01015 4.72333 7.45085 4.72333Z" fill="#EB6836"/>
<path d="M17.0593 0.592224H14.8277C14.6749 0.592224 14.5511 0.71608 14.5511 0.868869V7.13937C14.5511 7.597 14.1788 7.96931 13.7212 7.96931H4.26013C2.2771 7.96931 0.663818 9.58259 0.663818 11.5656V18.0574C0.663818 18.2102 0.787639 18.334 0.940463 18.334H3.17201C3.32483 18.334 3.44865 18.2102 3.44865 18.0574V11.5656C3.44865 11.108 3.82096 10.7356 4.27858 10.7356H13.7397C15.7227 10.7356 17.336 9.12236 17.336 7.13934V0.868869C17.336 0.71608 17.2121 0.592224 17.0593 0.592224Z" fill="#F7D04A"/>
<path d="M17.0593 0.592224H14.8277C14.6749 0.592224 14.5511 0.71608 14.5511 0.868869V7.13937C14.5511 7.597 14.1788 7.96931 13.7212 7.96931H4.26013C2.2771 7.96931 0.663818 9.58259 0.663818 11.5656V18.0574C0.663818 18.2102 0.787639 18.334 0.940463 18.334H3.17201C3.32483 18.334 3.44865 18.2102 3.44865 18.0574V11.5656C3.44865 11.108 3.82096 10.7356 4.27858 10.7356H13.7397C15.7227 10.7356 17.336 9.12236 17.336 7.13934V0.868869C17.336 0.71608 17.2121 0.592224 17.0593 0.592224Z" fill="#F7D04A"/>
<path d="M7.81959 7.28687H6.93436C6.78154 7.28687 6.65771 7.41072 6.65771 7.56351V11.1045C6.65771 11.2573 6.78154 11.3811 6.93436 11.3811H7.81959C7.97242 11.3811 8.09624 11.2573 8.09624 11.1045V7.56351C8.09624 7.41072 7.97242 7.28687 7.81959 7.28687Z" fill="#EB6836"/>
<path d="M11.0657 7.28687H10.1805C10.0276 7.28687 9.90381 7.41072 9.90381 7.56351V11.1045C9.90381 11.2573 10.0276 11.3811 10.1805 11.3811H11.0657C11.2185 11.3811 11.3423 11.2573 11.3423 11.1045V7.56351C11.3423 7.41072 11.2185 7.28687 11.0657 7.28687Z" fill="#EB6836"/>
<path d="M17.7234 1.69873H14.1824C14.0296 1.69873 13.9058 1.82259 13.9058 1.97537V2.86061C13.9058 3.0134 14.0296 3.13725 14.1824 3.13725H17.7234C17.8762 3.13725 18 3.0134 18 2.86061V1.97537C18 1.82262 17.8762 1.69873 17.7234 1.69873Z" fill="#EB6836"/>
<path d="M3.81762 15.7889H0.276645C0.12382 15.7889 0 15.9127 0 16.0655V16.9508C0 17.1035 0.12382 17.2274 0.276645 17.2274H3.81762C3.97044 17.2274 4.09426 17.1035 4.09426 16.9508V16.0655C4.09426 15.9127 3.97044 15.7889 3.81762 15.7889Z" fill="#EB6836"/>
<path d="M8.09624 7.56351C8.09624 7.41072 7.97242 7.28687 7.81959 7.28687H6.93436C6.78154 7.28687 6.65771 7.41072 6.65771 7.56351V7.96925H8.09624V7.56351Z" fill="#FD9D7E"/>
<path d="M6.65771 11.1045C6.65771 11.2572 6.78154 11.3811 6.93436 11.3811H7.81959C7.97242 11.3811 8.09624 11.2572 8.09624 11.1045V10.7356H6.65771V11.1045Z" fill="#FD9D7E"/>
<path d="M9.90381 11.1045C9.90381 11.2572 10.0276 11.3811 10.1805 11.3811H11.0657C11.2185 11.3811 11.3423 11.2572 11.3423 11.1045V10.7356H9.90381V11.1045Z" fill="#FD9D7E"/>
<path d="M11.3423 7.56351C11.3423 7.41072 11.2185 7.28687 11.0657 7.28687H10.1805C10.0276 7.28687 9.90381 7.41072 9.90381 7.56351V7.96925H11.3423V7.56351Z" fill="#FD9D7E"/>
<path d="M14.1824 1.69873C14.0296 1.69873 13.9058 1.82259 13.9058 1.97537V2.86061C13.9058 3.0134 14.0296 3.13725 14.1824 3.13725H14.5513V1.69873H14.1824Z" fill="#FD9D7E"/>
<path d="M17.7235 1.69873H17.3362V3.13725H17.7235C17.8763 3.13725 18.0001 3.0134 18.0001 2.86061V1.97537C18.0001 1.82262 17.8763 1.69873 17.7235 1.69873Z" fill="#FD9D7E"/>
<path d="M0.276645 15.7889C0.12382 15.7889 0 15.9127 0 16.0655V16.9508C0 17.1035 0.12382 17.2274 0.276645 17.2274H0.663926V15.7889H0.276645Z" fill="#FD9D7E"/>
<path d="M3.81759 17.2274C3.97041 17.2274 4.09423 17.1035 4.09423 16.9508V16.0655C4.09423 15.9127 3.97041 15.7889 3.81759 15.7889H3.44873V17.2274H3.81759Z" fill="#FD9D7E"/>
<path d="M9.2239 11.6983C9.11527 11.5485 8.88468 11.5485 8.77601 11.6983C8.55168 12.0076 6.58398 14.7562 6.58398 15.9918C6.58398 17.324 7.66778 18.4078 8.99996 18.4078C10.3321 18.4078 11.4159 17.324 11.4159 15.9918C11.4159 14.7562 9.44827 12.0076 9.2239 11.6983Z" fill="#62C9CC"/>
<path d="M9.79301 17.7623C8.46084 17.7623 7.37704 16.6785 7.37704 15.3463C7.37704 14.4052 8.51825 12.5868 9.1615 11.6366C9.03933 11.5485 8.86443 11.5764 8.77601 11.6982C8.55168 12.0075 6.58398 14.7562 6.58398 15.9918C6.58398 17.324 7.66778 18.4078 8.99996 18.4078C9.76183 18.4078 10.442 18.0529 10.8851 17.5003C10.5569 17.6674 10.1859 17.7623 9.79301 17.7623Z" fill="#50A9A9"/>
<path d="M9.29503 17.4673C9.66171 17.4673 9.95896 17.17 9.95896 16.8033C9.95896 16.4367 9.66171 16.1394 9.29503 16.1394C8.92835 16.1394 8.6311 16.4367 8.6311 16.8033C8.6311 17.17 8.92835 17.4673 9.29503 17.4673Z" fill="#D4F2E8"/>
<path d="M9.88524 15.7705C10.1297 15.7705 10.3279 15.5723 10.3279 15.3279C10.3279 15.0834 10.1297 14.8853 9.88524 14.8853C9.64079 14.8853 9.44263 15.0834 9.44263 15.3279C9.44263 15.5723 9.64079 15.7705 9.88524 15.7705Z" fill="#D4F2E8"/>
</g>
<defs>
<clipPath id="clip0_1567_1181">
<rect width="18" height="18" fill="white" transform="translate(0 0.5)"/>
</clipPath>
</defs>
</svg>
