<svg width="18" height="17" viewBox="0 0 18 17" fill="none" xmlns="http://www.w3.org/2000/svg">
<path d="M8.05084 0.489992L1.0772 3.7409C0.60811 3.95908 0.403564 4.51817 0.624473 4.98726L4.00356 12.2336C4.22175 12.7027 4.78084 12.9073 5.24993 12.6864L12.2236 9.43545C12.6927 9.21727 12.8972 8.65817 12.6763 8.18908L9.2972 0.942719C9.07629 0.473628 8.51993 0.27181 8.05084 0.489992Z" fill="#E1D9E1"/>
<path d="M1.63623 4.64935L8.38675 1.49762L10.8394 6.75077L4.08886 9.90251L1.63623 4.64935Z" fill="#DB7293"/>
<path d="M16.2654 8.1482H13.0827L12.4527 6.89911H9.52908L8.89909 8.1482H5.71636C5.05363 8.1482 4.51636 8.68547 4.51636 9.3482V15.3973C4.51636 16.06 5.05363 16.5973 5.71636 16.5973H16.2627C16.9254 16.5973 17.4627 16.06 17.4627 15.3973V9.3482C17.4654 8.68547 16.9282 8.1482 16.2654 8.1482Z" fill="#EE3831"/>
<path d="M12.2618 7.33002H12.6682L12.4528 6.89911H12.0464L12.2618 7.33002Z" fill="#EE3831"/>
<path d="M16.5954 8.20001C16.6254 8.30638 16.6472 8.41547 16.6472 8.53001C16.6472 12.5336 13.4018 15.7791 9.39812 15.7791H4.89812C4.78357 15.7791 4.67448 15.7573 4.56812 15.7273C4.71266 16.2291 5.16812 16.5973 5.7163 16.5973H16.2627C16.9254 16.5973 17.4627 16.06 17.4627 15.3973V9.34819C17.4654 8.80274 17.0945 8.34456 16.5954 8.20001Z" fill="#D6332C"/>
<path d="M10.991 15.5473C12.7442 15.5473 14.1655 14.126 14.1655 12.3727C14.1655 10.6195 12.7442 9.19818 10.991 9.19818C9.2377 9.19818 7.81641 10.6195 7.81641 12.3727C7.81641 14.126 9.2377 15.5473 10.991 15.5473Z" fill="#F6F0F5"/>
<path d="M12.9436 9.87451C13.3663 10.4145 13.6199 11.0909 13.6199 11.8272C13.6199 13.5809 12.199 15.0018 10.4454 15.0018C9.70904 15.0018 9.03268 14.7481 8.49268 14.3254C9.07358 15.0672 9.97631 15.5472 10.9909 15.5472C12.7445 15.5472 14.1654 14.1263 14.1654 12.3727C14.1627 11.3581 13.6854 10.4554 12.9436 9.87451Z" fill="#E1D9E1"/>
<path d="M12.1554 12.1273C11.6481 12.1273 11.239 11.7154 11.239 11.2109C11.239 10.8727 11.4245 10.5782 11.6999 10.42C11.479 10.3409 11.2417 10.2945 10.9908 10.2945C9.84264 10.2945 8.90991 11.23 8.90991 12.3782C8.90991 13.5263 9.84264 14.4591 10.9908 14.4591C12.139 14.4591 13.0745 13.5263 13.0745 12.3782C13.0745 12.13 13.0281 11.8927 12.949 11.6691C12.7881 11.9391 12.4935 12.1273 12.1554 12.1273Z" fill="#8553E0"/>
<path d="M15.5617 10.4009C15.893 10.4009 16.1617 10.1323 16.1617 9.80093C16.1617 9.46956 15.893 9.20093 15.5617 9.20093C15.2303 9.20093 14.9617 9.46956 14.9617 9.80093C14.9617 10.1323 15.2303 10.4009 15.5617 10.4009Z" fill="#FFCF1A"/>
<path d="M14.6998 7.07364C14.588 7.07364 14.4844 7.00546 14.4434 6.89637C14.3916 6.75455 14.4625 6.5991 14.6044 6.54455L15.4062 6.24728C15.5453 6.19546 15.7034 6.26637 15.758 6.40819C15.8098 6.55001 15.7389 6.70546 15.5971 6.76001L14.7953 7.05728C14.7625 7.06819 14.7298 7.07364 14.6998 7.07364Z" fill="#FF61DB"/>
<path d="M13.9499 6.13272C13.879 6.13272 13.8108 6.10545 13.7563 6.05363C13.6499 5.94727 13.6499 5.77545 13.7563 5.66636L14.3454 5.07727C14.4517 4.97091 14.6236 4.97091 14.7299 5.07727C14.8363 5.18363 14.8363 5.35545 14.7299 5.46182L14.1408 6.05091C14.0917 6.10545 14.0208 6.13272 13.9499 6.13272Z" fill="#FF61DB"/>
<path d="M13.0091 5.38269C12.9764 5.38269 12.9464 5.37724 12.9137 5.36633C12.7719 5.31451 12.701 5.15633 12.7528 5.01451L13.05 4.21269C13.1019 4.07087 13.26 3.99997 13.4019 4.05178C13.5437 4.1036 13.6146 4.26178 13.5628 4.4036L13.2655 5.20542C13.2246 5.31724 13.121 5.38269 13.0091 5.38269Z" fill="#FF61DB"/>
<path d="M4.07164 5.69089C4.77527 7.19908 7.02255 7.08453 7.02255 7.08453C7.02255 7.08453 8.55255 5.43726 7.84891 3.92908C7.60073 3.39998 6.97345 3.17089 6.44164 3.41635C5.98891 3.62635 5.76255 4.11726 5.85527 4.58362C5.558 4.21271 5.03436 4.07362 4.58164 4.28362C4.05527 4.52908 3.82345 5.15908 4.07164 5.69089Z" fill="#FFCF1A"/>
<path d="M7.85177 3.92911C7.78632 3.79002 7.69632 3.67547 7.58723 3.58002C7.59541 3.64547 7.59814 3.71093 7.60086 3.77638C7.63905 5.55184 5.44632 6.56365 4.12086 5.38002C4.07177 5.33638 4.02268 5.28729 3.97632 5.2382C3.97632 5.39093 4.00359 5.54365 4.07177 5.69093C4.77541 7.19911 7.02268 7.08456 7.02268 7.08456C7.02268 7.08456 8.55268 5.43456 7.85177 3.92911Z" fill="#EDC119"/>
</svg>
