<svg width="18" height="19" viewBox="0 0 18 19" fill="none" xmlns="http://www.w3.org/2000/svg">
<path d="M10.3281 7.10212L12.2029 3.01753C12.3526 2.69128 12.7433 2.55466 13.0637 2.71645C13.3922 2.88239 13.5105 3.29252 13.3208 3.60791L10.9242 7.5941L10.3281 7.10212Z" fill="#C9ECF4"/>
<path d="M1.42246 9.34434C1.36895 9.19105 1.33984 9.02628 1.33984 8.85475C1.33984 8.03466 2.00465 7.36985 2.82474 7.36985H2.86095C3.00773 7.36985 3.14941 7.39148 3.28332 7.43117C3.40819 6.73743 4.01453 6.21089 4.74423 6.21089H4.78045C5.29738 6.21089 5.75241 6.47516 6.01833 6.87584C6.28046 6.45498 6.74712 6.17468 7.27942 6.17468H7.31563C7.98423 6.17468 8.54951 6.61663 8.73556 7.22431C8.99586 6.99927 9.33487 6.86283 9.70598 6.86283H9.74219C10.5623 6.86283 11.2271 7.52764 11.2271 8.34773C11.2271 8.38633 11.2208 8.5137 11.2238 8.53919L11.1909 10.731H1.59339L1.42246 9.34434Z" fill="#90DD9B"/>
<path d="M11.2234 8.51491C11.2234 8.52577 11.2234 8.53446 11.2242 8.53917L11.1912 10.7311H10.1047L10.1377 8.53917C10.1369 8.53446 10.1369 8.52577 10.1369 8.51491C10.1369 8.46854 10.1409 8.3791 10.1409 8.3476C10.1409 7.71236 9.74218 7.17053 9.18115 6.9583C9.34449 6.89635 9.52161 6.86267 9.70632 6.86267H9.74253C10.5625 6.86267 11.2274 7.52762 11.2274 8.34757C11.2274 8.3791 11.2234 8.46854 11.2234 8.51491Z" fill="#5DC665"/>
<path d="M11.0122 10.4121C10.9634 10.221 10.9375 10.0208 10.9375 9.81451C10.9375 8.48437 12.0158 6.6817 13.3459 6.6817C14.6761 6.6817 15.7544 8.48434 15.7544 9.81451C15.7544 10.0208 15.7285 10.221 15.6797 10.4121L15.4828 10.994H11.1186L11.0122 10.4121Z" fill="#E5E5E5"/>
<path d="M12.1462 10.4121C12.0564 10.2322 12.0059 10.0292 12.0059 9.81448C12.0059 9.0744 12.6058 8.47443 13.3459 8.47443C14.086 8.47443 14.686 9.07437 14.686 9.81448C14.686 10.0292 14.6354 10.2322 14.5457 10.4121L14.3057 10.8219H12.3137L12.1462 10.4121Z" fill="#F4D382"/>
<path d="M14.686 9.81435C14.686 9.92155 14.6733 10.0262 14.6498 10.1262C14.6259 10.2265 14.5908 10.3221 14.5459 10.4119L14.3057 10.8219H13.2192L13.4593 10.4119C13.5042 10.3221 13.5394 10.2265 13.5633 10.1262C13.5869 10.0262 13.5995 9.92158 13.5995 9.81435C13.5995 9.44423 13.4496 9.10958 13.2069 8.86689C13.091 8.75098 12.9545 8.65648 12.8027 8.58912C12.9686 8.51523 13.1526 8.4743 13.346 8.4743C13.7161 8.4743 14.0508 8.62425 14.2934 8.86689C14.5361 9.10958 14.686 9.44419 14.686 9.81435Z" fill="#EFC059"/>
<path d="M0.651855 11.3175V13.8165C0.651855 15.2167 1.78691 16.3517 3.18708 16.3517H13.9798C15.38 16.3517 16.5151 15.2167 16.5151 13.8165V11.3175H0.651855Z" fill="#E5E5E5"/>
<path d="M15.4287 11.6796H16.5152V13.3455H15.4287V11.6796Z" fill="#CECECE"/>
<path d="M16.8048 11.6797H0.36218C0.162141 11.6797 0 11.5175 0 11.3175V10.7742C0 10.5742 0.162141 10.412 0.36218 10.412H16.8048C17.0049 10.412 17.167 10.5742 17.167 10.7742V11.3175C17.167 11.5175 17.0049 11.6797 16.8048 11.6797Z" fill="#CECECE"/>
<path d="M17.1669 10.7741V11.3174C17.1669 11.5177 17.0047 11.6796 16.8048 11.6796H15.7183C15.9182 11.6796 16.0804 11.5177 16.0804 11.3174V10.7741C16.0804 10.5742 15.9182 10.4119 15.7183 10.4119H16.8048C17.0047 10.4119 17.1669 10.5742 17.1669 10.7741Z" fill="#B2B2B2"/>
<path d="M10.8472 13.3456H16.4971C17.3272 13.3456 18.0001 14.0186 18.0001 14.8486C18.0001 15.6788 17.3272 16.3516 16.4971 16.3516H10.8472C10.0171 16.3516 9.34424 15.6787 9.34424 14.8486C9.34424 14.0186 10.0172 13.3456 10.8472 13.3456Z" fill="#DDB180"/>
<path d="M18.0002 14.8486C18.0002 15.2636 17.8321 15.6396 17.5598 15.9112C17.2882 16.1835 16.9122 16.3516 16.4971 16.3516H15.4106C15.8257 16.3516 16.2016 16.1835 16.4733 15.9112C16.7456 15.6396 16.9137 15.2636 16.9137 14.8486C16.9137 14.4553 16.7626 14.0971 16.5153 13.8294C16.2444 13.5361 15.8583 13.3506 15.4288 13.3456H16.5153C17.337 13.3554 18.0002 14.0247 18.0002 14.8486Z" fill="#C69060"/>
<path d="M12.4949 15.0479C12.1949 15.0479 11.9517 14.8047 11.9517 14.5047V13.3457H13.0382V14.5047C13.0382 14.8047 12.795 15.0479 12.4949 15.0479Z" fill="#C69060"/>
<path d="M14.8489 15.0479C14.5489 15.0479 14.3057 14.8047 14.3057 14.5047V13.3457H15.3922V14.5047C15.3922 14.8047 15.149 15.0479 14.8489 15.0479Z" fill="#C69060"/>
<path d="M7.89515 9.32556H1.26739C0.967367 9.32556 0.724121 9.56877 0.724121 9.86883C0.724121 10.1689 0.967332 10.4121 1.26739 10.4121H7.89515C8.19518 10.4121 8.43842 10.1689 8.43842 9.86883C8.43842 9.56881 8.19521 9.32556 7.89515 9.32556Z" fill="#EA9D9D"/>
<path d="M8.43886 9.86871C8.43886 10.1689 8.19547 10.412 7.89559 10.412H6.80908C7.10896 10.412 7.35235 10.1689 7.35235 9.86871C7.35235 9.71877 7.2915 9.58296 7.19299 9.4848C7.09483 9.3863 6.95902 9.32544 6.80908 9.32544H7.89559C8.04553 9.32544 8.18134 9.3863 8.27949 9.4848C8.378 9.58296 8.43886 9.71877 8.43886 9.86871Z" fill="#ED8080"/>
</svg>
