<svg width="18" height="19" viewBox="0 0 18 19" fill="none" xmlns="http://www.w3.org/2000/svg">
<path d="M15.3583 5.65521H2.64193C2.22323 5.65521 1.88379 5.99463 1.88379 6.41335V15.0061H16.1164V6.41335C16.1164 5.99463 15.777 5.65521 15.3583 5.65521Z" fill="#304651"/>
<path d="M2.65991 6.43146H15.3401V14.2299H2.65991V6.43146Z" fill="#4388B9"/>
<path d="M16.1164 16.8811H1.88374L1.36768 16.2858H16.6324L16.1164 16.8811Z" fill="#B0B1B5"/>
<path d="M10.7097 3.46753L11.8004 4.5582L7.34371 9.01487L6.25304 7.9242L10.7097 3.46753Z" fill="#DAD7DC"/>
<path d="M13.1236 3.28325L12.4236 3.98325L11.4816 3.78829L11.2866 2.84624L11.9866 2.14624C11.5301 2.05646 11.0387 2.18823 10.685 2.54191C10.1209 3.10603 10.1209 4.02067 10.6851 4.5848C11.2492 5.14892 12.1638 5.14895 12.728 4.58482C13.0816 4.23114 13.2134 3.73972 13.1236 3.28325Z" fill="#ECECEC"/>
<path d="M4.8764 9.25633L5.5764 8.55633L6.51845 8.75129L6.71341 9.69334L6.01342 10.3933C6.46988 10.4831 6.9613 10.3514 7.31498 9.99767C7.87911 9.43355 7.87909 8.51891 7.31496 7.95478C6.75083 7.39066 5.8362 7.39063 5.27207 7.95476C4.91839 8.30844 4.78663 8.79986 4.8764 9.25633Z" fill="#ECECEC"/>
<path d="M11.7483 7.92548L10.6576 9.01615L6.20095 4.55947L7.29162 3.4688L11.7483 7.92548Z" fill="#B0B1B5"/>
<path d="M4.87665 3.28325L5.57664 3.98325L6.5187 3.78829L6.71366 2.84624L6.01366 2.14624C6.47012 2.05646 6.96154 2.18823 7.31522 2.54191C7.87935 3.10603 7.87933 4.02067 7.3152 4.5848C6.75107 5.14892 5.83644 5.14895 5.27231 4.58482C4.91863 4.23114 4.78687 3.73972 4.87665 3.28325Z" fill="#DAD7DC"/>
<path d="M13.1236 9.25633L12.4236 8.55633L11.4816 8.75129L11.2866 9.69334L11.9866 10.3933C11.5301 10.4831 11.0387 10.3514 10.685 9.99767C10.1209 9.43355 10.1209 8.51891 10.6851 7.95478C11.2492 7.39066 12.1638 7.39063 12.728 7.95476C13.0816 8.30844 13.2134 8.79986 13.1236 9.25633Z" fill="#DAD7DC"/>
<path d="M16.5558 14.9701H1.44443C1.07116 14.9701 0.768555 15.2727 0.768555 15.6459C0.768555 16.0192 1.07116 16.3218 1.44443 16.3218H16.5558C16.9291 16.3218 17.2317 16.0192 17.2317 15.6459C17.2317 15.2727 16.9291 14.9701 16.5558 14.9701Z" fill="#DAD7DC"/>
<path d="M10.1302 15.8845H7.86987C7.7505 15.8845 7.65283 15.7869 7.65283 15.6675V15.6244C7.65283 15.505 7.7505 15.4073 7.86987 15.4073H10.1302C10.2496 15.4073 10.3473 15.505 10.3473 15.6244V15.6675C10.3473 15.7869 10.2496 15.8845 10.1302 15.8845Z" fill="#ECECEC"/>
</svg>
