<svg width="18" height="19" viewBox="0 0 18 19" fill="none" xmlns="http://www.w3.org/2000/svg">
<path d="M15.9377 11.2802H7.88385C7.35769 11.2802 6.93115 10.8536 6.93115 10.3275V2.60766C6.93115 2.08151 7.35769 1.65497 7.88385 1.65497H15.9377C16.4638 1.65497 16.8904 2.08151 16.8904 2.60766V10.3275C16.8904 10.8536 16.4638 11.2802 15.9377 11.2802Z" fill="#F2F6FF"/>
<path d="M16.8904 2.97044V2.30426C16.8904 1.94567 16.5997 1.65497 16.2411 1.65497H7.58045C7.22185 1.65497 6.93115 1.94567 6.93115 2.30426V2.97044H16.8904Z" fill="#454D6A"/>
<path d="M7.64612 2.3837C7.64612 2.4769 7.57126 2.55176 7.47959 2.55176C7.38639 2.55176 7.31152 2.4769 7.31152 2.3837C7.31152 2.29203 7.38639 2.21716 7.47959 2.21716C7.57126 2.21716 7.64612 2.29203 7.64612 2.3837Z" fill="white"/>
<path d="M8.11463 2.3837C8.11463 2.4769 8.03976 2.55176 7.94809 2.55176C7.85489 2.55176 7.78003 2.4769 7.78003 2.3837C7.78003 2.29203 7.85489 2.21716 7.94809 2.21716C8.03976 2.21716 8.11463 2.29203 8.11463 2.3837Z" fill="white"/>
<path d="M8.58313 2.3837C8.58313 2.4769 8.50827 2.55176 8.4166 2.55176C8.3234 2.55176 8.24854 2.4769 8.24854 2.3837C8.24854 2.29203 8.3234 2.21716 8.4166 2.21716C8.50827 2.21716 8.58313 2.29203 8.58313 2.3837Z" fill="white"/>
<path d="M14.7311 6.38224C14.7273 6.25844 14.6371 6.15189 14.5133 6.12888L14.2686 6.0809C14.1841 6.06361 14.1102 6.00892 14.0757 5.92926C14.0651 5.90143 14.0507 5.87266 14.0373 5.84581C13.9999 5.76615 14.0047 5.67403 14.0488 5.59723L14.1736 5.38417C14.2359 5.27574 14.2158 5.13755 14.1246 5.05312L13.5642 4.53009C13.474 4.44471 13.3348 4.43412 13.2312 4.50418L13.0258 4.64241C12.9538 4.69039 12.8617 4.70285 12.7811 4.67118C12.7523 4.66063 12.7226 4.64812 12.6928 4.63758C12.6103 4.60881 12.5489 4.53876 12.5258 4.45526L12.4635 4.21628C12.4318 4.09539 12.3195 4.01287 12.1938 4.01667L11.428 4.04356C11.3042 4.04741 11.1987 4.13761 11.1756 4.25948L11.1276 4.50516C11.1104 4.59058 11.0537 4.66349 10.9741 4.69803C10.9443 4.71054 10.9165 4.723 10.8877 4.7364C10.81 4.77384 10.7179 4.76808 10.6421 4.72492L10.429 4.60112C10.3206 4.53876 10.1833 4.55984 10.0979 4.65004L9.57493 5.21051C9.48952 5.30071 9.47896 5.43983 9.54901 5.54348L9.68816 5.74985C9.73711 5.82084 9.74862 5.91296 9.71695 5.99355C9.70544 6.02237 9.69296 6.05306 9.68241 6.08282C9.65553 6.16533 9.58548 6.22583 9.50103 6.24883L9.26304 6.3112C9.14116 6.34288 9.05863 6.45613 9.06343 6.58087L9.0903 7.34667C9.09414 7.4714 9.18435 7.57796 9.30814 7.60097L9.54997 7.64703C9.63538 7.66432 9.70927 7.719 9.74286 7.80058C9.75533 7.82841 9.76877 7.85723 9.78317 7.88694C9.8206 7.96468 9.81484 8.0568 9.76973 8.13262L9.64594 8.34568C9.58356 8.45411 9.60467 8.59229 9.69488 8.67678L10.2563 9.19976C10.3474 9.28518 10.4856 9.29572 10.5902 9.22567L10.7956 9.08749C10.8676 9.0395 10.9597 9.02704 11.0393 9.05867C11.0691 9.07118 11.0979 9.08172 11.1286 9.09227C11.2121 9.12108 11.2716 9.19113 11.2946 9.27459L11.357 9.51356C11.3877 9.63446 11.5009 9.71702 11.6257 9.71318L12.3925 9.68628C12.5182 9.6815 12.6228 9.59224 12.6458 9.46849L12.6938 9.22473C12.7111 9.14025 12.7658 9.06635 12.8454 9.0328C12.8752 9.01935 12.9039 9.00684 12.9318 8.99344C13.0095 8.95408 13.1036 8.95984 13.1784 9.00497L13.3914 9.12877C13.5008 9.19113 13.6381 9.17 13.7225 9.0798L14.2455 8.5184C14.3309 8.42627 14.3425 8.28907 14.2724 8.18444L14.1323 7.97719C14.0843 7.90615 14.0718 7.81595 14.1045 7.73531C14.116 7.7056 14.1265 7.67678 14.1352 7.64895C14.164 7.56549 14.234 7.50599 14.3185 7.48293L14.5584 7.41864C14.6793 7.38697 14.7618 7.27376 14.758 7.1509L14.7311 6.38224ZM11.9107 8.16187C11.1941 8.16187 10.6138 7.58067 10.6138 6.86493C10.6138 6.14923 11.1941 5.56804 11.9107 5.56804C12.6264 5.56804 13.2076 6.14923 13.2076 6.86493C13.2076 7.58067 12.6264 8.16187 11.9107 8.16187Z" fill="#8B2AF7"/>
<path d="M11.9109 8.16182C11.1943 8.16182 10.614 7.58062 10.614 6.86488C10.614 6.14919 11.1943 5.56799 11.9109 5.56799C12.6266 5.56799 13.2078 6.14919 13.2078 6.86488C13.2078 7.58062 12.6266 8.16182 11.9109 8.16182Z" fill="white"/>
<path d="M11.3378 13.5825C11.3378 13.5825 9.87197 13.8119 9.80756 13.8464C9.74314 13.881 6.36692 12.7404 6.35749 12.7011C6.34964 12.6618 6.35749 9.85592 6.35749 9.85592L7.28914 8.32098H7.75651C8.20892 8.32098 8.60093 8.63449 8.70038 9.07583L9.16341 11.6636L11.3378 13.5825Z" fill="#FDCBC0"/>
<path d="M9.2241 11.7178H6.35376C6.35533 10.8946 6.3569 9.8561 6.3569 9.8561L7.28855 8.32117H7.75672C8.20919 8.32117 8.60038 8.63381 8.70093 9.07529L9.16283 11.6644L9.2241 11.7178Z" fill="#FDCE4B"/>
<path d="M2.89612 8.31909H7.22612C7.6985 8.31909 8.08144 8.70203 8.08144 9.17441V16.6879C8.08144 16.9231 2.46618 16.9231 2.46618 16.6879L2.41944 8.79893C2.4177 8.53444 2.63162 8.31909 2.89612 8.31909Z" fill="#FDCE4B"/>
<path d="M7.99707 9.63287H8.08189V11.7177H7.99707V9.63287Z" fill="#F4BC24"/>
<path d="M6.93147 5.68993C7.19525 5.68993 7.40909 5.33876 7.40909 4.90557C7.40909 4.47238 7.19525 4.12122 6.93147 4.12122C6.66769 4.12122 6.45386 4.47238 6.45386 4.90557C6.45386 5.33876 6.66769 5.68993 6.93147 5.68993Z" fill="#251A38"/>
<path d="M3.45288 5.56042C3.45288 6.06236 3.85924 6.74346 4.3486 6.78865C4.36589 6.79026 4.38317 6.79026 4.40047 6.79026C4.82066 6.79026 5.1613 6.31253 5.27024 5.85416C5.2737 5.83963 5.27716 5.82672 5.27888 5.8122C5.29791 5.72665 5.30655 5.64112 5.30655 5.56042C5.30655 5.43776 5.28407 5.31994 5.24084 5.21341C5.14747 4.9697 4.95553 4.77603 4.71518 4.68242C4.61142 4.64046 4.4973 4.61786 4.37972 4.61786C4.37107 4.61786 4.36415 4.61786 4.35551 4.61947C4.15147 4.62271 3.96472 4.69534 3.81428 4.81477C3.80391 4.82122 3.79353 4.8309 3.78316 4.84059C3.74166 4.87448 3.70188 4.91483 3.66558 4.9568C3.53416 5.1198 3.45288 5.32962 3.45288 5.56042Z" fill="#251A38"/>
<path d="M4.47046 6.44983H6.00071V8.31813H4.47046V6.44983Z" fill="#FDCBC0"/>
<path d="M6.00099 8.31909L5.46992 8.38078L4.46997 8.31909H6.00099Z" fill="#FDCBC0"/>
<path d="M6.00036 6.13458V7.56119C6.00036 7.56119 5.32387 7.91095 4.47021 7.77979V6.13458H6.00036Z" fill="#F1B2A9"/>
<path d="M4.47144 5.42638V6.34719C4.47144 7.08595 5.07102 7.68556 5.80981 7.68556C6.54858 7.68556 7.14818 7.08595 7.14818 6.34719V5.42638C7.14818 5.057 6.99827 4.72149 6.75558 4.48061C6.51467 4.2379 6.17919 4.08801 5.80981 4.08801C5.07102 4.08801 4.47144 4.6876 4.47144 5.42638Z" fill="#FDCBC0"/>
<path d="M7.20091 5.31661C6.23404 5.44116 5.33597 5.46085 4.51002 5.256C4.40023 5.22975 4.29042 5.19862 4.18391 5.16422C4.00527 5.10522 3.83156 5.03639 3.66113 4.95281C3.72013 3.49102 4.79025 3.1485 5.7424 3.1567C6.43068 3.16326 7.0567 3.35334 7.19763 3.43692C7.21894 3.45005 7.24024 3.46315 7.26155 3.47953C8.12848 4.05639 8.25466 5.31661 7.20091 5.31661Z" fill="#251A38"/>
<path d="M5.74513 6.07286C5.81417 6.07286 5.87014 5.99028 5.87014 5.88842C5.87014 5.78656 5.81417 5.70398 5.74513 5.70398C5.67609 5.70398 5.62012 5.78656 5.62012 5.88842C5.62012 5.99028 5.67609 6.07286 5.74513 6.07286Z" fill="#251A38"/>
<path d="M6.6338 6.07286C6.70285 6.07286 6.75882 5.99028 6.75882 5.88842C6.75882 5.78656 6.70285 5.70398 6.6338 5.70398C6.56476 5.70398 6.50879 5.78656 6.50879 5.88842C6.50879 5.99028 6.56476 6.07286 6.6338 6.07286Z" fill="#251A38"/>
<path d="M5.71094 6.62451C5.71062 6.63189 5.70874 6.63882 5.70874 6.64627C5.70874 6.92665 5.93603 7.15394 6.2164 7.15394C6.49679 7.15394 6.72408 6.92665 6.72408 6.64627C6.72408 6.63882 6.72219 6.63189 6.72188 6.62451H5.71094Z" fill="white"/>
<path d="M4.00064 5.65C3.99405 5.90216 4.19987 6.1121 4.46034 6.11891C4.72082 6.12572 4.74468 5.21254 4.48421 5.20574C4.22373 5.19893 4.00723 5.39783 4.00064 5.65Z" fill="#FDCBC0"/>
<path d="M4.94148 4.93237C4.94148 4.93237 4.90395 5.79092 4.69797 5.95356C4.59193 6.03728 4.45288 5.84514 4.45288 5.71004V4.93237C4.45288 4.79568 4.56286 4.68884 4.69797 4.68884C4.83308 4.68884 4.94148 4.79568 4.94148 4.93237Z" fill="#251A38"/>
<path d="M6.00037 8.06079L6.25699 8.32094L5.83552 8.88486L5.46997 8.38077L6.00037 8.06079Z" fill="#F0ECFD"/>
<path d="M5.46989 8.38074L5.2167 8.92018L4.24023 8.31823L4.46994 8.05035L5.46989 8.38074Z" fill="#F0ECFD"/>
<path d="M12.4903 13.559V13.7713C12.4903 13.9208 12.3691 14.0421 12.2195 14.0421H6.68099C6.54759 14.0421 6.43945 13.934 6.43945 13.8006C6.43945 13.6672 6.54759 13.559 6.68099 13.559H12.4903Z" fill="#70739C"/>
<path d="M13.201 10.297L12.4909 13.5584H7.94531L8.68446 10.178C8.71214 10.0576 8.82011 9.97314 8.94192 9.97314H12.9435C13.1138 9.97314 13.2398 10.1323 13.201 10.297Z" fill="#9EA1CC"/>
<path d="M11.2731 12.0723C11.2292 12.2986 11.0047 12.4809 10.7716 12.4809C10.5403 12.4809 10.3867 12.2986 10.4306 12.0723C10.4762 11.8477 10.699 11.6637 10.9321 11.6637C11.1634 11.6637 11.317 11.8477 11.2731 12.0723Z" fill="#70739C"/>
<path d="M6.01331 12.0722L3.35898 12.3443C3.35898 12.3443 3.31337 11.6988 3.27869 11.1416L1.20825 10.9948V13.1864C1.32664 14.0873 2.2245 14.6672 3.09434 14.4045L6.43917 13.2682L6.01331 12.0722Z" fill="#FDCBC0"/>
<path d="M3.45269 11.5615H1.10962V10.6517C1.10962 9.35762 2.15865 8.30859 3.45269 8.30859L3.45269 11.5615Z" fill="#FDCE4B"/>
<path d="M3.41351 9.98157V11.5223H3.34201C3.3203 11.5223 3.30273 11.5399 3.30273 11.5615C3.30273 11.5832 3.3203 11.6008 3.34201 11.6008H3.45278C3.47449 11.6008 3.49206 11.5832 3.49206 11.5615V9.98157H3.41351Z" fill="#F4BC24"/>
<path d="M7.60551 12.2307C7.74503 12.3836 7.77335 13.0413 7.77335 13.0413C7.78197 13.1432 7.70866 13.2338 7.60717 13.2466C7.55826 13.2528 7.48919 13.2097 7.42969 13.1529C7.32426 13.0524 7.16861 13.0248 7.03044 13.0709L6.43931 13.2682L6.0127 12.0729L6.57547 11.6462C6.64128 11.5963 6.73299 11.5991 6.79567 11.6529C6.88835 11.7324 6.87348 11.8799 6.7668 11.9393L6.72438 11.9629C6.72438 11.9629 7.45027 12.0607 7.60551 12.2307Z" fill="#FDCBC0"/>
<path d="M11.0583 14.2022H10.0312C9.96233 14.2022 9.90649 14.1463 9.90649 14.0774C9.90649 13.8049 10.1274 13.584 10.3999 13.584H10.6897C10.9622 13.584 11.1831 13.8049 11.1831 14.0774C11.1831 14.1463 11.1272 14.2022 11.0583 14.2022Z" fill="#FDCBC0"/>
<path d="M16.8596 16.6376V17.1516C16.8596 17.2598 16.7744 17.345 16.6662 17.345H1.32057C1.21242 17.345 1.1272 17.2598 1.1272 17.1516V16.6376C1.1272 16.5328 1.21242 16.4443 1.32057 16.4443H16.6662C16.7744 16.4443 16.8596 16.5328 16.8596 16.6376Z" fill="#70739C"/>
<path d="M7.26152 3.47951C6.26513 3.4025 4.96394 3.44839 4.74434 3.88265C4.54604 4.27596 4.50671 4.843 4.50999 5.25598C4.51163 5.56405 4.53785 5.7853 4.53785 5.79022L4.21337 5.82955C4.21009 5.80495 4.17895 5.52964 4.18388 5.16419C4.18552 4.72663 4.23959 4.15469 4.451 3.73517C4.62962 3.38119 5.15895 3.22059 5.74237 3.15668C6.43065 3.16324 7.05667 3.35332 7.1976 3.4369C7.21891 3.45003 7.24021 3.46313 7.26152 3.47951Z" fill="#EEEBFC"/>
<path d="M5.52071 7.09744L4.63386 6.99789C4.49447 6.98205 4.3894 6.86458 4.3894 6.72455V6.23291H4.55328V6.72455C4.55328 6.7812 4.59577 6.82857 4.65219 6.83497L5.53896 6.93452L5.52071 7.09744Z" fill="#70739C"/>
<path d="M4.47007 6.46762C4.83095 6.46762 5.1235 6.17507 5.1235 5.81419C5.1235 5.45331 4.83095 5.16077 4.47007 5.16077C4.1092 5.16077 3.81665 5.45331 3.81665 5.81419C3.81665 6.17507 4.1092 6.46762 4.47007 6.46762Z" fill="#FF2D84"/>
<path d="M4.33767 6.33543C4.62555 6.33543 4.85893 6.10205 4.85893 5.81417C4.85893 5.52628 4.62555 5.29291 4.33767 5.29291C4.04978 5.29291 3.81641 5.52628 3.81641 5.81417C3.81641 6.10205 4.04978 6.33543 4.33767 6.33543Z" fill="#FD62A1"/>
<path d="M4.33772 6.11844C4.50577 6.11844 4.642 5.98221 4.642 5.81416C4.642 5.64612 4.50577 5.50989 4.33772 5.50989C4.16968 5.50989 4.03345 5.64612 4.03345 5.81416C4.03345 5.98221 4.16968 6.11844 4.33772 6.11844Z" fill="#FF2D84"/>
<path d="M5.53628 7.19568L5.42672 7.18258C5.32588 7.17053 5.25391 7.07901 5.26597 6.97817C5.27802 6.87734 5.36954 6.80536 5.47037 6.81742L5.57994 6.83052C5.68077 6.84257 5.75274 6.93409 5.74069 7.03492C5.72864 7.13576 5.63712 7.20773 5.53628 7.19568Z" fill="#70739C"/>
</svg>
