<svg width="18" height="15" viewBox="0 0 18 15" fill="none" xmlns="http://www.w3.org/2000/svg">
<path d="M15.9375 1.6875H2.0625C1.44118 1.6875 0.9375 2.19118 0.9375 2.8125V13.6875C0.9375 14.3088 1.44118 14.8125 2.0625 14.8125H15.9375C16.5588 14.8125 17.0625 14.3088 17.0625 13.6875V2.8125C17.0625 2.19118 16.5588 1.6875 15.9375 1.6875Z" fill="#29B6F6"/>
<path d="M17.0625 2.8125V5.8125H0.9375V2.8125C0.9375 2.51413 1.05603 2.22798 1.267 2.017C1.47798 1.80603 1.76413 1.6875 2.0625 1.6875H15.9375C16.2359 1.6875 16.522 1.80603 16.733 2.017C16.944 2.22798 17.0625 2.51413 17.0625 2.8125Z" fill="#1565C0"/>
<path d="M8.62499 11.565C8.48435 11.5563 8.3514 11.4978 8.24999 11.4L6.91499 10.0875C6.80966 9.982 6.75049 9.83904 6.75049 9.68997C6.75049 9.54091 6.80966 9.39794 6.91499 9.29247C6.9667 9.2394 7.02851 9.19723 7.09678 9.16843C7.16505 9.13963 7.2384 9.1248 7.31249 9.1248C7.38659 9.1248 7.45993 9.13963 7.5282 9.16843C7.59647 9.19723 7.65828 9.2394 7.70999 9.29247L8.62499 10.2075L10.875 7.95747C10.9267 7.9044 10.9885 7.86223 11.0568 7.83343C11.1251 7.80463 11.1984 7.78979 11.2725 7.78979C11.3466 7.78979 11.4199 7.80463 11.4882 7.83343C11.5565 7.86223 11.6183 7.9044 11.67 7.95747C11.7753 8.06294 11.8345 8.20591 11.8345 8.35497C11.8345 8.50404 11.7753 8.647 11.67 8.75247L8.99999 11.4C8.89859 11.4978 8.76564 11.5563 8.62499 11.565Z" fill="white"/>
<path d="M3.75 2.8125C3.60142 2.81056 3.45947 2.75067 3.3544 2.6456C3.24933 2.54053 3.18944 2.39858 3.1875 2.25V0.75C3.1875 0.600816 3.24676 0.457742 3.35225 0.352252C3.45774 0.246763 3.60082 0.1875 3.75 0.1875C3.89918 0.1875 4.04226 0.246763 4.14775 0.352252C4.25324 0.457742 4.3125 0.600816 4.3125 0.75V2.25C4.31056 2.39858 4.25067 2.54053 4.1456 2.6456C4.04053 2.75067 3.89858 2.81056 3.75 2.8125Z" fill="#1565C0"/>
<path d="M7.25244 2.8125C7.10326 2.8125 6.96018 2.75324 6.85469 2.64775C6.7492 2.54226 6.68994 2.39918 6.68994 2.25V0.75C6.68994 0.600816 6.7492 0.457742 6.85469 0.352252C6.96018 0.246763 7.10326 0.1875 7.25244 0.1875C7.40163 0.1875 7.5447 0.246763 7.65019 0.352252C7.75568 0.457742 7.81494 0.600816 7.81494 0.75V2.25C7.813 2.39858 7.75311 2.54053 7.64804 2.6456C7.54297 2.75067 7.40102 2.81056 7.25244 2.8125Z" fill="#1565C0"/>
<path d="M10.7476 2.8125C10.599 2.81056 10.457 2.75067 10.352 2.6456C10.2469 2.54053 10.187 2.39858 10.1851 2.25V0.75C10.1851 0.600816 10.2443 0.457742 10.3498 0.352252C10.4553 0.246763 10.5984 0.1875 10.7476 0.1875C10.8967 0.1875 11.0398 0.246763 11.1453 0.352252C11.2508 0.457742 11.3101 0.600816 11.3101 0.75V2.25C11.3101 2.39918 11.2508 2.54226 11.1453 2.64775C11.0398 2.75324 10.8967 2.8125 10.7476 2.8125Z" fill="#1565C0"/>
<path d="M14.25 2.8125C14.1014 2.81056 13.9595 2.75067 13.8544 2.6456C13.7493 2.54053 13.6894 2.39858 13.6875 2.25V0.75C13.6875 0.600816 13.7468 0.457742 13.8523 0.352252C13.9577 0.246763 14.1008 0.1875 14.25 0.1875C14.3992 0.1875 14.5423 0.246763 14.6477 0.352252C14.7532 0.457742 14.8125 0.600816 14.8125 0.75V2.25C14.8106 2.39858 14.7507 2.54053 14.6456 2.6456C14.5405 2.75067 14.3986 2.81056 14.25 2.8125Z" fill="#1565C0"/>
</svg>
