<svg width="18" height="19" viewBox="0 0 18 19" fill="none" xmlns="http://www.w3.org/2000/svg">
<g clip-path="url(#clip0_1567_2260)">
<path d="M13.3448 0.5H4.65516C4.14096 0.5 3.72412 0.916838 3.72412 1.43103V17.569C3.72412 18.0832 4.14096 18.5 4.65516 18.5H13.3448C13.859 18.5 14.2758 18.0832 14.2758 17.569V1.43103C14.2758 0.916838 13.859 0.5 13.3448 0.5Z" fill="#62B8CD"/>
<path d="M14.2758 1.43103V17.569C14.2758 18.0832 13.859 18.5 13.3448 18.5H4.65516C4.14096 18.5 3.72412 18.0832 3.72412 17.569V15.2972C7.36447 13.9969 12.749 10.3876 11.4238 0.5H13.3448C13.859 0.5 14.2758 0.916838 14.2758 1.43103Z" fill="#1EA7CE"/>
<path d="M12.1034 0.5L11.2155 1.44717C11.0394 1.63493 10.7935 1.74143 10.5361 1.74138H7.46373C7.20635 1.74143 6.96043 1.63493 6.78438 1.44717L5.89648 0.5H12.1034Z" fill="#1D80BD"/>
<path d="M18 5.15516V13.2241C18 13.7383 17.5832 14.1552 17.069 14.1552H13.6148C13.469 14.1506 13.3444 14.0488 13.3107 13.9069C13.2284 13.6117 13.0071 13.3753 12.7179 13.2738C12.5206 13.2076 12.307 13.2076 12.1097 13.2738C11.8205 13.3753 11.5992 13.6117 11.5169 13.9069C11.4832 14.0488 11.3586 14.1506 11.2128 14.1552H0.931034C0.416838 14.1552 0 13.7383 0 13.2241V5.15516C0 4.64096 0.416838 4.22412 0.931034 4.22412H11.2128C11.3586 4.22872 11.4832 4.33046 11.5169 4.4724C11.5992 4.76758 11.8205 5.00394 12.1097 5.1055C12.307 5.17171 12.5206 5.17171 12.7179 5.1055C13.0071 5.00394 13.2284 4.76758 13.3107 4.4724C13.3444 4.33046 13.469 4.22872 13.6148 4.22412H17.069C17.3159 4.22412 17.5527 4.32221 17.7273 4.49681C17.9019 4.67142 18 4.90823 18 5.15516Z" fill="#F1C200"/>
<path d="M12.724 12.9138V13.2241C12.7253 13.2409 12.7231 13.2578 12.7178 13.2738C12.5205 13.2076 12.3069 13.2076 12.1096 13.2738C12.1043 13.2578 12.1022 13.2409 12.1034 13.2241V12.9138C12.1034 12.7424 12.2423 12.6035 12.4137 12.6035C12.5851 12.6035 12.724 12.7424 12.724 12.9138Z" fill="#F49A00"/>
<path d="M12.4136 11.9828C12.2422 11.9828 12.1033 11.8438 12.1033 11.6724V11.3621C12.1033 11.1907 12.2422 11.0517 12.4136 11.0517C12.585 11.0517 12.724 11.1907 12.724 11.3621V11.6724C12.724 11.8438 12.585 11.9828 12.4136 11.9828Z" fill="#F49A00"/>
<path d="M12.4136 10.431C12.2422 10.431 12.1033 10.2921 12.1033 10.1207V9.81034C12.1033 9.63895 12.2422 9.5 12.4136 9.5C12.585 9.5 12.724 9.63895 12.724 9.81034V10.1207C12.724 10.2921 12.585 10.431 12.4136 10.431Z" fill="#F49A00"/>
<path d="M12.4136 8.87934C12.2422 8.87934 12.1033 8.74039 12.1033 8.56899V8.25865C12.1033 8.08725 12.2422 7.9483 12.4136 7.9483C12.585 7.9483 12.724 8.08725 12.724 8.25865V8.56899C12.724 8.74039 12.585 8.87934 12.4136 8.87934Z" fill="#F49A00"/>
<path d="M12.4136 7.32758C12.2422 7.32758 12.1033 7.18863 12.1033 7.01724V6.70689C12.1033 6.53549 12.2422 6.39655 12.4136 6.39655C12.585 6.39655 12.724 6.53549 12.724 6.70689V7.01724C12.724 7.18863 12.585 7.32758 12.4136 7.32758Z" fill="#F49A00"/>
<path d="M12.724 5.15518V5.46553C12.724 5.63693 12.5851 5.77587 12.4137 5.77587C12.2423 5.77587 12.1034 5.63693 12.1034 5.46553V5.15518C12.1022 5.13839 12.1043 5.12151 12.1096 5.10553C12.3069 5.17174 12.5205 5.17174 12.7178 5.10553C12.7231 5.12151 12.7253 5.13839 12.724 5.15518Z" fill="#F49A00"/>
<path d="M14.2759 12.9138C14.1045 12.9138 13.9656 12.7749 13.9656 12.6035V11.3621C13.9656 11.1907 14.1045 11.0517 14.2759 11.0517C14.4473 11.0517 14.5863 11.1907 14.5863 11.3621V12.6035C14.5863 12.7749 14.4473 12.9138 14.2759 12.9138Z" fill="#3D5C6D"/>
<path d="M15.5171 12.9138C15.3457 12.9138 15.2068 12.7749 15.2068 12.6035V11.3621C15.2068 11.1907 15.3457 11.0517 15.5171 11.0517C15.6885 11.0517 15.8275 11.1907 15.8275 11.3621V12.6035C15.8275 12.7749 15.6885 12.9138 15.5171 12.9138Z" fill="#3D5C6D"/>
<path d="M16.7586 12.9138C16.5872 12.9138 16.4482 12.7749 16.4482 12.6035V11.3621C16.4482 11.1907 16.5872 11.0517 16.7586 11.0517C16.93 11.0517 17.0689 11.1907 17.0689 11.3621V12.6035C17.0689 12.7749 16.93 12.9138 16.7586 12.9138Z" fill="#3D5C6D"/>
<path d="M18.0001 9.5V10.1207H14.2759C14.1045 10.1207 13.9656 9.98174 13.9656 9.81034C13.9656 9.63895 14.1045 9.5 14.2759 9.5H18.0001Z" fill="#E77D00"/>
<path d="M18.0001 8.25861V8.8793H14.2759C14.1045 8.8793 13.9656 8.74035 13.9656 8.56895C13.9656 8.39755 14.1045 8.25861 14.2759 8.25861H18.0001Z" fill="#E77D00"/>
<path d="M15.8276 5.46552H14.5862C14.4148 5.46552 14.2759 5.60446 14.2759 5.77586V7.01724C14.2759 7.18864 14.4148 7.32758 14.5862 7.32758H15.8276C15.999 7.32758 16.1379 7.18864 16.1379 7.01724V5.77586C16.1379 5.60446 15.999 5.46552 15.8276 5.46552Z" fill="#34495F"/>
<path d="M7.75851 8.56896L7.18779 5.71379C7.15826 5.56916 7.03095 5.46534 6.88334 5.46552H6.51713C6.34573 5.46552 6.20679 5.60446 6.20679 5.77586V8.56896H7.75851Z" fill="#34495F"/>
<path d="M3.72409 8.56894L3.18129 7.21242C3.13422 7.0946 3.02017 7.01729 2.89329 7.01721H2.48271C2.31131 7.01721 2.17236 7.15616 2.17236 7.32756V8.56894H3.72409Z" fill="#34495F"/>
<path d="M3.72409 9.81036L3.18129 11.1669C3.13422 11.2847 3.02017 11.362 2.89329 11.3621H2.48271C2.31131 11.3621 2.17236 11.2231 2.17236 11.0517V9.81036H3.72409Z" fill="#34495F"/>
<path d="M7.75851 9.81036L7.18779 12.6655C7.15826 12.8102 7.03095 12.914 6.88334 12.9138H6.51713C6.34573 12.9138 6.20679 12.7749 6.20679 12.6035V9.81036H7.75851Z" fill="#34495F"/>
<path d="M1.86214 9.81035H9.83801C10.2639 9.81039 10.6803 9.68437 11.0347 9.44818C11.121 9.39062 11.1729 9.29372 11.1729 9.18997C11.1729 9.08621 11.121 8.98932 11.0347 8.93176C10.6804 8.69535 10.264 8.56912 9.83801 8.56897H1.86214C1.51935 8.56897 1.24146 8.84686 1.24146 9.18966C1.24146 9.53246 1.51935 9.81035 1.86214 9.81035Z" fill="#3D5C6D"/>
<path d="M14.2758 16.0172V17.569C14.2758 18.0832 13.859 18.5 13.3448 18.5H4.65516C4.14096 18.5 3.72412 18.0832 3.72412 17.569V16.0172C3.72412 16.5314 4.14096 16.9483 4.65516 16.9483H13.3448C13.859 16.9483 14.2758 16.5314 14.2758 16.0172Z" fill="#1D80BD"/>
</g>
<defs>
<clipPath id="clip0_1567_2260">
<rect width="18" height="18" fill="white" transform="translate(0 0.5)"/>
</clipPath>
</defs>
</svg>
